G04 #@! TF.GenerationSoftware,KiCad,Pcbnew,8.0.3-8.0.3-0~ubuntu22.04.1*
G04 #@! TF.CreationDate,2025-02-10T22:12:32+01:00*
G04 #@! TF.ProjectId,garland_controller,6761726c-616e-4645-9f63-6f6e74726f6c,0.1*
G04 #@! TF.SameCoordinates,Original*
G04 #@! TF.FileFunction,Paste,Top*
G04 #@! TF.FilePolarity,Positive*
%FSLAX46Y46*%
G04 Gerber Fmt 4.6, Leading zero omitted, Abs format (unit mm)*
G04 Created by KiCad (PCBNEW 8.0.3-8.0.3-0~ubuntu22.04.1) date 2025-02-10 22:12:32*
%MOMM*%
%LPD*%
G01*
G04 APERTURE LIST*
G04 Aperture macros list*
%AMRoundRect*
0 Rectangle with rounded corners*
0 $1 Rounding radius*
0 $2 $3 $4 $5 $6 $7 $8 $9 X,Y pos of 4 corners*
0 Add a 4 corners polygon primitive as box body*
4,1,4,$2,$3,$4,$5,$6,$7,$8,$9,$2,$3,0*
0 Add four circle primitives for the rounded corners*
1,1,$1+$1,$2,$3*
1,1,$1+$1,$4,$5*
1,1,$1+$1,$6,$7*
1,1,$1+$1,$8,$9*
0 Add four rect primitives between the rounded corners*
20,1,$1+$1,$2,$3,$4,$5,0*
20,1,$1+$1,$4,$5,$6,$7,0*
20,1,$1+$1,$6,$7,$8,$9,0*
20,1,$1+$1,$8,$9,$2,$3,0*%
G04 Aperture macros list end*
%ADD10RoundRect,0.237500X0.237500X-0.250000X0.237500X0.250000X-0.237500X0.250000X-0.237500X-0.250000X0*%
%ADD11RoundRect,0.237500X0.287500X0.237500X-0.287500X0.237500X-0.287500X-0.237500X0.287500X-0.237500X0*%
%ADD12RoundRect,0.237500X-0.300000X-0.237500X0.300000X-0.237500X0.300000X0.237500X-0.300000X0.237500X0*%
%ADD13RoundRect,0.250000X-0.650000X0.412500X-0.650000X-0.412500X0.650000X-0.412500X0.650000X0.412500X0*%
%ADD14RoundRect,0.250001X1.074999X-0.462499X1.074999X0.462499X-1.074999X0.462499X-1.074999X-0.462499X0*%
%ADD15RoundRect,0.237500X0.250000X0.237500X-0.250000X0.237500X-0.250000X-0.237500X0.250000X-0.237500X0*%
%ADD16RoundRect,0.237500X0.300000X0.237500X-0.300000X0.237500X-0.300000X-0.237500X0.300000X-0.237500X0*%
%ADD17RoundRect,0.150000X-0.512500X-0.150000X0.512500X-0.150000X0.512500X0.150000X-0.512500X0.150000X0*%
%ADD18RoundRect,0.237500X-0.250000X-0.237500X0.250000X-0.237500X0.250000X0.237500X-0.250000X0.237500X0*%
%ADD19RoundRect,0.237500X-0.237500X0.250000X-0.237500X-0.250000X0.237500X-0.250000X0.237500X0.250000X0*%
%ADD20RoundRect,0.375000X0.375000X-0.625000X0.375000X0.625000X-0.375000X0.625000X-0.375000X-0.625000X0*%
%ADD21RoundRect,0.500000X1.400000X-0.500000X1.400000X0.500000X-1.400000X0.500000X-1.400000X-0.500000X0*%
%ADD22RoundRect,0.237500X0.237500X-0.300000X0.237500X0.300000X-0.237500X0.300000X-0.237500X-0.300000X0*%
%ADD23RoundRect,0.075000X0.075000X-0.662500X0.075000X0.662500X-0.075000X0.662500X-0.075000X-0.662500X0*%
%ADD24RoundRect,0.075000X0.662500X-0.075000X0.662500X0.075000X-0.662500X0.075000X-0.662500X-0.075000X0*%
%ADD25RoundRect,0.250000X0.412500X0.650000X-0.412500X0.650000X-0.412500X-0.650000X0.412500X-0.650000X0*%
%ADD26RoundRect,0.150000X-0.425000X0.150000X-0.425000X-0.150000X0.425000X-0.150000X0.425000X0.150000X0*%
%ADD27RoundRect,0.075000X-0.500000X0.075000X-0.500000X-0.075000X0.500000X-0.075000X0.500000X0.075000X0*%
%ADD28O,2.100000X1.000000*%
%ADD29O,1.800000X1.000000*%
%ADD30R,4.500000X2.000000*%
%ADD31RoundRect,0.250000X-0.325000X-0.450000X0.325000X-0.450000X0.325000X0.450000X-0.325000X0.450000X0*%
%ADD32RoundRect,0.150000X-0.150000X-0.200000X0.150000X-0.200000X0.150000X0.200000X-0.150000X0.200000X0*%
G04 APERTURE END LIST*
D10*
X122500000Y-64912500D03*
X122500000Y-63087500D03*
D11*
X134875000Y-57000000D03*
X133125000Y-57000000D03*
D12*
X125000000Y-56500000D03*
X126725000Y-56500000D03*
D13*
X124000000Y-68437500D03*
X124000000Y-71562500D03*
D14*
X102000000Y-60487500D03*
X102000000Y-57512500D03*
D15*
X107825000Y-60500000D03*
X106000000Y-60500000D03*
D16*
X136862500Y-78500000D03*
X135137500Y-78500000D03*
D17*
X109725000Y-65600000D03*
X109725000Y-66550000D03*
X109725000Y-67500000D03*
X112000000Y-67500000D03*
X112000000Y-66550000D03*
X112000000Y-65600000D03*
D18*
X131000000Y-71000000D03*
X132825000Y-71000000D03*
D19*
X126500000Y-69587500D03*
X126500000Y-71412500D03*
D12*
X129137500Y-78500000D03*
X130862500Y-78500000D03*
D16*
X122862500Y-66500000D03*
X121137500Y-66500000D03*
X124362500Y-73500000D03*
X122637500Y-73500000D03*
D12*
X135637500Y-60000000D03*
X137362500Y-60000000D03*
D19*
X107500000Y-76587500D03*
X107500000Y-78412500D03*
D20*
X114200000Y-73650000D03*
X116500000Y-73650000D03*
D21*
X116500000Y-67350000D03*
D20*
X118800000Y-73650000D03*
D22*
X138500000Y-69862500D03*
X138500000Y-68137500D03*
D23*
X126250000Y-67662500D03*
X126750000Y-67662500D03*
X127250000Y-67662500D03*
X127750000Y-67662500D03*
X128250000Y-67662500D03*
X128750000Y-67662500D03*
X129250000Y-67662500D03*
X129750000Y-67662500D03*
X130250000Y-67662500D03*
X130750000Y-67662500D03*
X131250000Y-67662500D03*
X131750000Y-67662500D03*
D24*
X133162500Y-66250000D03*
X133162500Y-65750000D03*
X133162500Y-65250000D03*
X133162500Y-64750000D03*
X133162500Y-64250000D03*
X133162500Y-63750000D03*
X133162500Y-63250000D03*
X133162500Y-62750000D03*
X133162500Y-62250000D03*
X133162500Y-61750000D03*
X133162500Y-61250000D03*
X133162500Y-60750000D03*
D23*
X131750000Y-59337500D03*
X131250000Y-59337500D03*
X130750000Y-59337500D03*
X130250000Y-59337500D03*
X129750000Y-59337500D03*
X129250000Y-59337500D03*
X128750000Y-59337500D03*
X128250000Y-59337500D03*
X127750000Y-59337500D03*
X127250000Y-59337500D03*
X126750000Y-59337500D03*
X126250000Y-59337500D03*
D24*
X124837500Y-60750000D03*
X124837500Y-61250000D03*
X124837500Y-61750000D03*
X124837500Y-62250000D03*
X124837500Y-62750000D03*
X124837500Y-63250000D03*
X124837500Y-63750000D03*
X124837500Y-64250000D03*
X124837500Y-64750000D03*
X124837500Y-65250000D03*
X124837500Y-65750000D03*
X124837500Y-66250000D03*
D25*
X111062500Y-74500000D03*
X107937500Y-74500000D03*
D26*
X106680000Y-64300000D03*
X106680000Y-65100000D03*
D27*
X106680000Y-66250000D03*
X106680000Y-67250000D03*
X106680000Y-67750000D03*
X106680000Y-68750000D03*
D26*
X106680000Y-69900000D03*
X106680000Y-70700000D03*
X106680000Y-70700000D03*
X106680000Y-69900000D03*
D27*
X106680000Y-69250000D03*
X106680000Y-68250000D03*
X106680000Y-66750000D03*
X106680000Y-65750000D03*
D26*
X106680000Y-65100000D03*
X106680000Y-64300000D03*
D28*
X106105000Y-63180000D03*
D29*
X101925000Y-63180000D03*
D28*
X106105000Y-71820000D03*
D29*
X101925000Y-71820000D03*
D18*
X136587500Y-57000000D03*
X138412500Y-57000000D03*
D12*
X133637500Y-68500000D03*
X135362500Y-68500000D03*
D30*
X136750000Y-75000000D03*
X128250000Y-75000000D03*
D13*
X121500000Y-68437500D03*
X121500000Y-71562500D03*
D15*
X121412500Y-60000000D03*
X119587500Y-60000000D03*
D31*
X109475000Y-70000000D03*
X111525000Y-70000000D03*
D32*
X117900000Y-60000000D03*
X116500000Y-60000000D03*
M02*
