G04 #@! TF.GenerationSoftware,KiCad,Pcbnew,8.0.3-8.0.3-0~ubuntu22.04.1*
G04 #@! TF.CreationDate,2025-02-10T22:12:32+01:00*
G04 #@! TF.ProjectId,garland_controller,6761726c-616e-4645-9f63-6f6e74726f6c,0.1*
G04 #@! TF.SameCoordinates,Original*
G04 #@! TF.FileFunction,Copper,L2,Bot*
G04 #@! TF.FilePolarity,Positive*
%FSLAX46Y46*%
G04 Gerber Fmt 4.6, Leading zero omitted, Abs format (unit mm)*
G04 Created by KiCad (PCBNEW 8.0.3-8.0.3-0~ubuntu22.04.1) date 2025-02-10 22:12:32*
%MOMM*%
%LPD*%
G01*
G04 APERTURE LIST*
G04 #@! TA.AperFunction,ComponentPad*
%ADD10R,1.700000X1.700000*%
G04 #@! TD*
G04 #@! TA.AperFunction,ComponentPad*
%ADD11O,1.700000X1.700000*%
G04 #@! TD*
G04 #@! TA.AperFunction,ComponentPad*
%ADD12O,2.100000X1.000000*%
G04 #@! TD*
G04 #@! TA.AperFunction,ComponentPad*
%ADD13O,1.800000X1.000000*%
G04 #@! TD*
G04 #@! TA.AperFunction,ViaPad*
%ADD14C,0.600000*%
G04 #@! TD*
G04 #@! TA.AperFunction,Conductor*
%ADD15C,0.500000*%
G04 #@! TD*
G04 #@! TA.AperFunction,Conductor*
%ADD16C,0.200000*%
G04 #@! TD*
G04 APERTURE END LIST*
D10*
X110540000Y-57000000D03*
D11*
X108000000Y-57000000D03*
X105460000Y-57000000D03*
D10*
X112840000Y-78000000D03*
D11*
X115380000Y-78000000D03*
X117920000Y-78000000D03*
X120460000Y-78000000D03*
X123000000Y-78000000D03*
D10*
X115460000Y-57000000D03*
D11*
X118000000Y-57000000D03*
X120540000Y-57000000D03*
D12*
X106105000Y-63180000D03*
D13*
X101925000Y-63180000D03*
D12*
X106105000Y-71820000D03*
D13*
X101925000Y-71820000D03*
D10*
X130000000Y-56500000D03*
D14*
X129799265Y-68950735D03*
X106200000Y-73800000D03*
X129800000Y-66100000D03*
X127150000Y-61000000D03*
X120700000Y-64800000D03*
X135357100Y-62170237D03*
X127900000Y-56800000D03*
X138500000Y-60500000D03*
X121100000Y-73200000D03*
X132817100Y-74870237D03*
X117577100Y-69790237D03*
X125889352Y-64250000D03*
X109957100Y-62170237D03*
X116500000Y-61400000D03*
X109957100Y-72330237D03*
X115037100Y-62170237D03*
X104877100Y-67250237D03*
X112497100Y-57090237D03*
X137897100Y-72330237D03*
X109957100Y-77410237D03*
X137200000Y-67100000D03*
X130277100Y-72330237D03*
X115037100Y-69790237D03*
X132817100Y-77410237D03*
X102337100Y-74870237D03*
X110837500Y-64837500D03*
X112700000Y-72500000D03*
X109000000Y-78900000D03*
X104500000Y-60000000D03*
X113800000Y-76300000D03*
X122200000Y-69900000D03*
X132900000Y-59100000D03*
X123600000Y-58900000D03*
X137300000Y-68700000D03*
X126386678Y-60680739D03*
X117600000Y-71700000D03*
X125700000Y-57100000D03*
X127700000Y-66200000D03*
X127500000Y-69300000D03*
X108250000Y-69150000D03*
X108600000Y-71000000D03*
X126684313Y-66100000D03*
X123286863Y-76191962D03*
X127250000Y-65500000D03*
X123400000Y-75400000D03*
X121000000Y-61000000D03*
X123500000Y-62000000D03*
D15*
X125400000Y-60700000D02*
X123600000Y-58900000D01*
X131800000Y-63200000D02*
X137300000Y-68700000D01*
X125300000Y-63200000D02*
X131800000Y-63200000D01*
X125400000Y-63200000D02*
X125400000Y-60700000D01*
X126386678Y-57786678D02*
X125700000Y-57100000D01*
X122200000Y-69900000D02*
X122200000Y-66300000D01*
X131800000Y-63200000D02*
X131800000Y-60200000D01*
X125300000Y-63200000D02*
X125400000Y-63200000D01*
X113800000Y-76300000D02*
X117600000Y-72500000D01*
X122200000Y-66300000D02*
X125300000Y-63200000D01*
X126386678Y-60680739D02*
X126386678Y-57786678D01*
X131800000Y-60200000D02*
X132900000Y-59100000D01*
X117600000Y-72500000D02*
X117600000Y-71700000D01*
D16*
X127700000Y-66200000D02*
X127500000Y-66400000D01*
X127500000Y-66400000D02*
X127500000Y-69300000D01*
X108250000Y-70650000D02*
X108600000Y-71000000D01*
X108250000Y-69150000D02*
X108250000Y-70650000D01*
X126200000Y-66100000D02*
X124400000Y-67900000D01*
X126684313Y-66100000D02*
X126200000Y-66100000D01*
X123456567Y-76191962D02*
X123286863Y-76191962D01*
X124400000Y-67900000D02*
X124400000Y-75248529D01*
X124400000Y-75248529D02*
X123456567Y-76191962D01*
X123400000Y-68200000D02*
X123400000Y-75400000D01*
X127250000Y-65500000D02*
X126100000Y-65500000D01*
X126100000Y-65500000D02*
X123400000Y-68200000D01*
X123500000Y-62000000D02*
X123000000Y-61500000D01*
X123000000Y-61500000D02*
X121500000Y-61500000D01*
X121500000Y-61500000D02*
X121000000Y-61000000D01*
G04 #@! TA.AperFunction,Conductor*
G36*
X109510083Y-55519407D02*
G01*
X109546047Y-55568907D01*
X109546047Y-55630093D01*
X109510083Y-55679593D01*
X109486489Y-55692258D01*
X109447909Y-55706647D01*
X109332815Y-55792807D01*
X109332807Y-55792815D01*
X109246647Y-55907909D01*
X109246646Y-55907911D01*
X109196403Y-56042618D01*
X109196401Y-56042629D01*
X109190000Y-56102175D01*
X109190000Y-56636638D01*
X109171093Y-56694829D01*
X109121593Y-56730793D01*
X109060407Y-56730793D01*
X109010907Y-56694829D01*
X108996263Y-56665376D01*
X108976401Y-56599901D01*
X108975232Y-56596046D01*
X108877685Y-56413550D01*
X108746410Y-56253590D01*
X108596123Y-56130253D01*
X108586452Y-56122316D01*
X108403954Y-56024768D01*
X108205934Y-55964699D01*
X108205929Y-55964698D01*
X108000003Y-55944417D01*
X107999997Y-55944417D01*
X107794070Y-55964698D01*
X107794065Y-55964699D01*
X107596045Y-56024768D01*
X107413547Y-56122316D01*
X107253595Y-56253585D01*
X107253585Y-56253595D01*
X107122316Y-56413547D01*
X107024768Y-56596045D01*
X106964699Y-56794065D01*
X106964698Y-56794070D01*
X106944417Y-56999996D01*
X106944417Y-57000003D01*
X106964698Y-57205929D01*
X106964699Y-57205934D01*
X107024768Y-57403954D01*
X107122316Y-57586452D01*
X107237964Y-57727370D01*
X107253590Y-57746410D01*
X107253595Y-57746414D01*
X107413547Y-57877683D01*
X107413548Y-57877683D01*
X107413550Y-57877685D01*
X107596046Y-57975232D01*
X107724801Y-58014289D01*
X107794065Y-58035300D01*
X107794070Y-58035301D01*
X107999997Y-58055583D01*
X108000000Y-58055583D01*
X108000003Y-58055583D01*
X108205929Y-58035301D01*
X108205934Y-58035300D01*
X108403954Y-57975232D01*
X108586450Y-57877685D01*
X108746410Y-57746410D01*
X108877685Y-57586450D01*
X108975232Y-57403954D01*
X108996263Y-57334622D01*
X109031248Y-57284426D01*
X109089056Y-57264380D01*
X109147607Y-57282141D01*
X109184536Y-57330925D01*
X109190000Y-57363361D01*
X109190000Y-57897824D01*
X109189999Y-57897824D01*
X109196401Y-57957370D01*
X109196403Y-57957381D01*
X109246646Y-58092088D01*
X109246647Y-58092090D01*
X109332807Y-58207184D01*
X109332815Y-58207192D01*
X109447909Y-58293352D01*
X109447911Y-58293353D01*
X109582618Y-58343596D01*
X109582629Y-58343598D01*
X109642176Y-58350000D01*
X110289999Y-58350000D01*
X110290000Y-58349999D01*
X110290000Y-57433012D01*
X110347007Y-57465925D01*
X110474174Y-57500000D01*
X110605826Y-57500000D01*
X110732993Y-57465925D01*
X110790000Y-57433012D01*
X110790000Y-58349999D01*
X110790001Y-58350000D01*
X111437824Y-58350000D01*
X111497370Y-58343598D01*
X111497381Y-58343596D01*
X111632088Y-58293353D01*
X111632090Y-58293352D01*
X111747184Y-58207192D01*
X111747192Y-58207184D01*
X111833352Y-58092090D01*
X111833353Y-58092088D01*
X111883596Y-57957381D01*
X111883598Y-57957370D01*
X111890000Y-57897824D01*
X111890000Y-57250001D01*
X111889999Y-57250000D01*
X110973012Y-57250000D01*
X111005925Y-57192993D01*
X111040000Y-57065826D01*
X111040000Y-56934174D01*
X111005925Y-56807007D01*
X110973012Y-56750000D01*
X111889999Y-56750000D01*
X111890000Y-56749999D01*
X111890000Y-56130253D01*
X114409500Y-56130253D01*
X114409500Y-57869746D01*
X114409501Y-57869758D01*
X114421132Y-57928227D01*
X114421134Y-57928233D01*
X114465445Y-57994548D01*
X114465448Y-57994552D01*
X114531769Y-58038867D01*
X114576231Y-58047711D01*
X114590241Y-58050498D01*
X114590246Y-58050498D01*
X114590252Y-58050500D01*
X114590253Y-58050500D01*
X116329747Y-58050500D01*
X116329748Y-58050500D01*
X116388231Y-58038867D01*
X116454552Y-57994552D01*
X116498867Y-57928231D01*
X116510500Y-57869748D01*
X116510500Y-56130252D01*
X116508921Y-56122316D01*
X116504915Y-56102175D01*
X116498867Y-56071769D01*
X116454552Y-56005448D01*
X116454548Y-56005445D01*
X116388233Y-55961134D01*
X116388231Y-55961133D01*
X116388228Y-55961132D01*
X116388227Y-55961132D01*
X116329758Y-55949501D01*
X116329748Y-55949500D01*
X114590252Y-55949500D01*
X114590251Y-55949500D01*
X114590241Y-55949501D01*
X114531772Y-55961132D01*
X114531766Y-55961134D01*
X114465451Y-56005445D01*
X114465445Y-56005451D01*
X114421134Y-56071766D01*
X114421132Y-56071772D01*
X114409501Y-56130241D01*
X114409500Y-56130253D01*
X111890000Y-56130253D01*
X111890000Y-56102175D01*
X111883598Y-56042629D01*
X111883596Y-56042618D01*
X111833353Y-55907911D01*
X111833352Y-55907909D01*
X111747192Y-55792815D01*
X111747184Y-55792807D01*
X111632090Y-55706647D01*
X111593511Y-55692258D01*
X111545597Y-55654208D01*
X111529199Y-55595261D01*
X111550581Y-55537933D01*
X111601575Y-55504122D01*
X111628108Y-55500500D01*
X120168231Y-55500500D01*
X120226422Y-55519407D01*
X120262386Y-55568907D01*
X120262386Y-55630093D01*
X120226422Y-55679593D01*
X120193854Y-55695127D01*
X120076505Y-55726570D01*
X119862432Y-55826394D01*
X119862424Y-55826398D01*
X119668926Y-55961886D01*
X119501886Y-56128926D01*
X119366398Y-56322424D01*
X119366394Y-56322432D01*
X119266570Y-56536505D01*
X119211183Y-56743213D01*
X119177859Y-56794527D01*
X119120737Y-56816454D01*
X119061637Y-56800618D01*
X119023132Y-56753068D01*
X119020819Y-56746328D01*
X119019874Y-56743213D01*
X118975232Y-56596046D01*
X118877685Y-56413550D01*
X118746410Y-56253590D01*
X118596123Y-56130253D01*
X118586452Y-56122316D01*
X118403954Y-56024768D01*
X118205934Y-55964699D01*
X118205929Y-55964698D01*
X118000003Y-55944417D01*
X117999997Y-55944417D01*
X117794070Y-55964698D01*
X117794065Y-55964699D01*
X117596045Y-56024768D01*
X117413547Y-56122316D01*
X117253595Y-56253585D01*
X117253585Y-56253595D01*
X117122316Y-56413547D01*
X117024768Y-56596045D01*
X116964699Y-56794065D01*
X116964698Y-56794070D01*
X116944417Y-56999996D01*
X116944417Y-57000003D01*
X116964698Y-57205929D01*
X116964699Y-57205934D01*
X117024768Y-57403954D01*
X117122316Y-57586452D01*
X117237964Y-57727370D01*
X117253590Y-57746410D01*
X117253595Y-57746414D01*
X117413547Y-57877683D01*
X117413548Y-57877683D01*
X117413550Y-57877685D01*
X117596046Y-57975232D01*
X117724801Y-58014289D01*
X117794065Y-58035300D01*
X117794070Y-58035301D01*
X117999997Y-58055583D01*
X118000000Y-58055583D01*
X118000003Y-58055583D01*
X118205929Y-58035301D01*
X118205934Y-58035300D01*
X118403954Y-57975232D01*
X118586450Y-57877685D01*
X118746410Y-57746410D01*
X118877685Y-57586450D01*
X118975232Y-57403954D01*
X119020819Y-57253670D01*
X119055804Y-57203474D01*
X119113612Y-57183428D01*
X119172163Y-57201189D01*
X119209092Y-57249973D01*
X119211183Y-57256786D01*
X119266569Y-57463489D01*
X119366399Y-57677577D01*
X119501886Y-57871073D01*
X119668926Y-58038113D01*
X119862422Y-58173600D01*
X120076509Y-58273430D01*
X120290000Y-58330634D01*
X120290000Y-57433012D01*
X120347007Y-57465925D01*
X120474174Y-57500000D01*
X120605826Y-57500000D01*
X120732993Y-57465925D01*
X120790000Y-57433012D01*
X120790000Y-58330633D01*
X121003490Y-58273430D01*
X121217577Y-58173600D01*
X121411073Y-58038113D01*
X121578113Y-57871073D01*
X121713600Y-57677577D01*
X121813430Y-57463489D01*
X121870636Y-57250000D01*
X120973012Y-57250000D01*
X121005925Y-57192993D01*
X121040000Y-57065826D01*
X121040000Y-56934174D01*
X121005925Y-56807007D01*
X120973012Y-56750000D01*
X121870636Y-56750000D01*
X121813429Y-56536505D01*
X121713605Y-56322432D01*
X121713601Y-56322424D01*
X121578113Y-56128926D01*
X121411073Y-55961886D01*
X121217577Y-55826399D01*
X121003489Y-55726569D01*
X120886146Y-55695127D01*
X120834832Y-55661803D01*
X120812905Y-55604681D01*
X120828741Y-55545581D01*
X120876290Y-55507076D01*
X120911769Y-55500500D01*
X128854677Y-55500500D01*
X128912868Y-55519407D01*
X128948832Y-55568907D01*
X128951775Y-55618814D01*
X128949500Y-55630249D01*
X128949500Y-57369746D01*
X128949501Y-57369758D01*
X128961132Y-57428227D01*
X128961134Y-57428233D01*
X128997156Y-57482143D01*
X129005448Y-57494552D01*
X129071769Y-57538867D01*
X129116231Y-57547711D01*
X129130241Y-57550498D01*
X129130246Y-57550498D01*
X129130252Y-57550500D01*
X129130253Y-57550500D01*
X130869747Y-57550500D01*
X130869748Y-57550500D01*
X130928231Y-57538867D01*
X130994552Y-57494552D01*
X131038867Y-57428231D01*
X131050500Y-57369748D01*
X131050500Y-55630252D01*
X131048225Y-55618814D01*
X131055417Y-55558053D01*
X131096949Y-55513123D01*
X131145323Y-55500500D01*
X139400500Y-55500500D01*
X139458691Y-55519407D01*
X139494655Y-55568907D01*
X139499500Y-55599500D01*
X139499500Y-70901000D01*
X139480593Y-70959191D01*
X139431093Y-70995155D01*
X139400500Y-71000000D01*
X135541008Y-71000000D01*
X135482817Y-70981093D01*
X135471004Y-70971004D01*
X134501500Y-70001500D01*
X133500000Y-69000000D01*
X133499999Y-69000000D01*
X131056053Y-69000000D01*
X130997862Y-68981093D01*
X130971161Y-68951935D01*
X129500000Y-66500000D01*
X128267265Y-66500000D01*
X128209074Y-66481093D01*
X128173110Y-66431593D01*
X128173110Y-66370407D01*
X128177211Y-66359874D01*
X128185166Y-66342454D01*
X128205647Y-66200002D01*
X128205647Y-66199997D01*
X128185165Y-66057543D01*
X128125377Y-65926628D01*
X128125377Y-65926627D01*
X128031128Y-65817857D01*
X128031127Y-65817856D01*
X128031126Y-65817855D01*
X127910057Y-65740049D01*
X127910054Y-65740048D01*
X127910053Y-65740047D01*
X127879131Y-65730967D01*
X127811095Y-65710990D01*
X127760588Y-65676454D01*
X127740027Y-65618826D01*
X127740995Y-65601911D01*
X127755647Y-65500002D01*
X127755647Y-65499997D01*
X127735165Y-65357543D01*
X127675377Y-65226628D01*
X127675377Y-65226627D01*
X127581128Y-65117857D01*
X127581127Y-65117856D01*
X127581126Y-65117855D01*
X127460057Y-65040049D01*
X127460054Y-65040047D01*
X127460053Y-65040047D01*
X127460050Y-65040046D01*
X127321964Y-64999500D01*
X127321961Y-64999500D01*
X127178039Y-64999500D01*
X127178035Y-64999500D01*
X127039949Y-65040046D01*
X127039942Y-65040049D01*
X126918876Y-65117854D01*
X126918871Y-65117858D01*
X126877736Y-65165331D01*
X126825340Y-65196927D01*
X126802917Y-65199500D01*
X126139562Y-65199500D01*
X126060438Y-65199500D01*
X126019385Y-65210500D01*
X125984007Y-65219979D01*
X125915493Y-65259536D01*
X123215489Y-67959540D01*
X123215488Y-67959539D01*
X123159539Y-68015489D01*
X123119980Y-68084007D01*
X123119978Y-68084011D01*
X123099500Y-68160435D01*
X123099500Y-74946105D01*
X123080593Y-75004296D01*
X123073258Y-75012289D01*
X123073509Y-75012506D01*
X122974622Y-75126628D01*
X122914834Y-75257543D01*
X122894353Y-75399997D01*
X122894353Y-75400002D01*
X122914834Y-75542456D01*
X122974620Y-75673367D01*
X122974623Y-75673373D01*
X122974626Y-75673376D01*
X122977811Y-75678332D01*
X122993367Y-75737507D01*
X122971170Y-75794524D01*
X122959365Y-75806672D01*
X122955740Y-75809813D01*
X122861485Y-75918590D01*
X122801697Y-76049505D01*
X122781216Y-76191959D01*
X122781216Y-76191964D01*
X122801697Y-76334418D01*
X122851037Y-76442456D01*
X122861486Y-76465335D01*
X122870862Y-76476155D01*
X122955736Y-76574106D01*
X123076805Y-76651912D01*
X123076810Y-76651915D01*
X123136237Y-76669364D01*
X123214898Y-76692461D01*
X123214899Y-76692461D01*
X123214902Y-76692462D01*
X123214904Y-76692462D01*
X123358822Y-76692462D01*
X123358824Y-76692462D01*
X123496916Y-76651915D01*
X123617991Y-76574105D01*
X123712240Y-76465335D01*
X123772028Y-76334419D01*
X123772870Y-76328559D01*
X123799862Y-76273651D01*
X123800790Y-76272708D01*
X124640460Y-75433040D01*
X124659536Y-75400000D01*
X124680020Y-75364521D01*
X124680020Y-75364519D01*
X124680022Y-75364517D01*
X124700500Y-75288091D01*
X124700500Y-75208967D01*
X124700500Y-68065478D01*
X124719407Y-68007287D01*
X124729490Y-67995480D01*
X126229592Y-66495377D01*
X126284107Y-66467602D01*
X126344539Y-66477173D01*
X126353118Y-66482099D01*
X126353183Y-66482140D01*
X126353185Y-66482143D01*
X126474260Y-66559953D01*
X126580716Y-66591211D01*
X126612348Y-66600499D01*
X126612349Y-66600499D01*
X126612352Y-66600500D01*
X126612354Y-66600500D01*
X126756272Y-66600500D01*
X126756274Y-66600500D01*
X126894366Y-66559953D01*
X127015441Y-66482143D01*
X127025680Y-66470325D01*
X127078076Y-66438730D01*
X127139037Y-66443966D01*
X127185278Y-66484033D01*
X127199500Y-66535157D01*
X127199500Y-68846105D01*
X127180593Y-68904296D01*
X127173258Y-68912289D01*
X127173509Y-68912506D01*
X127168872Y-68917856D01*
X127168872Y-68917857D01*
X127114078Y-68981093D01*
X127074622Y-69026628D01*
X127014834Y-69157543D01*
X126994353Y-69299997D01*
X126994353Y-69300002D01*
X127014834Y-69442456D01*
X127059043Y-69539259D01*
X127074623Y-69573373D01*
X127168872Y-69682143D01*
X127168873Y-69682144D01*
X127198570Y-69701229D01*
X127289947Y-69759953D01*
X127428039Y-69800500D01*
X127428040Y-69800500D01*
X127428891Y-69800750D01*
X127479398Y-69835286D01*
X127499960Y-69892913D01*
X127500000Y-69895740D01*
X127500000Y-71901000D01*
X127481093Y-71959191D01*
X127431593Y-71995155D01*
X127401000Y-72000000D01*
X126000000Y-72000000D01*
X125000000Y-73000000D01*
X125000000Y-73000001D01*
X125000000Y-79400500D01*
X124981093Y-79458691D01*
X124931593Y-79494655D01*
X124901000Y-79499500D01*
X120831769Y-79499500D01*
X120773578Y-79480593D01*
X120737614Y-79431093D01*
X120737614Y-79369907D01*
X120773578Y-79320407D01*
X120806146Y-79304873D01*
X120923489Y-79273430D01*
X121137577Y-79173600D01*
X121331073Y-79038113D01*
X121498113Y-78871073D01*
X121633600Y-78677577D01*
X121733430Y-78463490D01*
X121788816Y-78256786D01*
X121822140Y-78205472D01*
X121879261Y-78183545D01*
X121938362Y-78199380D01*
X121976867Y-78246930D01*
X121979180Y-78253671D01*
X122024768Y-78403954D01*
X122122316Y-78586452D01*
X122253585Y-78746404D01*
X122253590Y-78746410D01*
X122253595Y-78746414D01*
X122413547Y-78877683D01*
X122413548Y-78877683D01*
X122413550Y-78877685D01*
X122596046Y-78975232D01*
X122733997Y-79017078D01*
X122794065Y-79035300D01*
X122794070Y-79035301D01*
X122999997Y-79055583D01*
X123000000Y-79055583D01*
X123000003Y-79055583D01*
X123205929Y-79035301D01*
X123205934Y-79035300D01*
X123403954Y-78975232D01*
X123586450Y-78877685D01*
X123746410Y-78746410D01*
X123877685Y-78586450D01*
X123975232Y-78403954D01*
X124035300Y-78205934D01*
X124035301Y-78205929D01*
X124055583Y-78000003D01*
X124055583Y-77999996D01*
X124035301Y-77794070D01*
X124035300Y-77794065D01*
X123986879Y-77634443D01*
X123975232Y-77596046D01*
X123877685Y-77413550D01*
X123746410Y-77253590D01*
X123596123Y-77130253D01*
X123586452Y-77122316D01*
X123403954Y-77024768D01*
X123205934Y-76964699D01*
X123205929Y-76964698D01*
X123000003Y-76944417D01*
X122999997Y-76944417D01*
X122794070Y-76964698D01*
X122794065Y-76964699D01*
X122596045Y-77024768D01*
X122413547Y-77122316D01*
X122253595Y-77253585D01*
X122253585Y-77253595D01*
X122122316Y-77413547D01*
X122024769Y-77596044D01*
X122024768Y-77596046D01*
X122013121Y-77634443D01*
X121979180Y-77746329D01*
X121944195Y-77796525D01*
X121886386Y-77816571D01*
X121827836Y-77798810D01*
X121790907Y-77750025D01*
X121788816Y-77743213D01*
X121733429Y-77536504D01*
X121633605Y-77322432D01*
X121633601Y-77322424D01*
X121498113Y-77128926D01*
X121331073Y-76961886D01*
X121137577Y-76826399D01*
X120923489Y-76726569D01*
X120710000Y-76669364D01*
X120710000Y-77566988D01*
X120652993Y-77534075D01*
X120525826Y-77500000D01*
X120394174Y-77500000D01*
X120267007Y-77534075D01*
X120210000Y-77566988D01*
X120210000Y-76669364D01*
X119996505Y-76726570D01*
X119782432Y-76826394D01*
X119782424Y-76826398D01*
X119588926Y-76961886D01*
X119421886Y-77128926D01*
X119286398Y-77322424D01*
X119286394Y-77322432D01*
X119186570Y-77536505D01*
X119131183Y-77743213D01*
X119097859Y-77794527D01*
X119040737Y-77816454D01*
X118981637Y-77800618D01*
X118943132Y-77753068D01*
X118940819Y-77746328D01*
X118906879Y-77634443D01*
X118895232Y-77596046D01*
X118797685Y-77413550D01*
X118666410Y-77253590D01*
X118516123Y-77130253D01*
X118506452Y-77122316D01*
X118323954Y-77024768D01*
X118125934Y-76964699D01*
X118125929Y-76964698D01*
X117920003Y-76944417D01*
X117919997Y-76944417D01*
X117714070Y-76964698D01*
X117714065Y-76964699D01*
X117516045Y-77024768D01*
X117333547Y-77122316D01*
X117173595Y-77253585D01*
X117173585Y-77253595D01*
X117042316Y-77413547D01*
X116944768Y-77596045D01*
X116884699Y-77794065D01*
X116884698Y-77794070D01*
X116864417Y-77999996D01*
X116864417Y-78000003D01*
X116884698Y-78205929D01*
X116884699Y-78205934D01*
X116944768Y-78403954D01*
X117042316Y-78586452D01*
X117173585Y-78746404D01*
X117173590Y-78746410D01*
X117173595Y-78746414D01*
X117333547Y-78877683D01*
X117333548Y-78877683D01*
X117333550Y-78877685D01*
X117516046Y-78975232D01*
X117653997Y-79017078D01*
X117714065Y-79035300D01*
X117714070Y-79035301D01*
X117919997Y-79055583D01*
X117920000Y-79055583D01*
X117920003Y-79055583D01*
X118125929Y-79035301D01*
X118125934Y-79035300D01*
X118323954Y-78975232D01*
X118506450Y-78877685D01*
X118666410Y-78746410D01*
X118797685Y-78586450D01*
X118895232Y-78403954D01*
X118940819Y-78253670D01*
X118975804Y-78203474D01*
X119033612Y-78183428D01*
X119092163Y-78201189D01*
X119129092Y-78249973D01*
X119131183Y-78256786D01*
X119186569Y-78463489D01*
X119286399Y-78677577D01*
X119421886Y-78871073D01*
X119588926Y-79038113D01*
X119782422Y-79173600D01*
X119996510Y-79273430D01*
X120113854Y-79304873D01*
X120165168Y-79338197D01*
X120187095Y-79395319D01*
X120171259Y-79454419D01*
X120123710Y-79492924D01*
X120088231Y-79499500D01*
X100599500Y-79499500D01*
X100541309Y-79480593D01*
X100505345Y-79431093D01*
X100500500Y-79400500D01*
X100500500Y-76904728D01*
X102789500Y-76904728D01*
X102789500Y-77095271D01*
X102819306Y-77283456D01*
X102878185Y-77464669D01*
X102964687Y-77634439D01*
X102964689Y-77634443D01*
X103076677Y-77788582D01*
X103076679Y-77788584D01*
X103076682Y-77788588D01*
X103211412Y-77923318D01*
X103211415Y-77923320D01*
X103211417Y-77923322D01*
X103365556Y-78035310D01*
X103365560Y-78035312D01*
X103535329Y-78121814D01*
X103716541Y-78180693D01*
X103791817Y-78192615D01*
X103904729Y-78210500D01*
X103904732Y-78210500D01*
X104095271Y-78210500D01*
X104205801Y-78192993D01*
X104283459Y-78180693D01*
X104464671Y-78121814D01*
X104634440Y-78035312D01*
X104788588Y-77923318D01*
X104923318Y-77788588D01*
X105035312Y-77634440D01*
X105121814Y-77464671D01*
X105180693Y-77283459D01*
X105204959Y-77130253D01*
X111789500Y-77130253D01*
X111789500Y-78869746D01*
X111789501Y-78869758D01*
X111801132Y-78928227D01*
X111801134Y-78928233D01*
X111845445Y-78994548D01*
X111845448Y-78994552D01*
X111911769Y-79038867D01*
X111956231Y-79047711D01*
X111970241Y-79050498D01*
X111970246Y-79050498D01*
X111970252Y-79050500D01*
X111970253Y-79050500D01*
X113709747Y-79050500D01*
X113709748Y-79050500D01*
X113768231Y-79038867D01*
X113834552Y-78994552D01*
X113878867Y-78928231D01*
X113890500Y-78869748D01*
X113890500Y-77999996D01*
X114324417Y-77999996D01*
X114324417Y-78000003D01*
X114344698Y-78205929D01*
X114344699Y-78205934D01*
X114404768Y-78403954D01*
X114502316Y-78586452D01*
X114633585Y-78746404D01*
X114633590Y-78746410D01*
X114633595Y-78746414D01*
X114793547Y-78877683D01*
X114793548Y-78877683D01*
X114793550Y-78877685D01*
X114976046Y-78975232D01*
X115113997Y-79017078D01*
X115174065Y-79035300D01*
X115174070Y-79035301D01*
X115379997Y-79055583D01*
X115380000Y-79055583D01*
X115380003Y-79055583D01*
X115585929Y-79035301D01*
X115585934Y-79035300D01*
X115783954Y-78975232D01*
X115966450Y-78877685D01*
X116126410Y-78746410D01*
X116257685Y-78586450D01*
X116355232Y-78403954D01*
X116415300Y-78205934D01*
X116415301Y-78205929D01*
X116435583Y-78000003D01*
X116435583Y-77999996D01*
X116415301Y-77794070D01*
X116415300Y-77794065D01*
X116366879Y-77634443D01*
X116355232Y-77596046D01*
X116257685Y-77413550D01*
X116126410Y-77253590D01*
X115976123Y-77130253D01*
X115966452Y-77122316D01*
X115783954Y-77024768D01*
X115585934Y-76964699D01*
X115585929Y-76964698D01*
X115380003Y-76944417D01*
X115379997Y-76944417D01*
X115174070Y-76964698D01*
X115174065Y-76964699D01*
X114976045Y-77024768D01*
X114793547Y-77122316D01*
X114633595Y-77253585D01*
X114633585Y-77253595D01*
X114502316Y-77413547D01*
X114404768Y-77596045D01*
X114344699Y-77794065D01*
X114344698Y-77794070D01*
X114324417Y-77999996D01*
X113890500Y-77999996D01*
X113890500Y-77130252D01*
X113888921Y-77122316D01*
X113883541Y-77095268D01*
X113878867Y-77071769D01*
X113834552Y-77005448D01*
X113799182Y-76981814D01*
X113761304Y-76933765D01*
X113758902Y-76872627D01*
X113792895Y-76821753D01*
X113850299Y-76800576D01*
X113854185Y-76800500D01*
X113871959Y-76800500D01*
X113871961Y-76800500D01*
X114010053Y-76759953D01*
X114131128Y-76682143D01*
X114225377Y-76573373D01*
X114269776Y-76476151D01*
X114289821Y-76447280D01*
X117960490Y-72776613D01*
X118019799Y-72673886D01*
X118050500Y-72559309D01*
X118050500Y-71939897D01*
X118059446Y-71898771D01*
X118085165Y-71842457D01*
X118085165Y-71842455D01*
X118085166Y-71842454D01*
X118105647Y-71700002D01*
X118105647Y-71699997D01*
X118085165Y-71557543D01*
X118059114Y-71500500D01*
X118025377Y-71426627D01*
X117931128Y-71317857D01*
X117931127Y-71317856D01*
X117931126Y-71317855D01*
X117810057Y-71240049D01*
X117810054Y-71240047D01*
X117810053Y-71240047D01*
X117778714Y-71230845D01*
X117671964Y-71199500D01*
X117671961Y-71199500D01*
X117528039Y-71199500D01*
X117528035Y-71199500D01*
X117389949Y-71240046D01*
X117389942Y-71240049D01*
X117268873Y-71317855D01*
X117174622Y-71426628D01*
X117114834Y-71557543D01*
X117094353Y-71699997D01*
X117094353Y-71700002D01*
X117114833Y-71842454D01*
X117128286Y-71871911D01*
X117140553Y-71898771D01*
X117149500Y-71939897D01*
X117149500Y-72272388D01*
X117130593Y-72330579D01*
X117120504Y-72342392D01*
X113654392Y-75808503D01*
X113612281Y-75833488D01*
X113589949Y-75840045D01*
X113589947Y-75840046D01*
X113468873Y-75917855D01*
X113374622Y-76026628D01*
X113314834Y-76157543D01*
X113294353Y-76299997D01*
X113294353Y-76300002D01*
X113314834Y-76442456D01*
X113357249Y-76535330D01*
X113374623Y-76573373D01*
X113457799Y-76669364D01*
X113468873Y-76682144D01*
X113589946Y-76759953D01*
X113591026Y-76760446D01*
X113591755Y-76761115D01*
X113595903Y-76763781D01*
X113595441Y-76764498D01*
X113636105Y-76801817D01*
X113648257Y-76861783D01*
X113622841Y-76917440D01*
X113569564Y-76947528D01*
X113549902Y-76949500D01*
X111970252Y-76949500D01*
X111970251Y-76949500D01*
X111970241Y-76949501D01*
X111911772Y-76961132D01*
X111911766Y-76961134D01*
X111845451Y-77005445D01*
X111845445Y-77005451D01*
X111801134Y-77071766D01*
X111801132Y-77071772D01*
X111789501Y-77130241D01*
X111789500Y-77130253D01*
X105204959Y-77130253D01*
X105210500Y-77095268D01*
X105210500Y-76904732D01*
X105210500Y-76904728D01*
X105180693Y-76716543D01*
X105180693Y-76716541D01*
X105121814Y-76535329D01*
X105035312Y-76365560D01*
X105035310Y-76365556D01*
X104923322Y-76211417D01*
X104923320Y-76211415D01*
X104923318Y-76211412D01*
X104788588Y-76076682D01*
X104788584Y-76076679D01*
X104788582Y-76076677D01*
X104634443Y-75964689D01*
X104634439Y-75964687D01*
X104464669Y-75878185D01*
X104283456Y-75819306D01*
X104095271Y-75789500D01*
X104095268Y-75789500D01*
X103904732Y-75789500D01*
X103904729Y-75789500D01*
X103716543Y-75819306D01*
X103535330Y-75878185D01*
X103365560Y-75964687D01*
X103365556Y-75964689D01*
X103211417Y-76076677D01*
X103076677Y-76211417D01*
X102964689Y-76365556D01*
X102964687Y-76365560D01*
X102878185Y-76535330D01*
X102819306Y-76716543D01*
X102789500Y-76904728D01*
X100500500Y-76904728D01*
X100500500Y-72413040D01*
X100519407Y-72354849D01*
X100568907Y-72318885D01*
X100630093Y-72318885D01*
X100679593Y-72354849D01*
X100681815Y-72358038D01*
X100748249Y-72457462D01*
X100748252Y-72457466D01*
X100887533Y-72596747D01*
X100887537Y-72596750D01*
X101051314Y-72706185D01*
X101051326Y-72706191D01*
X101233310Y-72781570D01*
X101426506Y-72819999D01*
X101426510Y-72820000D01*
X101674999Y-72820000D01*
X101675000Y-72819999D01*
X101675000Y-72120000D01*
X102175000Y-72120000D01*
X102175000Y-72819999D01*
X102175001Y-72820000D01*
X102423490Y-72820000D01*
X102423493Y-72819999D01*
X102616688Y-72781570D01*
X102616690Y-72781570D01*
X102798673Y-72706191D01*
X102798685Y-72706185D01*
X102962462Y-72596750D01*
X102962466Y-72596747D01*
X103101747Y-72457466D01*
X103101750Y-72457462D01*
X103211185Y-72293685D01*
X103211191Y-72293673D01*
X103286568Y-72111695D01*
X103286571Y-72111684D01*
X103294863Y-72070000D01*
X102491988Y-72070000D01*
X102509205Y-72060060D01*
X102565060Y-72004205D01*
X102604556Y-71935796D01*
X102625000Y-71859496D01*
X102625000Y-71780504D01*
X102604556Y-71704204D01*
X102565060Y-71635795D01*
X102509205Y-71579940D01*
X102491988Y-71570000D01*
X103294862Y-71570000D01*
X104585137Y-71570000D01*
X105388012Y-71570000D01*
X105370795Y-71579940D01*
X105314940Y-71635795D01*
X105275444Y-71704204D01*
X105255000Y-71780504D01*
X105255000Y-71859496D01*
X105275444Y-71935796D01*
X105314940Y-72004205D01*
X105370795Y-72060060D01*
X105388012Y-72070000D01*
X104585137Y-72070000D01*
X104593428Y-72111684D01*
X104593431Y-72111695D01*
X104668808Y-72293673D01*
X104668814Y-72293685D01*
X104778249Y-72457462D01*
X104778252Y-72457466D01*
X104917533Y-72596747D01*
X104917537Y-72596750D01*
X105081314Y-72706185D01*
X105081326Y-72706191D01*
X105263310Y-72781570D01*
X105456506Y-72819999D01*
X105456510Y-72820000D01*
X105854999Y-72820000D01*
X105855000Y-72819999D01*
X105855000Y-72120000D01*
X106355000Y-72120000D01*
X106355000Y-72819999D01*
X106355001Y-72820000D01*
X106753490Y-72820000D01*
X106753493Y-72819999D01*
X106946688Y-72781570D01*
X106946690Y-72781570D01*
X107128673Y-72706191D01*
X107128685Y-72706185D01*
X107292462Y-72596750D01*
X107292466Y-72596747D01*
X107431747Y-72457466D01*
X107431750Y-72457462D01*
X107541185Y-72293685D01*
X107541191Y-72293673D01*
X107616568Y-72111695D01*
X107616571Y-72111684D01*
X107624863Y-72070000D01*
X106821988Y-72070000D01*
X106839205Y-72060060D01*
X106895060Y-72004205D01*
X106934556Y-71935796D01*
X106955000Y-71859496D01*
X106955000Y-71780504D01*
X106934556Y-71704204D01*
X106895060Y-71635795D01*
X106839205Y-71579940D01*
X106821988Y-71570000D01*
X107624862Y-71570000D01*
X107616571Y-71528315D01*
X107616568Y-71528304D01*
X107541191Y-71346326D01*
X107541185Y-71346314D01*
X107431750Y-71182537D01*
X107431747Y-71182533D01*
X107292466Y-71043252D01*
X107292462Y-71043249D01*
X107128685Y-70933814D01*
X107128673Y-70933808D01*
X106946689Y-70858429D01*
X106753493Y-70820000D01*
X106355001Y-70820000D01*
X106355000Y-70820001D01*
X106355000Y-71520000D01*
X105855000Y-71520000D01*
X105855000Y-70863426D01*
X105873907Y-70805235D01*
X105898471Y-70783120D01*
X105897955Y-70782447D01*
X105903098Y-70778499D01*
X105903104Y-70778496D01*
X105993496Y-70688104D01*
X106057414Y-70577396D01*
X106090500Y-70453917D01*
X106090500Y-70326083D01*
X106057414Y-70202604D01*
X106057412Y-70202601D01*
X106057412Y-70202599D01*
X105993499Y-70091900D01*
X105993497Y-70091898D01*
X105993496Y-70091896D01*
X105903104Y-70001504D01*
X105903101Y-70001502D01*
X105903099Y-70001500D01*
X105792399Y-69937587D01*
X105792401Y-69937587D01*
X105744489Y-69924749D01*
X105668917Y-69904500D01*
X105541083Y-69904500D01*
X105465510Y-69924749D01*
X105417599Y-69937587D01*
X105306900Y-70001500D01*
X105216500Y-70091900D01*
X105152587Y-70202599D01*
X105152586Y-70202604D01*
X105119500Y-70326083D01*
X105119500Y-70453917D01*
X105142579Y-70540049D01*
X105152587Y-70577400D01*
X105216500Y-70688099D01*
X105216502Y-70688101D01*
X105216504Y-70688104D01*
X105245885Y-70717485D01*
X105273661Y-70772000D01*
X105264090Y-70832432D01*
X105220825Y-70875697D01*
X105213766Y-70878951D01*
X105081323Y-70933810D01*
X105081314Y-70933814D01*
X104917537Y-71043249D01*
X104917533Y-71043252D01*
X104778252Y-71182533D01*
X104778249Y-71182537D01*
X104668814Y-71346314D01*
X104668808Y-71346326D01*
X104593431Y-71528304D01*
X104593428Y-71528315D01*
X104585137Y-71570000D01*
X103294862Y-71570000D01*
X103286571Y-71528315D01*
X103286568Y-71528304D01*
X103211191Y-71346326D01*
X103211185Y-71346314D01*
X103101750Y-71182537D01*
X103101747Y-71182533D01*
X102962466Y-71043252D01*
X102962462Y-71043249D01*
X102798685Y-70933814D01*
X102798673Y-70933808D01*
X102616689Y-70858429D01*
X102423493Y-70820000D01*
X102175001Y-70820000D01*
X102175000Y-70820001D01*
X102175000Y-71520000D01*
X101675000Y-71520000D01*
X101675000Y-70820001D01*
X101674999Y-70820000D01*
X101426506Y-70820000D01*
X101233311Y-70858429D01*
X101233309Y-70858429D01*
X101051326Y-70933808D01*
X101051314Y-70933814D01*
X100887537Y-71043249D01*
X100887533Y-71043252D01*
X100748248Y-71182537D01*
X100681815Y-71281961D01*
X100633765Y-71319840D01*
X100572626Y-71322242D01*
X100521753Y-71288248D01*
X100500576Y-71230845D01*
X100500500Y-71226959D01*
X100500500Y-69149997D01*
X107744353Y-69149997D01*
X107744353Y-69150002D01*
X107764834Y-69292456D01*
X107824623Y-69423373D01*
X107923509Y-69537494D01*
X107921471Y-69539259D01*
X107946925Y-69581458D01*
X107949500Y-69603893D01*
X107949500Y-70689564D01*
X107969978Y-70765988D01*
X107969979Y-70765989D01*
X107998557Y-70815487D01*
X107998558Y-70815491D01*
X107998559Y-70815491D01*
X108009538Y-70834508D01*
X108009539Y-70834510D01*
X108069453Y-70894425D01*
X108097230Y-70948942D01*
X108097442Y-70978515D01*
X108094353Y-71000000D01*
X108114834Y-71142456D01*
X108133137Y-71182533D01*
X108174623Y-71273373D01*
X108237837Y-71346326D01*
X108268873Y-71382144D01*
X108338092Y-71426628D01*
X108389947Y-71459953D01*
X108496403Y-71491211D01*
X108528035Y-71500499D01*
X108528036Y-71500499D01*
X108528039Y-71500500D01*
X108528041Y-71500500D01*
X108671959Y-71500500D01*
X108671961Y-71500500D01*
X108810053Y-71459953D01*
X108931128Y-71382143D01*
X109025377Y-71273373D01*
X109085165Y-71142457D01*
X109105647Y-71000000D01*
X109104950Y-70995155D01*
X109085165Y-70857543D01*
X109078256Y-70842414D01*
X109025377Y-70726627D01*
X108931128Y-70617857D01*
X108931127Y-70617856D01*
X108931126Y-70617855D01*
X108810057Y-70540049D01*
X108810054Y-70540047D01*
X108810053Y-70540047D01*
X108810050Y-70540046D01*
X108671964Y-70499500D01*
X108671961Y-70499500D01*
X108649500Y-70499500D01*
X108591309Y-70480593D01*
X108555345Y-70431093D01*
X108550500Y-70400500D01*
X108550500Y-69899997D01*
X121694353Y-69899997D01*
X121694353Y-69900002D01*
X121714834Y-70042456D01*
X121737413Y-70091896D01*
X121774623Y-70173373D01*
X121799952Y-70202604D01*
X121868873Y-70282144D01*
X121989942Y-70359950D01*
X121989947Y-70359953D01*
X122096403Y-70391211D01*
X122128035Y-70400499D01*
X122128036Y-70400499D01*
X122128039Y-70400500D01*
X122128041Y-70400500D01*
X122271959Y-70400500D01*
X122271961Y-70400500D01*
X122410053Y-70359953D01*
X122531128Y-70282143D01*
X122625377Y-70173373D01*
X122685165Y-70042457D01*
X122705647Y-69900000D01*
X122685165Y-69757543D01*
X122659447Y-69701229D01*
X122650500Y-69660102D01*
X122650500Y-66527611D01*
X122669407Y-66469420D01*
X122679496Y-66457607D01*
X125457607Y-63679496D01*
X125512124Y-63651719D01*
X125527611Y-63650500D01*
X131572389Y-63650500D01*
X131630580Y-63669407D01*
X131642393Y-63679496D01*
X136810176Y-68847280D01*
X136830225Y-68876157D01*
X136849269Y-68917857D01*
X136874623Y-68973373D01*
X136968872Y-69082143D01*
X136968873Y-69082144D01*
X137074463Y-69150002D01*
X137089947Y-69159953D01*
X137196403Y-69191211D01*
X137228035Y-69200499D01*
X137228036Y-69200499D01*
X137228039Y-69200500D01*
X137228041Y-69200500D01*
X137371959Y-69200500D01*
X137371961Y-69200500D01*
X137510053Y-69159953D01*
X137631128Y-69082143D01*
X137725377Y-68973373D01*
X137785165Y-68842457D01*
X137805647Y-68700000D01*
X137804216Y-68690049D01*
X137785165Y-68557543D01*
X137725377Y-68426628D01*
X137725377Y-68426627D01*
X137631128Y-68317857D01*
X137631127Y-68317856D01*
X137631126Y-68317855D01*
X137510054Y-68240047D01*
X137487719Y-68233489D01*
X137445607Y-68208503D01*
X133141832Y-63904728D01*
X135789500Y-63904728D01*
X135789500Y-64095271D01*
X135819306Y-64283456D01*
X135878185Y-64464669D01*
X135964687Y-64634439D01*
X135964689Y-64634443D01*
X136076677Y-64788582D01*
X136076679Y-64788584D01*
X136076682Y-64788588D01*
X136211412Y-64923318D01*
X136211415Y-64923320D01*
X136211417Y-64923322D01*
X136365556Y-65035310D01*
X136365560Y-65035312D01*
X136535329Y-65121814D01*
X136716541Y-65180693D01*
X136791817Y-65192615D01*
X136904729Y-65210500D01*
X136904732Y-65210500D01*
X137095271Y-65210500D01*
X137189363Y-65195596D01*
X137283459Y-65180693D01*
X137464671Y-65121814D01*
X137634440Y-65035312D01*
X137788588Y-64923318D01*
X137923318Y-64788588D01*
X138035312Y-64634440D01*
X138121814Y-64464671D01*
X138180693Y-64283459D01*
X138200630Y-64157586D01*
X138210500Y-64095271D01*
X138210500Y-63904728D01*
X138180693Y-63716543D01*
X138180693Y-63716541D01*
X138121814Y-63535329D01*
X138035312Y-63365560D01*
X138035310Y-63365556D01*
X137923322Y-63211417D01*
X137923320Y-63211415D01*
X137923318Y-63211412D01*
X137788588Y-63076682D01*
X137788584Y-63076679D01*
X137788582Y-63076677D01*
X137634443Y-62964689D01*
X137634439Y-62964687D01*
X137464669Y-62878185D01*
X137283456Y-62819306D01*
X137095271Y-62789500D01*
X137095268Y-62789500D01*
X136904732Y-62789500D01*
X136904729Y-62789500D01*
X136716543Y-62819306D01*
X136535330Y-62878185D01*
X136365560Y-62964687D01*
X136365556Y-62964689D01*
X136211417Y-63076677D01*
X136076677Y-63211417D01*
X135964689Y-63365556D01*
X135964687Y-63365560D01*
X135878185Y-63535330D01*
X135819306Y-63716543D01*
X135789500Y-63904728D01*
X133141832Y-63904728D01*
X132279496Y-63042392D01*
X132251719Y-62987875D01*
X132250500Y-62972388D01*
X132250500Y-60427610D01*
X132269407Y-60369419D01*
X132279490Y-60357612D01*
X133045607Y-59591494D01*
X133087723Y-59566509D01*
X133110053Y-59559953D01*
X133231128Y-59482143D01*
X133325377Y-59373373D01*
X133385165Y-59242457D01*
X133405647Y-59100000D01*
X133385165Y-58957543D01*
X133325377Y-58826627D01*
X133231128Y-58717857D01*
X133231127Y-58717856D01*
X133231126Y-58717855D01*
X133110057Y-58640049D01*
X133110054Y-58640047D01*
X133110053Y-58640047D01*
X133110050Y-58640046D01*
X132971964Y-58599500D01*
X132971961Y-58599500D01*
X132828039Y-58599500D01*
X132828035Y-58599500D01*
X132689949Y-58640046D01*
X132689942Y-58640049D01*
X132568873Y-58717855D01*
X132474621Y-58826628D01*
X132430224Y-58923843D01*
X132410175Y-58952719D01*
X131439511Y-59923385D01*
X131439507Y-59923390D01*
X131380200Y-60026112D01*
X131380200Y-60026113D01*
X131380201Y-60026114D01*
X131349500Y-60140692D01*
X131349500Y-62650500D01*
X131330593Y-62708691D01*
X131281093Y-62744655D01*
X131250500Y-62749500D01*
X125949500Y-62749500D01*
X125891309Y-62730593D01*
X125855345Y-62681093D01*
X125850500Y-62650500D01*
X125850500Y-61091670D01*
X125869407Y-61033479D01*
X125918907Y-60997515D01*
X125980093Y-60997515D01*
X126024319Y-61026839D01*
X126055550Y-61062882D01*
X126176625Y-61140692D01*
X126278157Y-61170504D01*
X126314713Y-61181238D01*
X126314714Y-61181238D01*
X126314717Y-61181239D01*
X126314719Y-61181239D01*
X126458637Y-61181239D01*
X126458639Y-61181239D01*
X126596731Y-61140692D01*
X126717806Y-61062882D01*
X126812055Y-60954112D01*
X126871843Y-60823196D01*
X126885727Y-60726628D01*
X126892325Y-60680741D01*
X126892325Y-60680736D01*
X126871843Y-60538282D01*
X126846125Y-60481968D01*
X126837178Y-60440841D01*
X126837178Y-57727370D01*
X126823836Y-57677577D01*
X126806477Y-57612792D01*
X126775970Y-57559953D01*
X126747167Y-57510064D01*
X126189822Y-56952719D01*
X126169776Y-56923846D01*
X126125377Y-56826627D01*
X126031128Y-56717857D01*
X126031127Y-56717856D01*
X126031126Y-56717855D01*
X125910057Y-56640049D01*
X125910054Y-56640047D01*
X125910053Y-56640047D01*
X125910050Y-56640046D01*
X125771964Y-56599500D01*
X125771961Y-56599500D01*
X125628039Y-56599500D01*
X125628035Y-56599500D01*
X125489949Y-56640046D01*
X125489942Y-56640049D01*
X125368873Y-56717855D01*
X125274622Y-56826628D01*
X125214834Y-56957543D01*
X125194353Y-57099997D01*
X125194353Y-57100002D01*
X125214834Y-57242456D01*
X125272967Y-57369748D01*
X125274623Y-57373373D01*
X125354819Y-57465925D01*
X125368873Y-57482144D01*
X125423866Y-57517485D01*
X125489947Y-57559953D01*
X125512281Y-57566510D01*
X125554392Y-57591495D01*
X125907182Y-57944285D01*
X125934959Y-57998802D01*
X125936178Y-58014289D01*
X125936178Y-60360704D01*
X125917271Y-60418895D01*
X125867771Y-60454859D01*
X125806585Y-60454859D01*
X125766514Y-60426537D01*
X125765077Y-60427975D01*
X125760490Y-60423388D01*
X125760489Y-60423386D01*
X124089822Y-58752719D01*
X124069776Y-58723846D01*
X124025377Y-58626627D01*
X123931128Y-58517857D01*
X123931127Y-58517856D01*
X123931126Y-58517855D01*
X123810057Y-58440049D01*
X123810054Y-58440047D01*
X123810053Y-58440047D01*
X123810050Y-58440046D01*
X123671964Y-58399500D01*
X123671961Y-58399500D01*
X123528039Y-58399500D01*
X123528035Y-58399500D01*
X123389949Y-58440046D01*
X123389942Y-58440049D01*
X123268873Y-58517855D01*
X123174622Y-58626628D01*
X123114834Y-58757543D01*
X123094353Y-58899997D01*
X123094353Y-58900002D01*
X123114834Y-59042456D01*
X123141113Y-59099997D01*
X123174623Y-59173373D01*
X123268872Y-59282143D01*
X123268873Y-59282144D01*
X123323866Y-59317485D01*
X123389947Y-59359953D01*
X123412281Y-59366510D01*
X123454392Y-59391495D01*
X124920504Y-60857607D01*
X124948281Y-60912124D01*
X124949500Y-60927611D01*
X124949500Y-62872389D01*
X124930593Y-62930580D01*
X124920504Y-62942393D01*
X121839507Y-66023390D01*
X121780202Y-66126109D01*
X121780201Y-66126112D01*
X121773712Y-66150324D01*
X121773713Y-66150325D01*
X121749500Y-66240691D01*
X121749500Y-69660102D01*
X121740553Y-69701229D01*
X121714834Y-69757543D01*
X121694353Y-69899997D01*
X108550500Y-69899997D01*
X108550500Y-69603893D01*
X108569407Y-69545702D01*
X108576741Y-69537711D01*
X108576491Y-69537494D01*
X108581128Y-69532143D01*
X108675377Y-69423373D01*
X108735165Y-69292457D01*
X108748386Y-69200500D01*
X108755647Y-69150002D01*
X108755647Y-69149997D01*
X108735165Y-69007543D01*
X108731720Y-69000000D01*
X108675377Y-68876627D01*
X108581128Y-68767857D01*
X108581127Y-68767856D01*
X108581126Y-68767855D01*
X108460057Y-68690049D01*
X108460054Y-68690047D01*
X108460053Y-68690047D01*
X108460050Y-68690046D01*
X108321964Y-68649500D01*
X108321961Y-68649500D01*
X108178039Y-68649500D01*
X108178035Y-68649500D01*
X108039949Y-68690046D01*
X108039942Y-68690049D01*
X107918873Y-68767855D01*
X107824622Y-68876628D01*
X107764834Y-69007543D01*
X107744353Y-69149997D01*
X100500500Y-69149997D01*
X100500500Y-63773040D01*
X100519407Y-63714849D01*
X100568907Y-63678885D01*
X100630093Y-63678885D01*
X100679593Y-63714849D01*
X100681815Y-63718038D01*
X100748249Y-63817462D01*
X100748252Y-63817466D01*
X100887533Y-63956747D01*
X100887537Y-63956750D01*
X101051314Y-64066185D01*
X101051326Y-64066191D01*
X101233310Y-64141570D01*
X101426506Y-64179999D01*
X101426510Y-64180000D01*
X101674999Y-64180000D01*
X101675000Y-64179999D01*
X101675000Y-63480000D01*
X102175000Y-63480000D01*
X102175000Y-64179999D01*
X102175001Y-64180000D01*
X102423490Y-64180000D01*
X102423493Y-64179999D01*
X102616688Y-64141570D01*
X102616690Y-64141570D01*
X102798673Y-64066191D01*
X102798685Y-64066185D01*
X102962462Y-63956750D01*
X102962466Y-63956747D01*
X103101747Y-63817466D01*
X103101750Y-63817462D01*
X103211185Y-63653685D01*
X103211191Y-63653673D01*
X103286568Y-63471695D01*
X103286571Y-63471684D01*
X103294863Y-63430000D01*
X102491988Y-63430000D01*
X102509205Y-63420060D01*
X102565060Y-63364205D01*
X102604556Y-63295796D01*
X102625000Y-63219496D01*
X102625000Y-63140504D01*
X102604556Y-63064204D01*
X102565060Y-62995795D01*
X102509205Y-62939940D01*
X102491988Y-62930000D01*
X103294862Y-62930000D01*
X104585137Y-62930000D01*
X105388012Y-62930000D01*
X105370795Y-62939940D01*
X105314940Y-62995795D01*
X105275444Y-63064204D01*
X105255000Y-63140504D01*
X105255000Y-63219496D01*
X105275444Y-63295796D01*
X105314940Y-63364205D01*
X105370795Y-63420060D01*
X105388012Y-63430000D01*
X104585137Y-63430000D01*
X104593428Y-63471684D01*
X104593431Y-63471695D01*
X104668808Y-63653673D01*
X104668814Y-63653685D01*
X104778249Y-63817462D01*
X104778252Y-63817466D01*
X104917533Y-63956747D01*
X104917537Y-63956750D01*
X105081314Y-64066185D01*
X105081326Y-64066191D01*
X105213765Y-64121048D01*
X105260291Y-64160784D01*
X105274575Y-64220279D01*
X105251161Y-64276807D01*
X105245885Y-64282515D01*
X105216500Y-64311900D01*
X105152587Y-64422599D01*
X105152586Y-64422604D01*
X105119500Y-64546083D01*
X105119500Y-64673917D01*
X105148678Y-64782811D01*
X105152587Y-64797400D01*
X105216500Y-64908099D01*
X105216502Y-64908101D01*
X105216504Y-64908104D01*
X105306896Y-64998496D01*
X105306898Y-64998497D01*
X105306900Y-64998499D01*
X105417600Y-65062412D01*
X105417598Y-65062412D01*
X105417602Y-65062413D01*
X105417604Y-65062414D01*
X105541083Y-65095500D01*
X105541085Y-65095500D01*
X105668915Y-65095500D01*
X105668917Y-65095500D01*
X105792396Y-65062414D01*
X105792398Y-65062412D01*
X105792400Y-65062412D01*
X105903099Y-64998499D01*
X105903099Y-64998498D01*
X105903104Y-64998496D01*
X105993496Y-64908104D01*
X106057414Y-64797396D01*
X106090500Y-64673917D01*
X106090500Y-64546083D01*
X106057414Y-64422604D01*
X106057412Y-64422601D01*
X106057412Y-64422599D01*
X105993499Y-64311900D01*
X105993497Y-64311898D01*
X105993496Y-64311896D01*
X105903104Y-64221504D01*
X105903101Y-64221502D01*
X105903100Y-64221501D01*
X105897955Y-64217553D01*
X105898995Y-64216197D01*
X105863557Y-64176836D01*
X105855000Y-64136573D01*
X105855000Y-63480000D01*
X106355000Y-63480000D01*
X106355000Y-64179999D01*
X106355001Y-64180000D01*
X106753490Y-64180000D01*
X106753493Y-64179999D01*
X106946688Y-64141570D01*
X106946690Y-64141570D01*
X107128673Y-64066191D01*
X107128685Y-64066185D01*
X107292462Y-63956750D01*
X107292466Y-63956747D01*
X107431747Y-63817466D01*
X107431750Y-63817462D01*
X107541185Y-63653685D01*
X107541191Y-63653673D01*
X107616568Y-63471695D01*
X107616571Y-63471684D01*
X107624863Y-63430000D01*
X106821988Y-63430000D01*
X106839205Y-63420060D01*
X106895060Y-63364205D01*
X106934556Y-63295796D01*
X106955000Y-63219496D01*
X106955000Y-63140504D01*
X106934556Y-63064204D01*
X106895060Y-62995795D01*
X106839205Y-62939940D01*
X106821988Y-62930000D01*
X107624862Y-62930000D01*
X107616571Y-62888315D01*
X107616568Y-62888304D01*
X107541191Y-62706326D01*
X107541185Y-62706314D01*
X107431750Y-62542537D01*
X107431747Y-62542533D01*
X107292466Y-62403252D01*
X107292462Y-62403249D01*
X107128685Y-62293814D01*
X107128673Y-62293808D01*
X106946689Y-62218429D01*
X106753493Y-62180000D01*
X106355001Y-62180000D01*
X106355000Y-62180001D01*
X106355000Y-62880000D01*
X105855000Y-62880000D01*
X105855000Y-62180001D01*
X105854999Y-62180000D01*
X105456506Y-62180000D01*
X105263311Y-62218429D01*
X105263309Y-62218429D01*
X105081326Y-62293808D01*
X105081314Y-62293814D01*
X104917537Y-62403249D01*
X104917533Y-62403252D01*
X104778252Y-62542533D01*
X104778249Y-62542537D01*
X104668814Y-62706314D01*
X104668808Y-62706326D01*
X104593431Y-62888304D01*
X104593428Y-62888315D01*
X104585137Y-62930000D01*
X103294862Y-62930000D01*
X103286571Y-62888315D01*
X103286568Y-62888304D01*
X103211191Y-62706326D01*
X103211185Y-62706314D01*
X103101750Y-62542537D01*
X103101747Y-62542533D01*
X102962466Y-62403252D01*
X102962462Y-62403249D01*
X102798685Y-62293814D01*
X102798673Y-62293808D01*
X102616689Y-62218429D01*
X102423493Y-62180000D01*
X102175001Y-62180000D01*
X102175000Y-62180001D01*
X102175000Y-62880000D01*
X101675000Y-62880000D01*
X101675000Y-62180001D01*
X101674999Y-62180000D01*
X101426506Y-62180000D01*
X101233311Y-62218429D01*
X101233309Y-62218429D01*
X101051326Y-62293808D01*
X101051314Y-62293814D01*
X100887537Y-62403249D01*
X100887533Y-62403252D01*
X100748248Y-62542537D01*
X100681815Y-62641961D01*
X100633765Y-62679840D01*
X100572626Y-62682242D01*
X100521753Y-62648248D01*
X100500576Y-62590845D01*
X100500500Y-62586959D01*
X100500500Y-61904728D01*
X111789500Y-61904728D01*
X111789500Y-62095271D01*
X111819306Y-62283456D01*
X111878185Y-62464669D01*
X111964687Y-62634439D01*
X111964689Y-62634443D01*
X112076677Y-62788582D01*
X112076679Y-62788584D01*
X112076682Y-62788588D01*
X112211412Y-62923318D01*
X112211415Y-62923320D01*
X112211417Y-62923322D01*
X112365556Y-63035310D01*
X112365560Y-63035312D01*
X112535329Y-63121814D01*
X112716541Y-63180693D01*
X112791817Y-63192615D01*
X112904729Y-63210500D01*
X112904732Y-63210500D01*
X113095271Y-63210500D01*
X113189363Y-63195596D01*
X113283459Y-63180693D01*
X113464671Y-63121814D01*
X113634440Y-63035312D01*
X113788588Y-62923318D01*
X113923318Y-62788588D01*
X114035312Y-62634440D01*
X114121814Y-62464671D01*
X114180693Y-62283459D01*
X114210500Y-62095268D01*
X114210500Y-61904732D01*
X114210500Y-61904728D01*
X114184481Y-61740459D01*
X114180693Y-61716541D01*
X114121814Y-61535329D01*
X114035312Y-61365560D01*
X114035310Y-61365556D01*
X113923322Y-61211417D01*
X113923320Y-61211415D01*
X113923318Y-61211412D01*
X113788588Y-61076682D01*
X113788584Y-61076679D01*
X113788582Y-61076677D01*
X113683041Y-60999997D01*
X120494353Y-60999997D01*
X120494353Y-61000002D01*
X120514834Y-61142456D01*
X120574622Y-61273371D01*
X120574623Y-61273373D01*
X120654503Y-61365560D01*
X120668873Y-61382144D01*
X120789942Y-61459950D01*
X120789947Y-61459953D01*
X120896403Y-61491211D01*
X120928035Y-61500499D01*
X120928036Y-61500499D01*
X120928039Y-61500500D01*
X120928041Y-61500500D01*
X121034521Y-61500500D01*
X121092712Y-61519407D01*
X121104524Y-61529496D01*
X121315488Y-61740459D01*
X121315493Y-61740463D01*
X121384008Y-61780020D01*
X121384006Y-61780020D01*
X121384010Y-61780021D01*
X121384012Y-61780022D01*
X121460438Y-61800500D01*
X121539562Y-61800500D01*
X122834521Y-61800500D01*
X122892712Y-61819407D01*
X122904525Y-61829496D01*
X122969453Y-61894424D01*
X122997230Y-61948941D01*
X122997441Y-61978514D01*
X122994354Y-61999997D01*
X122994353Y-62000002D01*
X123014834Y-62142456D01*
X123074622Y-62273371D01*
X123074623Y-62273373D01*
X123168872Y-62382143D01*
X123168873Y-62382144D01*
X123201718Y-62403252D01*
X123289947Y-62459953D01*
X123396403Y-62491211D01*
X123428035Y-62500499D01*
X123428036Y-62500499D01*
X123428039Y-62500500D01*
X123428041Y-62500500D01*
X123571959Y-62500500D01*
X123571961Y-62500500D01*
X123710053Y-62459953D01*
X123831128Y-62382143D01*
X123925377Y-62273373D01*
X123985165Y-62142457D01*
X124005647Y-62000000D01*
X123985165Y-61857543D01*
X123925377Y-61726627D01*
X123831128Y-61617857D01*
X123831127Y-61617856D01*
X123831126Y-61617855D01*
X123710057Y-61540049D01*
X123710054Y-61540047D01*
X123710053Y-61540047D01*
X123710050Y-61540046D01*
X123571964Y-61499500D01*
X123571961Y-61499500D01*
X123465479Y-61499500D01*
X123407288Y-61480593D01*
X123395476Y-61470504D01*
X123184510Y-61259539D01*
X123115992Y-61219980D01*
X123115988Y-61219978D01*
X123039564Y-61199500D01*
X123039562Y-61199500D01*
X121665479Y-61199500D01*
X121607288Y-61180593D01*
X121595475Y-61170504D01*
X121530546Y-61105575D01*
X121502769Y-61051058D01*
X121502558Y-61021482D01*
X121505647Y-61000000D01*
X121499049Y-60954112D01*
X121485165Y-60857543D01*
X121469479Y-60823196D01*
X121425377Y-60726627D01*
X121331128Y-60617857D01*
X121331127Y-60617856D01*
X121331126Y-60617855D01*
X121210057Y-60540049D01*
X121210054Y-60540047D01*
X121210053Y-60540047D01*
X121204042Y-60538282D01*
X121071964Y-60499500D01*
X121071961Y-60499500D01*
X120928039Y-60499500D01*
X120928035Y-60499500D01*
X120789949Y-60540046D01*
X120789942Y-60540049D01*
X120668873Y-60617855D01*
X120574622Y-60726628D01*
X120514834Y-60857543D01*
X120494353Y-60999997D01*
X113683041Y-60999997D01*
X113634443Y-60964689D01*
X113634439Y-60964687D01*
X113464669Y-60878185D01*
X113283456Y-60819306D01*
X113095271Y-60789500D01*
X113095268Y-60789500D01*
X112904732Y-60789500D01*
X112904729Y-60789500D01*
X112716543Y-60819306D01*
X112535330Y-60878185D01*
X112365560Y-60964687D01*
X112365556Y-60964689D01*
X112211417Y-61076677D01*
X112076677Y-61211417D01*
X111964689Y-61365556D01*
X111964687Y-61365560D01*
X111878185Y-61535330D01*
X111819306Y-61716543D01*
X111789500Y-61904728D01*
X100500500Y-61904728D01*
X100500500Y-56999996D01*
X104404417Y-56999996D01*
X104404417Y-57000003D01*
X104424698Y-57205929D01*
X104424699Y-57205934D01*
X104484768Y-57403954D01*
X104582316Y-57586452D01*
X104697964Y-57727370D01*
X104713590Y-57746410D01*
X104713595Y-57746414D01*
X104873547Y-57877683D01*
X104873548Y-57877683D01*
X104873550Y-57877685D01*
X105056046Y-57975232D01*
X105184801Y-58014289D01*
X105254065Y-58035300D01*
X105254070Y-58035301D01*
X105459997Y-58055583D01*
X105460000Y-58055583D01*
X105460003Y-58055583D01*
X105665929Y-58035301D01*
X105665934Y-58035300D01*
X105863954Y-57975232D01*
X106046450Y-57877685D01*
X106206410Y-57746410D01*
X106337685Y-57586450D01*
X106435232Y-57403954D01*
X106495300Y-57205934D01*
X106495301Y-57205929D01*
X106515583Y-57000003D01*
X106515583Y-56999996D01*
X106495301Y-56794070D01*
X106495300Y-56794065D01*
X106476107Y-56730793D01*
X106435232Y-56596046D01*
X106337685Y-56413550D01*
X106206410Y-56253590D01*
X106056123Y-56130253D01*
X106046452Y-56122316D01*
X105863954Y-56024768D01*
X105665934Y-55964699D01*
X105665929Y-55964698D01*
X105460003Y-55944417D01*
X105459997Y-55944417D01*
X105254070Y-55964698D01*
X105254065Y-55964699D01*
X105056045Y-56024768D01*
X104873547Y-56122316D01*
X104713595Y-56253585D01*
X104713585Y-56253595D01*
X104582316Y-56413547D01*
X104484768Y-56596045D01*
X104424699Y-56794065D01*
X104424698Y-56794070D01*
X104404417Y-56999996D01*
X100500500Y-56999996D01*
X100500500Y-55599500D01*
X100519407Y-55541309D01*
X100568907Y-55505345D01*
X100599500Y-55500500D01*
X109451892Y-55500500D01*
X109510083Y-55519407D01*
G37*
G04 #@! TD.AperFunction*
G04 #@! TA.AperFunction,Conductor*
G36*
X128943039Y-67019685D02*
G01*
X128988794Y-67072489D01*
X129000000Y-67124000D01*
X129000000Y-68500000D01*
X129923364Y-68500000D01*
X129990403Y-68519685D01*
X130034273Y-68568546D01*
X130499998Y-69499998D01*
X130499999Y-69499999D01*
X130500000Y-69500000D01*
X133448638Y-69500000D01*
X133515677Y-69519685D01*
X133536319Y-69536319D01*
X135500000Y-71500000D01*
X139375500Y-71500000D01*
X139442539Y-71519685D01*
X139488294Y-71572489D01*
X139499500Y-71624000D01*
X139499500Y-79375500D01*
X139479815Y-79442539D01*
X139427011Y-79488294D01*
X139375500Y-79499500D01*
X125624000Y-79499500D01*
X125556961Y-79479815D01*
X125511206Y-79427011D01*
X125500000Y-79375500D01*
X125500000Y-73051362D01*
X125519685Y-72984323D01*
X125536319Y-72963681D01*
X125963681Y-72536319D01*
X126025004Y-72502834D01*
X126051362Y-72500000D01*
X128000000Y-72500000D01*
X128000000Y-69348145D01*
X128001262Y-69330498D01*
X128005647Y-69300000D01*
X128001262Y-69269500D01*
X128000000Y-69251854D01*
X128000000Y-67124000D01*
X128019685Y-67056961D01*
X128072489Y-67011206D01*
X128124000Y-67000000D01*
X128876000Y-67000000D01*
X128943039Y-67019685D01*
G37*
G04 #@! TD.AperFunction*
M02*
