%TF.GenerationSoftware,KiCad,Pcbnew,8.0.3-8.0.3-0~ubuntu22.04.1*%
%TF.CreationDate,2025-02-10T22:14:47+01:00*%
%TF.ProjectId,garland_controller,6761726c-616e-4645-9f63-6f6e74726f6c,0.1*%
%TF.SameCoordinates,Original*%
%TF.FileFunction,Drillmap*%
%TF.FilePolarity,Positive*%
%FSLAX45Y45*%
G04 Gerber Fmt 4.5, Leading zero omitted, Abs format (unit mm)*
G04 Created by KiCad (PCBNEW 8.0.3-8.0.3-0~ubuntu22.04.1) date 2025-02-10 22:14:47*
%MOMM*%
%LPD*%
G01*
G04 APERTURE LIST*
%ADD10C,0.050000*%
%ADD11C,0.200000*%
%ADD12C,0.100000*%
G04 APERTURE END LIST*
D10*
X10000000Y-5500000D02*
X14000000Y-5500000D01*
X14000000Y-8000000D01*
X10000000Y-8000000D01*
X10000000Y-5500000D01*
D11*
D12*
X10218710Y-7472024D02*
X10248710Y-7502024D01*
X10248710Y-7472024D02*
X10218710Y-7502024D01*
X10435000Y-5985000D02*
X10465000Y-6015000D01*
X10465000Y-5985000D02*
X10435000Y-6015000D01*
X10472710Y-6710024D02*
X10502710Y-6740024D01*
X10502710Y-6710024D02*
X10472710Y-6740024D01*
X10605000Y-7365000D02*
X10635000Y-7395000D01*
X10635000Y-7365000D02*
X10605000Y-7395000D01*
X10810000Y-6900000D02*
X10840000Y-6930000D01*
X10840000Y-6900000D02*
X10810000Y-6930000D01*
X10845000Y-7085000D02*
X10875000Y-7115000D01*
X10875000Y-7085000D02*
X10845000Y-7115000D01*
X10885000Y-7875000D02*
X10915000Y-7905000D01*
X10915000Y-7875000D02*
X10885000Y-7905000D01*
X10980710Y-6202024D02*
X11010710Y-6232024D01*
X11010710Y-6202024D02*
X10980710Y-6232024D01*
X10980710Y-7218024D02*
X11010710Y-7248024D01*
X11010710Y-7218024D02*
X10980710Y-7248024D01*
X10980710Y-7726024D02*
X11010710Y-7756024D01*
X11010710Y-7726024D02*
X10980710Y-7756024D01*
X11068750Y-6468750D02*
X11098750Y-6498750D01*
X11098750Y-6468750D02*
X11068750Y-6498750D01*
X11234710Y-5694024D02*
X11264710Y-5724024D01*
X11264710Y-5694024D02*
X11234710Y-5724024D01*
X11255000Y-7235000D02*
X11285000Y-7265000D01*
X11285000Y-7235000D02*
X11255000Y-7265000D01*
X11365000Y-7615000D02*
X11395000Y-7645000D01*
X11395000Y-7615000D02*
X11365000Y-7645000D01*
X11488710Y-6202024D02*
X11518710Y-6232024D01*
X11518710Y-6202024D02*
X11488710Y-6232024D01*
X11488710Y-6964024D02*
X11518710Y-6994024D01*
X11518710Y-6964024D02*
X11488710Y-6994024D01*
X11635000Y-6125000D02*
X11665000Y-6155000D01*
X11665000Y-6125000D02*
X11635000Y-6155000D01*
X11742710Y-6964024D02*
X11772710Y-6994024D01*
X11772710Y-6964024D02*
X11742710Y-6994024D01*
X11745000Y-7155000D02*
X11775000Y-7185000D01*
X11775000Y-7155000D02*
X11745000Y-7185000D01*
X12055000Y-6465000D02*
X12085000Y-6495000D01*
X12085000Y-6465000D02*
X12055000Y-6495000D01*
X12085000Y-6085000D02*
X12115000Y-6115000D01*
X12115000Y-6085000D02*
X12085000Y-6115000D01*
X12095000Y-7305000D02*
X12125000Y-7335000D01*
X12125000Y-7305000D02*
X12095000Y-7335000D01*
X12205000Y-6975000D02*
X12235000Y-7005000D01*
X12235000Y-6975000D02*
X12205000Y-7005000D01*
X12313686Y-7604196D02*
X12343686Y-7634196D01*
X12343686Y-7604196D02*
X12313686Y-7634196D01*
X12325000Y-7525000D02*
X12355000Y-7555000D01*
X12355000Y-7525000D02*
X12325000Y-7555000D01*
X12335000Y-6185000D02*
X12365000Y-6215000D01*
X12365000Y-6185000D02*
X12335000Y-6215000D01*
X12345000Y-5875000D02*
X12375000Y-5905000D01*
X12375000Y-5875000D02*
X12345000Y-5905000D01*
X12555000Y-5695000D02*
X12585000Y-5725000D01*
X12585000Y-5695000D02*
X12555000Y-5725000D01*
X12573935Y-6410000D02*
X12603935Y-6440000D01*
X12603935Y-6410000D02*
X12573935Y-6440000D01*
X12623668Y-6053074D02*
X12653668Y-6083074D01*
X12653668Y-6053074D02*
X12623668Y-6083074D01*
X12653431Y-6595000D02*
X12683431Y-6625000D01*
X12683431Y-6595000D02*
X12653431Y-6625000D01*
X12700000Y-6085000D02*
X12730000Y-6115000D01*
X12730000Y-6085000D02*
X12700000Y-6115000D01*
X12710000Y-6535000D02*
X12740000Y-6565000D01*
X12740000Y-6535000D02*
X12710000Y-6565000D01*
X12735000Y-6915000D02*
X12765000Y-6945000D01*
X12765000Y-6915000D02*
X12735000Y-6945000D01*
X12755000Y-6605000D02*
X12785000Y-6635000D01*
X12785000Y-6605000D02*
X12755000Y-6635000D01*
X12775000Y-5665000D02*
X12805000Y-5695000D01*
X12805000Y-5665000D02*
X12775000Y-5695000D01*
X12964926Y-6880073D02*
X12994926Y-6910073D01*
X12994926Y-6880073D02*
X12964926Y-6910073D01*
X12965000Y-6595000D02*
X12995000Y-6625000D01*
X12995000Y-6595000D02*
X12965000Y-6625000D01*
X13012710Y-7218024D02*
X13042710Y-7248024D01*
X13042710Y-7218024D02*
X13012710Y-7248024D01*
X13266710Y-7472024D02*
X13296710Y-7502024D01*
X13296710Y-7472024D02*
X13266710Y-7502024D01*
X13266710Y-7726024D02*
X13296710Y-7756024D01*
X13296710Y-7726024D02*
X13266710Y-7756024D01*
X13275000Y-5895000D02*
X13305000Y-5925000D01*
X13305000Y-5895000D02*
X13275000Y-5925000D01*
X13520710Y-6202024D02*
X13550710Y-6232024D01*
X13550710Y-6202024D02*
X13520710Y-6232024D01*
X13705000Y-6695000D02*
X13735000Y-6725000D01*
X13735000Y-6695000D02*
X13705000Y-6725000D01*
X13715000Y-6855000D02*
X13745000Y-6885000D01*
X13745000Y-6855000D02*
X13715000Y-6885000D01*
X13774710Y-7218024D02*
X13804710Y-7248024D01*
X13804710Y-7218024D02*
X13774710Y-7248024D01*
X13835000Y-6035000D02*
X13865000Y-6065000D01*
X13865000Y-6035000D02*
X13835000Y-6065000D01*
X10222500Y-6318000D02*
G75*
G02*
X10162500Y-6318000I-30000J0D01*
G01*
X10162500Y-6318000D02*
G75*
G02*
X10222500Y-6318000I30000J0D01*
G01*
X10232500Y-6288000D02*
X10152500Y-6288000D01*
X10152500Y-6348000D02*
G75*
G02*
X10152500Y-6288000I0J30000D01*
G01*
X10152500Y-6348000D02*
X10232500Y-6348000D01*
X10232500Y-6348000D02*
G75*
G03*
X10232500Y-6288000I0J30000D01*
G01*
X10222500Y-7182000D02*
G75*
G02*
X10162500Y-7182000I-30000J0D01*
G01*
X10162500Y-7182000D02*
G75*
G02*
X10222500Y-7182000I30000J0D01*
G01*
X10232500Y-7152000D02*
X10152500Y-7152000D01*
X10152500Y-7212000D02*
G75*
G02*
X10152500Y-7152000I0J30000D01*
G01*
X10152500Y-7212000D02*
X10232500Y-7212000D01*
X10232500Y-7212000D02*
G75*
G03*
X10232500Y-7152000I0J30000D01*
G01*
X10640500Y-6318000D02*
G75*
G02*
X10580500Y-6318000I-30000J0D01*
G01*
X10580500Y-6318000D02*
G75*
G02*
X10640500Y-6318000I30000J0D01*
G01*
X10665500Y-6288000D02*
X10555500Y-6288000D01*
X10555500Y-6348000D02*
G75*
G02*
X10555500Y-6288000I0J30000D01*
G01*
X10555500Y-6348000D02*
X10665500Y-6348000D01*
X10665500Y-6348000D02*
G75*
G03*
X10665500Y-6288000I0J30000D01*
G01*
X10640500Y-7182000D02*
G75*
G02*
X10580500Y-7182000I-30000J0D01*
G01*
X10580500Y-7182000D02*
G75*
G02*
X10640500Y-7182000I30000J0D01*
G01*
X10665500Y-7152000D02*
X10555500Y-7152000D01*
X10555500Y-7212000D02*
G75*
G02*
X10555500Y-7152000I0J30000D01*
G01*
X10555500Y-7212000D02*
X10665500Y-7212000D01*
X10665500Y-7212000D02*
G75*
G03*
X10665500Y-7152000I0J30000D01*
G01*
X10546000Y-5650000D02*
X10546000Y-5750000D01*
X10496000Y-5700000D02*
X10596000Y-5700000D01*
X10800000Y-5650000D02*
X10800000Y-5750000D01*
X10750000Y-5700000D02*
X10850000Y-5700000D01*
X11054000Y-5650000D02*
X11054000Y-5750000D01*
X11004000Y-5700000D02*
X11104000Y-5700000D01*
X11284000Y-7750000D02*
X11284000Y-7850000D01*
X11234000Y-7800000D02*
X11334000Y-7800000D01*
X11538000Y-7750000D02*
X11538000Y-7850000D01*
X11488000Y-7800000D02*
X11588000Y-7800000D01*
X11546000Y-5650000D02*
X11546000Y-5750000D01*
X11496000Y-5700000D02*
X11596000Y-5700000D01*
X11792000Y-7750000D02*
X11792000Y-7850000D01*
X11742000Y-7800000D02*
X11842000Y-7800000D01*
X11800000Y-5650000D02*
X11800000Y-5750000D01*
X11750000Y-5700000D02*
X11850000Y-5700000D01*
X12046000Y-7750000D02*
X12046000Y-7850000D01*
X11996000Y-7800000D02*
X12096000Y-7800000D01*
X12054000Y-5650000D02*
X12054000Y-5750000D01*
X12004000Y-5700000D02*
X12104000Y-5700000D01*
X12300000Y-7750000D02*
X12300000Y-7850000D01*
X12250000Y-7800000D02*
X12350000Y-7800000D01*
X13000000Y-5600000D02*
X13000000Y-5700000D01*
X12950000Y-5650000D02*
X13050000Y-5650000D01*
D11*
X10258277Y-8313984D02*
X10258277Y-8113984D01*
X10258277Y-8113984D02*
X10305896Y-8113984D01*
X10305896Y-8113984D02*
X10334467Y-8123508D01*
X10334467Y-8123508D02*
X10353515Y-8142555D01*
X10353515Y-8142555D02*
X10363039Y-8161603D01*
X10363039Y-8161603D02*
X10372563Y-8199698D01*
X10372563Y-8199698D02*
X10372563Y-8228269D01*
X10372563Y-8228269D02*
X10363039Y-8266365D01*
X10363039Y-8266365D02*
X10353515Y-8285412D01*
X10353515Y-8285412D02*
X10334467Y-8304460D01*
X10334467Y-8304460D02*
X10305896Y-8313984D01*
X10305896Y-8313984D02*
X10258277Y-8313984D01*
X10458277Y-8313984D02*
X10458277Y-8180650D01*
X10458277Y-8218746D02*
X10467801Y-8199698D01*
X10467801Y-8199698D02*
X10477324Y-8190174D01*
X10477324Y-8190174D02*
X10496372Y-8180650D01*
X10496372Y-8180650D02*
X10515420Y-8180650D01*
X10582086Y-8313984D02*
X10582086Y-8180650D01*
X10582086Y-8113984D02*
X10572563Y-8123508D01*
X10572563Y-8123508D02*
X10582086Y-8133031D01*
X10582086Y-8133031D02*
X10591610Y-8123508D01*
X10591610Y-8123508D02*
X10582086Y-8113984D01*
X10582086Y-8113984D02*
X10582086Y-8133031D01*
X10705896Y-8313984D02*
X10686848Y-8304460D01*
X10686848Y-8304460D02*
X10677324Y-8285412D01*
X10677324Y-8285412D02*
X10677324Y-8113984D01*
X10810658Y-8313984D02*
X10791610Y-8304460D01*
X10791610Y-8304460D02*
X10782086Y-8285412D01*
X10782086Y-8285412D02*
X10782086Y-8113984D01*
X11039229Y-8313984D02*
X11039229Y-8113984D01*
X11039229Y-8113984D02*
X11105896Y-8256841D01*
X11105896Y-8256841D02*
X11172563Y-8113984D01*
X11172563Y-8113984D02*
X11172563Y-8313984D01*
X11353515Y-8313984D02*
X11353515Y-8209222D01*
X11353515Y-8209222D02*
X11343991Y-8190174D01*
X11343991Y-8190174D02*
X11324943Y-8180650D01*
X11324943Y-8180650D02*
X11286848Y-8180650D01*
X11286848Y-8180650D02*
X11267801Y-8190174D01*
X11353515Y-8304460D02*
X11334467Y-8313984D01*
X11334467Y-8313984D02*
X11286848Y-8313984D01*
X11286848Y-8313984D02*
X11267801Y-8304460D01*
X11267801Y-8304460D02*
X11258277Y-8285412D01*
X11258277Y-8285412D02*
X11258277Y-8266365D01*
X11258277Y-8266365D02*
X11267801Y-8247317D01*
X11267801Y-8247317D02*
X11286848Y-8237793D01*
X11286848Y-8237793D02*
X11334467Y-8237793D01*
X11334467Y-8237793D02*
X11353515Y-8228269D01*
X11448753Y-8180650D02*
X11448753Y-8380650D01*
X11448753Y-8190174D02*
X11467801Y-8180650D01*
X11467801Y-8180650D02*
X11505896Y-8180650D01*
X11505896Y-8180650D02*
X11524943Y-8190174D01*
X11524943Y-8190174D02*
X11534467Y-8199698D01*
X11534467Y-8199698D02*
X11543991Y-8218746D01*
X11543991Y-8218746D02*
X11543991Y-8275888D01*
X11543991Y-8275888D02*
X11534467Y-8294936D01*
X11534467Y-8294936D02*
X11524943Y-8304460D01*
X11524943Y-8304460D02*
X11505896Y-8313984D01*
X11505896Y-8313984D02*
X11467801Y-8313984D01*
X11467801Y-8313984D02*
X11448753Y-8304460D01*
X11629705Y-8294936D02*
X11639229Y-8304460D01*
X11639229Y-8304460D02*
X11629705Y-8313984D01*
X11629705Y-8313984D02*
X11620182Y-8304460D01*
X11620182Y-8304460D02*
X11629705Y-8294936D01*
X11629705Y-8294936D02*
X11629705Y-8313984D01*
X11629705Y-8190174D02*
X11639229Y-8199698D01*
X11639229Y-8199698D02*
X11629705Y-8209222D01*
X11629705Y-8209222D02*
X11620182Y-8199698D01*
X11620182Y-8199698D02*
X11629705Y-8190174D01*
X11629705Y-8190174D02*
X11629705Y-8209222D01*
D12*
X9967500Y-8627500D02*
X9997500Y-8657500D01*
X9997500Y-8627500D02*
X9967500Y-8657500D01*
D11*
X10296372Y-8533984D02*
X10315420Y-8533984D01*
X10315420Y-8533984D02*
X10334467Y-8543508D01*
X10334467Y-8543508D02*
X10343991Y-8553031D01*
X10343991Y-8553031D02*
X10353515Y-8572079D01*
X10353515Y-8572079D02*
X10363039Y-8610174D01*
X10363039Y-8610174D02*
X10363039Y-8657793D01*
X10363039Y-8657793D02*
X10353515Y-8695889D01*
X10353515Y-8695889D02*
X10343991Y-8714936D01*
X10343991Y-8714936D02*
X10334467Y-8724460D01*
X10334467Y-8724460D02*
X10315420Y-8733984D01*
X10315420Y-8733984D02*
X10296372Y-8733984D01*
X10296372Y-8733984D02*
X10277324Y-8724460D01*
X10277324Y-8724460D02*
X10267801Y-8714936D01*
X10267801Y-8714936D02*
X10258277Y-8695889D01*
X10258277Y-8695889D02*
X10248753Y-8657793D01*
X10248753Y-8657793D02*
X10248753Y-8610174D01*
X10248753Y-8610174D02*
X10258277Y-8572079D01*
X10258277Y-8572079D02*
X10267801Y-8553031D01*
X10267801Y-8553031D02*
X10277324Y-8543508D01*
X10277324Y-8543508D02*
X10296372Y-8533984D01*
X10448753Y-8714936D02*
X10458277Y-8724460D01*
X10458277Y-8724460D02*
X10448753Y-8733984D01*
X10448753Y-8733984D02*
X10439229Y-8724460D01*
X10439229Y-8724460D02*
X10448753Y-8714936D01*
X10448753Y-8714936D02*
X10448753Y-8733984D01*
X10524944Y-8533984D02*
X10648753Y-8533984D01*
X10648753Y-8533984D02*
X10582086Y-8610174D01*
X10582086Y-8610174D02*
X10610658Y-8610174D01*
X10610658Y-8610174D02*
X10629705Y-8619698D01*
X10629705Y-8619698D02*
X10639229Y-8629222D01*
X10639229Y-8629222D02*
X10648753Y-8648270D01*
X10648753Y-8648270D02*
X10648753Y-8695889D01*
X10648753Y-8695889D02*
X10639229Y-8714936D01*
X10639229Y-8714936D02*
X10629705Y-8724460D01*
X10629705Y-8724460D02*
X10610658Y-8733984D01*
X10610658Y-8733984D02*
X10553515Y-8733984D01*
X10553515Y-8733984D02*
X10534467Y-8724460D01*
X10534467Y-8724460D02*
X10524944Y-8714936D01*
X10772563Y-8533984D02*
X10791610Y-8533984D01*
X10791610Y-8533984D02*
X10810658Y-8543508D01*
X10810658Y-8543508D02*
X10820182Y-8553031D01*
X10820182Y-8553031D02*
X10829705Y-8572079D01*
X10829705Y-8572079D02*
X10839229Y-8610174D01*
X10839229Y-8610174D02*
X10839229Y-8657793D01*
X10839229Y-8657793D02*
X10829705Y-8695889D01*
X10829705Y-8695889D02*
X10820182Y-8714936D01*
X10820182Y-8714936D02*
X10810658Y-8724460D01*
X10810658Y-8724460D02*
X10791610Y-8733984D01*
X10791610Y-8733984D02*
X10772563Y-8733984D01*
X10772563Y-8733984D02*
X10753515Y-8724460D01*
X10753515Y-8724460D02*
X10743991Y-8714936D01*
X10743991Y-8714936D02*
X10734467Y-8695889D01*
X10734467Y-8695889D02*
X10724944Y-8657793D01*
X10724944Y-8657793D02*
X10724944Y-8610174D01*
X10724944Y-8610174D02*
X10734467Y-8572079D01*
X10734467Y-8572079D02*
X10743991Y-8553031D01*
X10743991Y-8553031D02*
X10753515Y-8543508D01*
X10753515Y-8543508D02*
X10772563Y-8533984D01*
X10963039Y-8533984D02*
X10982086Y-8533984D01*
X10982086Y-8533984D02*
X11001134Y-8543508D01*
X11001134Y-8543508D02*
X11010658Y-8553031D01*
X11010658Y-8553031D02*
X11020182Y-8572079D01*
X11020182Y-8572079D02*
X11029705Y-8610174D01*
X11029705Y-8610174D02*
X11029705Y-8657793D01*
X11029705Y-8657793D02*
X11020182Y-8695889D01*
X11020182Y-8695889D02*
X11010658Y-8714936D01*
X11010658Y-8714936D02*
X11001134Y-8724460D01*
X11001134Y-8724460D02*
X10982086Y-8733984D01*
X10982086Y-8733984D02*
X10963039Y-8733984D01*
X10963039Y-8733984D02*
X10943991Y-8724460D01*
X10943991Y-8724460D02*
X10934467Y-8714936D01*
X10934467Y-8714936D02*
X10924944Y-8695889D01*
X10924944Y-8695889D02*
X10915420Y-8657793D01*
X10915420Y-8657793D02*
X10915420Y-8610174D01*
X10915420Y-8610174D02*
X10924944Y-8572079D01*
X10924944Y-8572079D02*
X10934467Y-8553031D01*
X10934467Y-8553031D02*
X10943991Y-8543508D01*
X10943991Y-8543508D02*
X10963039Y-8533984D01*
X11115420Y-8733984D02*
X11115420Y-8600650D01*
X11115420Y-8619698D02*
X11124944Y-8610174D01*
X11124944Y-8610174D02*
X11143991Y-8600650D01*
X11143991Y-8600650D02*
X11172563Y-8600650D01*
X11172563Y-8600650D02*
X11191610Y-8610174D01*
X11191610Y-8610174D02*
X11201134Y-8629222D01*
X11201134Y-8629222D02*
X11201134Y-8733984D01*
X11201134Y-8629222D02*
X11210658Y-8610174D01*
X11210658Y-8610174D02*
X11229705Y-8600650D01*
X11229705Y-8600650D02*
X11258277Y-8600650D01*
X11258277Y-8600650D02*
X11277324Y-8610174D01*
X11277324Y-8610174D02*
X11286848Y-8629222D01*
X11286848Y-8629222D02*
X11286848Y-8733984D01*
X11382086Y-8733984D02*
X11382086Y-8600650D01*
X11382086Y-8619698D02*
X11391610Y-8610174D01*
X11391610Y-8610174D02*
X11410658Y-8600650D01*
X11410658Y-8600650D02*
X11439229Y-8600650D01*
X11439229Y-8600650D02*
X11458277Y-8610174D01*
X11458277Y-8610174D02*
X11467801Y-8629222D01*
X11467801Y-8629222D02*
X11467801Y-8733984D01*
X11467801Y-8629222D02*
X11477324Y-8610174D01*
X11477324Y-8610174D02*
X11496372Y-8600650D01*
X11496372Y-8600650D02*
X11524943Y-8600650D01*
X11524943Y-8600650D02*
X11543991Y-8610174D01*
X11543991Y-8610174D02*
X11553515Y-8629222D01*
X11553515Y-8629222D02*
X11553515Y-8733984D01*
X11943991Y-8524460D02*
X11772563Y-8781603D01*
X12201134Y-8533984D02*
X12220182Y-8533984D01*
X12220182Y-8533984D02*
X12239229Y-8543508D01*
X12239229Y-8543508D02*
X12248753Y-8553031D01*
X12248753Y-8553031D02*
X12258277Y-8572079D01*
X12258277Y-8572079D02*
X12267801Y-8610174D01*
X12267801Y-8610174D02*
X12267801Y-8657793D01*
X12267801Y-8657793D02*
X12258277Y-8695889D01*
X12258277Y-8695889D02*
X12248753Y-8714936D01*
X12248753Y-8714936D02*
X12239229Y-8724460D01*
X12239229Y-8724460D02*
X12220182Y-8733984D01*
X12220182Y-8733984D02*
X12201134Y-8733984D01*
X12201134Y-8733984D02*
X12182086Y-8724460D01*
X12182086Y-8724460D02*
X12172563Y-8714936D01*
X12172563Y-8714936D02*
X12163039Y-8695889D01*
X12163039Y-8695889D02*
X12153515Y-8657793D01*
X12153515Y-8657793D02*
X12153515Y-8610174D01*
X12153515Y-8610174D02*
X12163039Y-8572079D01*
X12163039Y-8572079D02*
X12172563Y-8553031D01*
X12172563Y-8553031D02*
X12182086Y-8543508D01*
X12182086Y-8543508D02*
X12201134Y-8533984D01*
X12353515Y-8714936D02*
X12363039Y-8724460D01*
X12363039Y-8724460D02*
X12353515Y-8733984D01*
X12353515Y-8733984D02*
X12343991Y-8724460D01*
X12343991Y-8724460D02*
X12353515Y-8714936D01*
X12353515Y-8714936D02*
X12353515Y-8733984D01*
X12486848Y-8533984D02*
X12505896Y-8533984D01*
X12505896Y-8533984D02*
X12524944Y-8543508D01*
X12524944Y-8543508D02*
X12534467Y-8553031D01*
X12534467Y-8553031D02*
X12543991Y-8572079D01*
X12543991Y-8572079D02*
X12553515Y-8610174D01*
X12553515Y-8610174D02*
X12553515Y-8657793D01*
X12553515Y-8657793D02*
X12543991Y-8695889D01*
X12543991Y-8695889D02*
X12534467Y-8714936D01*
X12534467Y-8714936D02*
X12524944Y-8724460D01*
X12524944Y-8724460D02*
X12505896Y-8733984D01*
X12505896Y-8733984D02*
X12486848Y-8733984D01*
X12486848Y-8733984D02*
X12467801Y-8724460D01*
X12467801Y-8724460D02*
X12458277Y-8714936D01*
X12458277Y-8714936D02*
X12448753Y-8695889D01*
X12448753Y-8695889D02*
X12439229Y-8657793D01*
X12439229Y-8657793D02*
X12439229Y-8610174D01*
X12439229Y-8610174D02*
X12448753Y-8572079D01*
X12448753Y-8572079D02*
X12458277Y-8553031D01*
X12458277Y-8553031D02*
X12467801Y-8543508D01*
X12467801Y-8543508D02*
X12486848Y-8533984D01*
X12743991Y-8733984D02*
X12629706Y-8733984D01*
X12686848Y-8733984D02*
X12686848Y-8533984D01*
X12686848Y-8533984D02*
X12667801Y-8562555D01*
X12667801Y-8562555D02*
X12648753Y-8581603D01*
X12648753Y-8581603D02*
X12629706Y-8591127D01*
X12934467Y-8733984D02*
X12820182Y-8733984D01*
X12877325Y-8733984D02*
X12877325Y-8533984D01*
X12877325Y-8533984D02*
X12858277Y-8562555D01*
X12858277Y-8562555D02*
X12839229Y-8581603D01*
X12839229Y-8581603D02*
X12820182Y-8591127D01*
X13048753Y-8619698D02*
X13029706Y-8610174D01*
X13029706Y-8610174D02*
X13020182Y-8600650D01*
X13020182Y-8600650D02*
X13010658Y-8581603D01*
X13010658Y-8581603D02*
X13010658Y-8572079D01*
X13010658Y-8572079D02*
X13020182Y-8553031D01*
X13020182Y-8553031D02*
X13029706Y-8543508D01*
X13029706Y-8543508D02*
X13048753Y-8533984D01*
X13048753Y-8533984D02*
X13086848Y-8533984D01*
X13086848Y-8533984D02*
X13105896Y-8543508D01*
X13105896Y-8543508D02*
X13115420Y-8553031D01*
X13115420Y-8553031D02*
X13124944Y-8572079D01*
X13124944Y-8572079D02*
X13124944Y-8581603D01*
X13124944Y-8581603D02*
X13115420Y-8600650D01*
X13115420Y-8600650D02*
X13105896Y-8610174D01*
X13105896Y-8610174D02*
X13086848Y-8619698D01*
X13086848Y-8619698D02*
X13048753Y-8619698D01*
X13048753Y-8619698D02*
X13029706Y-8629222D01*
X13029706Y-8629222D02*
X13020182Y-8638746D01*
X13020182Y-8638746D02*
X13010658Y-8657793D01*
X13010658Y-8657793D02*
X13010658Y-8695889D01*
X13010658Y-8695889D02*
X13020182Y-8714936D01*
X13020182Y-8714936D02*
X13029706Y-8724460D01*
X13029706Y-8724460D02*
X13048753Y-8733984D01*
X13048753Y-8733984D02*
X13086848Y-8733984D01*
X13086848Y-8733984D02*
X13105896Y-8724460D01*
X13105896Y-8724460D02*
X13115420Y-8714936D01*
X13115420Y-8714936D02*
X13124944Y-8695889D01*
X13124944Y-8695889D02*
X13124944Y-8657793D01*
X13124944Y-8657793D02*
X13115420Y-8638746D01*
X13115420Y-8638746D02*
X13105896Y-8629222D01*
X13105896Y-8629222D02*
X13086848Y-8619698D01*
X13201134Y-8533984D02*
X13201134Y-8572079D01*
X13277325Y-8533984D02*
X13277325Y-8572079D01*
X13572563Y-8810174D02*
X13563039Y-8800650D01*
X13563039Y-8800650D02*
X13543991Y-8772079D01*
X13543991Y-8772079D02*
X13534468Y-8753031D01*
X13534468Y-8753031D02*
X13524944Y-8724460D01*
X13524944Y-8724460D02*
X13515420Y-8676841D01*
X13515420Y-8676841D02*
X13515420Y-8638746D01*
X13515420Y-8638746D02*
X13524944Y-8591127D01*
X13524944Y-8591127D02*
X13534468Y-8562555D01*
X13534468Y-8562555D02*
X13543991Y-8543508D01*
X13543991Y-8543508D02*
X13563039Y-8514936D01*
X13563039Y-8514936D02*
X13572563Y-8505412D01*
X13734468Y-8600650D02*
X13734468Y-8733984D01*
X13686848Y-8524460D02*
X13639229Y-8667317D01*
X13639229Y-8667317D02*
X13763039Y-8667317D01*
X13820182Y-8533984D02*
X13953515Y-8533984D01*
X13953515Y-8533984D02*
X13867801Y-8733984D01*
X14182087Y-8733984D02*
X14182087Y-8533984D01*
X14267801Y-8733984D02*
X14267801Y-8629222D01*
X14267801Y-8629222D02*
X14258277Y-8610174D01*
X14258277Y-8610174D02*
X14239230Y-8600650D01*
X14239230Y-8600650D02*
X14210658Y-8600650D01*
X14210658Y-8600650D02*
X14191610Y-8610174D01*
X14191610Y-8610174D02*
X14182087Y-8619698D01*
X14391610Y-8733984D02*
X14372563Y-8724460D01*
X14372563Y-8724460D02*
X14363039Y-8714936D01*
X14363039Y-8714936D02*
X14353515Y-8695889D01*
X14353515Y-8695889D02*
X14353515Y-8638746D01*
X14353515Y-8638746D02*
X14363039Y-8619698D01*
X14363039Y-8619698D02*
X14372563Y-8610174D01*
X14372563Y-8610174D02*
X14391610Y-8600650D01*
X14391610Y-8600650D02*
X14420182Y-8600650D01*
X14420182Y-8600650D02*
X14439230Y-8610174D01*
X14439230Y-8610174D02*
X14448753Y-8619698D01*
X14448753Y-8619698D02*
X14458277Y-8638746D01*
X14458277Y-8638746D02*
X14458277Y-8695889D01*
X14458277Y-8695889D02*
X14448753Y-8714936D01*
X14448753Y-8714936D02*
X14439230Y-8724460D01*
X14439230Y-8724460D02*
X14420182Y-8733984D01*
X14420182Y-8733984D02*
X14391610Y-8733984D01*
X14572563Y-8733984D02*
X14553515Y-8724460D01*
X14553515Y-8724460D02*
X14543991Y-8705412D01*
X14543991Y-8705412D02*
X14543991Y-8533984D01*
X14724944Y-8724460D02*
X14705896Y-8733984D01*
X14705896Y-8733984D02*
X14667801Y-8733984D01*
X14667801Y-8733984D02*
X14648753Y-8724460D01*
X14648753Y-8724460D02*
X14639230Y-8705412D01*
X14639230Y-8705412D02*
X14639230Y-8629222D01*
X14639230Y-8629222D02*
X14648753Y-8610174D01*
X14648753Y-8610174D02*
X14667801Y-8600650D01*
X14667801Y-8600650D02*
X14705896Y-8600650D01*
X14705896Y-8600650D02*
X14724944Y-8610174D01*
X14724944Y-8610174D02*
X14734468Y-8629222D01*
X14734468Y-8629222D02*
X14734468Y-8648270D01*
X14734468Y-8648270D02*
X14639230Y-8667317D01*
X14810658Y-8724460D02*
X14829706Y-8733984D01*
X14829706Y-8733984D02*
X14867801Y-8733984D01*
X14867801Y-8733984D02*
X14886849Y-8724460D01*
X14886849Y-8724460D02*
X14896372Y-8705412D01*
X14896372Y-8705412D02*
X14896372Y-8695889D01*
X14896372Y-8695889D02*
X14886849Y-8676841D01*
X14886849Y-8676841D02*
X14867801Y-8667317D01*
X14867801Y-8667317D02*
X14839230Y-8667317D01*
X14839230Y-8667317D02*
X14820182Y-8657793D01*
X14820182Y-8657793D02*
X14810658Y-8638746D01*
X14810658Y-8638746D02*
X14810658Y-8629222D01*
X14810658Y-8629222D02*
X14820182Y-8610174D01*
X14820182Y-8610174D02*
X14839230Y-8600650D01*
X14839230Y-8600650D02*
X14867801Y-8600650D01*
X14867801Y-8600650D02*
X14886849Y-8610174D01*
X14963039Y-8810174D02*
X14972563Y-8800650D01*
X14972563Y-8800650D02*
X14991611Y-8772079D01*
X14991611Y-8772079D02*
X15001134Y-8753031D01*
X15001134Y-8753031D02*
X15010658Y-8724460D01*
X15010658Y-8724460D02*
X15020182Y-8676841D01*
X15020182Y-8676841D02*
X15020182Y-8638746D01*
X15020182Y-8638746D02*
X15010658Y-8591127D01*
X15010658Y-8591127D02*
X15001134Y-8562555D01*
X15001134Y-8562555D02*
X14991611Y-8543508D01*
X14991611Y-8543508D02*
X14972563Y-8514936D01*
X14972563Y-8514936D02*
X14963039Y-8505412D01*
D12*
X9997500Y-8906500D02*
G75*
G02*
X9937500Y-8906500I-30000J0D01*
G01*
X9937500Y-8906500D02*
G75*
G02*
X9997500Y-8906500I30000J0D01*
G01*
D11*
X10296372Y-8797984D02*
X10315420Y-8797984D01*
X10315420Y-8797984D02*
X10334467Y-8807508D01*
X10334467Y-8807508D02*
X10343991Y-8817031D01*
X10343991Y-8817031D02*
X10353515Y-8836079D01*
X10353515Y-8836079D02*
X10363039Y-8874174D01*
X10363039Y-8874174D02*
X10363039Y-8921793D01*
X10363039Y-8921793D02*
X10353515Y-8959889D01*
X10353515Y-8959889D02*
X10343991Y-8978936D01*
X10343991Y-8978936D02*
X10334467Y-8988460D01*
X10334467Y-8988460D02*
X10315420Y-8997984D01*
X10315420Y-8997984D02*
X10296372Y-8997984D01*
X10296372Y-8997984D02*
X10277324Y-8988460D01*
X10277324Y-8988460D02*
X10267801Y-8978936D01*
X10267801Y-8978936D02*
X10258277Y-8959889D01*
X10258277Y-8959889D02*
X10248753Y-8921793D01*
X10248753Y-8921793D02*
X10248753Y-8874174D01*
X10248753Y-8874174D02*
X10258277Y-8836079D01*
X10258277Y-8836079D02*
X10267801Y-8817031D01*
X10267801Y-8817031D02*
X10277324Y-8807508D01*
X10277324Y-8807508D02*
X10296372Y-8797984D01*
X10448753Y-8978936D02*
X10458277Y-8988460D01*
X10458277Y-8988460D02*
X10448753Y-8997984D01*
X10448753Y-8997984D02*
X10439229Y-8988460D01*
X10439229Y-8988460D02*
X10448753Y-8978936D01*
X10448753Y-8978936D02*
X10448753Y-8997984D01*
X10629705Y-8797984D02*
X10591610Y-8797984D01*
X10591610Y-8797984D02*
X10572563Y-8807508D01*
X10572563Y-8807508D02*
X10563039Y-8817031D01*
X10563039Y-8817031D02*
X10543991Y-8845603D01*
X10543991Y-8845603D02*
X10534467Y-8883698D01*
X10534467Y-8883698D02*
X10534467Y-8959889D01*
X10534467Y-8959889D02*
X10543991Y-8978936D01*
X10543991Y-8978936D02*
X10553515Y-8988460D01*
X10553515Y-8988460D02*
X10572563Y-8997984D01*
X10572563Y-8997984D02*
X10610658Y-8997984D01*
X10610658Y-8997984D02*
X10629705Y-8988460D01*
X10629705Y-8988460D02*
X10639229Y-8978936D01*
X10639229Y-8978936D02*
X10648753Y-8959889D01*
X10648753Y-8959889D02*
X10648753Y-8912270D01*
X10648753Y-8912270D02*
X10639229Y-8893222D01*
X10639229Y-8893222D02*
X10629705Y-8883698D01*
X10629705Y-8883698D02*
X10610658Y-8874174D01*
X10610658Y-8874174D02*
X10572563Y-8874174D01*
X10572563Y-8874174D02*
X10553515Y-8883698D01*
X10553515Y-8883698D02*
X10543991Y-8893222D01*
X10543991Y-8893222D02*
X10534467Y-8912270D01*
X10772563Y-8797984D02*
X10791610Y-8797984D01*
X10791610Y-8797984D02*
X10810658Y-8807508D01*
X10810658Y-8807508D02*
X10820182Y-8817031D01*
X10820182Y-8817031D02*
X10829705Y-8836079D01*
X10829705Y-8836079D02*
X10839229Y-8874174D01*
X10839229Y-8874174D02*
X10839229Y-8921793D01*
X10839229Y-8921793D02*
X10829705Y-8959889D01*
X10829705Y-8959889D02*
X10820182Y-8978936D01*
X10820182Y-8978936D02*
X10810658Y-8988460D01*
X10810658Y-8988460D02*
X10791610Y-8997984D01*
X10791610Y-8997984D02*
X10772563Y-8997984D01*
X10772563Y-8997984D02*
X10753515Y-8988460D01*
X10753515Y-8988460D02*
X10743991Y-8978936D01*
X10743991Y-8978936D02*
X10734467Y-8959889D01*
X10734467Y-8959889D02*
X10724944Y-8921793D01*
X10724944Y-8921793D02*
X10724944Y-8874174D01*
X10724944Y-8874174D02*
X10734467Y-8836079D01*
X10734467Y-8836079D02*
X10743991Y-8817031D01*
X10743991Y-8817031D02*
X10753515Y-8807508D01*
X10753515Y-8807508D02*
X10772563Y-8797984D01*
X10963039Y-8797984D02*
X10982086Y-8797984D01*
X10982086Y-8797984D02*
X11001134Y-8807508D01*
X11001134Y-8807508D02*
X11010658Y-8817031D01*
X11010658Y-8817031D02*
X11020182Y-8836079D01*
X11020182Y-8836079D02*
X11029705Y-8874174D01*
X11029705Y-8874174D02*
X11029705Y-8921793D01*
X11029705Y-8921793D02*
X11020182Y-8959889D01*
X11020182Y-8959889D02*
X11010658Y-8978936D01*
X11010658Y-8978936D02*
X11001134Y-8988460D01*
X11001134Y-8988460D02*
X10982086Y-8997984D01*
X10982086Y-8997984D02*
X10963039Y-8997984D01*
X10963039Y-8997984D02*
X10943991Y-8988460D01*
X10943991Y-8988460D02*
X10934467Y-8978936D01*
X10934467Y-8978936D02*
X10924944Y-8959889D01*
X10924944Y-8959889D02*
X10915420Y-8921793D01*
X10915420Y-8921793D02*
X10915420Y-8874174D01*
X10915420Y-8874174D02*
X10924944Y-8836079D01*
X10924944Y-8836079D02*
X10934467Y-8817031D01*
X10934467Y-8817031D02*
X10943991Y-8807508D01*
X10943991Y-8807508D02*
X10963039Y-8797984D01*
X11115420Y-8997984D02*
X11115420Y-8864650D01*
X11115420Y-8883698D02*
X11124944Y-8874174D01*
X11124944Y-8874174D02*
X11143991Y-8864650D01*
X11143991Y-8864650D02*
X11172563Y-8864650D01*
X11172563Y-8864650D02*
X11191610Y-8874174D01*
X11191610Y-8874174D02*
X11201134Y-8893222D01*
X11201134Y-8893222D02*
X11201134Y-8997984D01*
X11201134Y-8893222D02*
X11210658Y-8874174D01*
X11210658Y-8874174D02*
X11229705Y-8864650D01*
X11229705Y-8864650D02*
X11258277Y-8864650D01*
X11258277Y-8864650D02*
X11277324Y-8874174D01*
X11277324Y-8874174D02*
X11286848Y-8893222D01*
X11286848Y-8893222D02*
X11286848Y-8997984D01*
X11382086Y-8997984D02*
X11382086Y-8864650D01*
X11382086Y-8883698D02*
X11391610Y-8874174D01*
X11391610Y-8874174D02*
X11410658Y-8864650D01*
X11410658Y-8864650D02*
X11439229Y-8864650D01*
X11439229Y-8864650D02*
X11458277Y-8874174D01*
X11458277Y-8874174D02*
X11467801Y-8893222D01*
X11467801Y-8893222D02*
X11467801Y-8997984D01*
X11467801Y-8893222D02*
X11477324Y-8874174D01*
X11477324Y-8874174D02*
X11496372Y-8864650D01*
X11496372Y-8864650D02*
X11524943Y-8864650D01*
X11524943Y-8864650D02*
X11543991Y-8874174D01*
X11543991Y-8874174D02*
X11553515Y-8893222D01*
X11553515Y-8893222D02*
X11553515Y-8997984D01*
X11943991Y-8788460D02*
X11772563Y-9045603D01*
X12201134Y-8797984D02*
X12220182Y-8797984D01*
X12220182Y-8797984D02*
X12239229Y-8807508D01*
X12239229Y-8807508D02*
X12248753Y-8817031D01*
X12248753Y-8817031D02*
X12258277Y-8836079D01*
X12258277Y-8836079D02*
X12267801Y-8874174D01*
X12267801Y-8874174D02*
X12267801Y-8921793D01*
X12267801Y-8921793D02*
X12258277Y-8959889D01*
X12258277Y-8959889D02*
X12248753Y-8978936D01*
X12248753Y-8978936D02*
X12239229Y-8988460D01*
X12239229Y-8988460D02*
X12220182Y-8997984D01*
X12220182Y-8997984D02*
X12201134Y-8997984D01*
X12201134Y-8997984D02*
X12182086Y-8988460D01*
X12182086Y-8988460D02*
X12172563Y-8978936D01*
X12172563Y-8978936D02*
X12163039Y-8959889D01*
X12163039Y-8959889D02*
X12153515Y-8921793D01*
X12153515Y-8921793D02*
X12153515Y-8874174D01*
X12153515Y-8874174D02*
X12163039Y-8836079D01*
X12163039Y-8836079D02*
X12172563Y-8817031D01*
X12172563Y-8817031D02*
X12182086Y-8807508D01*
X12182086Y-8807508D02*
X12201134Y-8797984D01*
X12353515Y-8978936D02*
X12363039Y-8988460D01*
X12363039Y-8988460D02*
X12353515Y-8997984D01*
X12353515Y-8997984D02*
X12343991Y-8988460D01*
X12343991Y-8988460D02*
X12353515Y-8978936D01*
X12353515Y-8978936D02*
X12353515Y-8997984D01*
X12486848Y-8797984D02*
X12505896Y-8797984D01*
X12505896Y-8797984D02*
X12524944Y-8807508D01*
X12524944Y-8807508D02*
X12534467Y-8817031D01*
X12534467Y-8817031D02*
X12543991Y-8836079D01*
X12543991Y-8836079D02*
X12553515Y-8874174D01*
X12553515Y-8874174D02*
X12553515Y-8921793D01*
X12553515Y-8921793D02*
X12543991Y-8959889D01*
X12543991Y-8959889D02*
X12534467Y-8978936D01*
X12534467Y-8978936D02*
X12524944Y-8988460D01*
X12524944Y-8988460D02*
X12505896Y-8997984D01*
X12505896Y-8997984D02*
X12486848Y-8997984D01*
X12486848Y-8997984D02*
X12467801Y-8988460D01*
X12467801Y-8988460D02*
X12458277Y-8978936D01*
X12458277Y-8978936D02*
X12448753Y-8959889D01*
X12448753Y-8959889D02*
X12439229Y-8921793D01*
X12439229Y-8921793D02*
X12439229Y-8874174D01*
X12439229Y-8874174D02*
X12448753Y-8836079D01*
X12448753Y-8836079D02*
X12458277Y-8817031D01*
X12458277Y-8817031D02*
X12467801Y-8807508D01*
X12467801Y-8807508D02*
X12486848Y-8797984D01*
X12629706Y-8817031D02*
X12639229Y-8807508D01*
X12639229Y-8807508D02*
X12658277Y-8797984D01*
X12658277Y-8797984D02*
X12705896Y-8797984D01*
X12705896Y-8797984D02*
X12724944Y-8807508D01*
X12724944Y-8807508D02*
X12734467Y-8817031D01*
X12734467Y-8817031D02*
X12743991Y-8836079D01*
X12743991Y-8836079D02*
X12743991Y-8855127D01*
X12743991Y-8855127D02*
X12734467Y-8883698D01*
X12734467Y-8883698D02*
X12620182Y-8997984D01*
X12620182Y-8997984D02*
X12743991Y-8997984D01*
X12810658Y-8797984D02*
X12934467Y-8797984D01*
X12934467Y-8797984D02*
X12867801Y-8874174D01*
X12867801Y-8874174D02*
X12896372Y-8874174D01*
X12896372Y-8874174D02*
X12915420Y-8883698D01*
X12915420Y-8883698D02*
X12924944Y-8893222D01*
X12924944Y-8893222D02*
X12934467Y-8912270D01*
X12934467Y-8912270D02*
X12934467Y-8959889D01*
X12934467Y-8959889D02*
X12924944Y-8978936D01*
X12924944Y-8978936D02*
X12915420Y-8988460D01*
X12915420Y-8988460D02*
X12896372Y-8997984D01*
X12896372Y-8997984D02*
X12839229Y-8997984D01*
X12839229Y-8997984D02*
X12820182Y-8988460D01*
X12820182Y-8988460D02*
X12810658Y-8978936D01*
X13105896Y-8797984D02*
X13067801Y-8797984D01*
X13067801Y-8797984D02*
X13048753Y-8807508D01*
X13048753Y-8807508D02*
X13039229Y-8817031D01*
X13039229Y-8817031D02*
X13020182Y-8845603D01*
X13020182Y-8845603D02*
X13010658Y-8883698D01*
X13010658Y-8883698D02*
X13010658Y-8959889D01*
X13010658Y-8959889D02*
X13020182Y-8978936D01*
X13020182Y-8978936D02*
X13029706Y-8988460D01*
X13029706Y-8988460D02*
X13048753Y-8997984D01*
X13048753Y-8997984D02*
X13086848Y-8997984D01*
X13086848Y-8997984D02*
X13105896Y-8988460D01*
X13105896Y-8988460D02*
X13115420Y-8978936D01*
X13115420Y-8978936D02*
X13124944Y-8959889D01*
X13124944Y-8959889D02*
X13124944Y-8912270D01*
X13124944Y-8912270D02*
X13115420Y-8893222D01*
X13115420Y-8893222D02*
X13105896Y-8883698D01*
X13105896Y-8883698D02*
X13086848Y-8874174D01*
X13086848Y-8874174D02*
X13048753Y-8874174D01*
X13048753Y-8874174D02*
X13029706Y-8883698D01*
X13029706Y-8883698D02*
X13020182Y-8893222D01*
X13020182Y-8893222D02*
X13010658Y-8912270D01*
X13201134Y-8797984D02*
X13201134Y-8836079D01*
X13277325Y-8797984D02*
X13277325Y-8836079D01*
X13572563Y-9074174D02*
X13563039Y-9064650D01*
X13563039Y-9064650D02*
X13543991Y-9036079D01*
X13543991Y-9036079D02*
X13534468Y-9017031D01*
X13534468Y-9017031D02*
X13524944Y-8988460D01*
X13524944Y-8988460D02*
X13515420Y-8940841D01*
X13515420Y-8940841D02*
X13515420Y-8902746D01*
X13515420Y-8902746D02*
X13524944Y-8855127D01*
X13524944Y-8855127D02*
X13534468Y-8826555D01*
X13534468Y-8826555D02*
X13543991Y-8807508D01*
X13543991Y-8807508D02*
X13563039Y-8778936D01*
X13563039Y-8778936D02*
X13572563Y-8769412D01*
X13686848Y-8797984D02*
X13705896Y-8797984D01*
X13705896Y-8797984D02*
X13724944Y-8807508D01*
X13724944Y-8807508D02*
X13734468Y-8817031D01*
X13734468Y-8817031D02*
X13743991Y-8836079D01*
X13743991Y-8836079D02*
X13753515Y-8874174D01*
X13753515Y-8874174D02*
X13753515Y-8921793D01*
X13753515Y-8921793D02*
X13743991Y-8959889D01*
X13743991Y-8959889D02*
X13734468Y-8978936D01*
X13734468Y-8978936D02*
X13724944Y-8988460D01*
X13724944Y-8988460D02*
X13705896Y-8997984D01*
X13705896Y-8997984D02*
X13686848Y-8997984D01*
X13686848Y-8997984D02*
X13667801Y-8988460D01*
X13667801Y-8988460D02*
X13658277Y-8978936D01*
X13658277Y-8978936D02*
X13648753Y-8959889D01*
X13648753Y-8959889D02*
X13639229Y-8921793D01*
X13639229Y-8921793D02*
X13639229Y-8874174D01*
X13639229Y-8874174D02*
X13648753Y-8836079D01*
X13648753Y-8836079D02*
X13658277Y-8817031D01*
X13658277Y-8817031D02*
X13667801Y-8807508D01*
X13667801Y-8807508D02*
X13686848Y-8797984D01*
X13991610Y-8997984D02*
X13991610Y-8797984D01*
X14077325Y-8997984D02*
X14077325Y-8893222D01*
X14077325Y-8893222D02*
X14067801Y-8874174D01*
X14067801Y-8874174D02*
X14048753Y-8864650D01*
X14048753Y-8864650D02*
X14020182Y-8864650D01*
X14020182Y-8864650D02*
X14001134Y-8874174D01*
X14001134Y-8874174D02*
X13991610Y-8883698D01*
X14201134Y-8997984D02*
X14182087Y-8988460D01*
X14182087Y-8988460D02*
X14172563Y-8978936D01*
X14172563Y-8978936D02*
X14163039Y-8959889D01*
X14163039Y-8959889D02*
X14163039Y-8902746D01*
X14163039Y-8902746D02*
X14172563Y-8883698D01*
X14172563Y-8883698D02*
X14182087Y-8874174D01*
X14182087Y-8874174D02*
X14201134Y-8864650D01*
X14201134Y-8864650D02*
X14229706Y-8864650D01*
X14229706Y-8864650D02*
X14248753Y-8874174D01*
X14248753Y-8874174D02*
X14258277Y-8883698D01*
X14258277Y-8883698D02*
X14267801Y-8902746D01*
X14267801Y-8902746D02*
X14267801Y-8959889D01*
X14267801Y-8959889D02*
X14258277Y-8978936D01*
X14258277Y-8978936D02*
X14248753Y-8988460D01*
X14248753Y-8988460D02*
X14229706Y-8997984D01*
X14229706Y-8997984D02*
X14201134Y-8997984D01*
X14382087Y-8997984D02*
X14363039Y-8988460D01*
X14363039Y-8988460D02*
X14353515Y-8969412D01*
X14353515Y-8969412D02*
X14353515Y-8797984D01*
X14534468Y-8988460D02*
X14515420Y-8997984D01*
X14515420Y-8997984D02*
X14477325Y-8997984D01*
X14477325Y-8997984D02*
X14458277Y-8988460D01*
X14458277Y-8988460D02*
X14448753Y-8969412D01*
X14448753Y-8969412D02*
X14448753Y-8893222D01*
X14448753Y-8893222D02*
X14458277Y-8874174D01*
X14458277Y-8874174D02*
X14477325Y-8864650D01*
X14477325Y-8864650D02*
X14515420Y-8864650D01*
X14515420Y-8864650D02*
X14534468Y-8874174D01*
X14534468Y-8874174D02*
X14543991Y-8893222D01*
X14543991Y-8893222D02*
X14543991Y-8912270D01*
X14543991Y-8912270D02*
X14448753Y-8931317D01*
X14620182Y-8988460D02*
X14639230Y-8997984D01*
X14639230Y-8997984D02*
X14677325Y-8997984D01*
X14677325Y-8997984D02*
X14696372Y-8988460D01*
X14696372Y-8988460D02*
X14705896Y-8969412D01*
X14705896Y-8969412D02*
X14705896Y-8959889D01*
X14705896Y-8959889D02*
X14696372Y-8940841D01*
X14696372Y-8940841D02*
X14677325Y-8931317D01*
X14677325Y-8931317D02*
X14648753Y-8931317D01*
X14648753Y-8931317D02*
X14629706Y-8921793D01*
X14629706Y-8921793D02*
X14620182Y-8902746D01*
X14620182Y-8902746D02*
X14620182Y-8893222D01*
X14620182Y-8893222D02*
X14629706Y-8874174D01*
X14629706Y-8874174D02*
X14648753Y-8864650D01*
X14648753Y-8864650D02*
X14677325Y-8864650D01*
X14677325Y-8864650D02*
X14696372Y-8874174D01*
X14943992Y-8921793D02*
X15096373Y-8921793D01*
X15020182Y-8997984D02*
X15020182Y-8845603D01*
X15429706Y-8864650D02*
X15429706Y-8997984D01*
X15382087Y-8788460D02*
X15334468Y-8931317D01*
X15334468Y-8931317D02*
X15458277Y-8931317D01*
X15677325Y-8988460D02*
X15696373Y-8997984D01*
X15696373Y-8997984D02*
X15734468Y-8997984D01*
X15734468Y-8997984D02*
X15753515Y-8988460D01*
X15753515Y-8988460D02*
X15763039Y-8969412D01*
X15763039Y-8969412D02*
X15763039Y-8959889D01*
X15763039Y-8959889D02*
X15753515Y-8940841D01*
X15753515Y-8940841D02*
X15734468Y-8931317D01*
X15734468Y-8931317D02*
X15705896Y-8931317D01*
X15705896Y-8931317D02*
X15686849Y-8921793D01*
X15686849Y-8921793D02*
X15677325Y-8902746D01*
X15677325Y-8902746D02*
X15677325Y-8893222D01*
X15677325Y-8893222D02*
X15686849Y-8874174D01*
X15686849Y-8874174D02*
X15705896Y-8864650D01*
X15705896Y-8864650D02*
X15734468Y-8864650D01*
X15734468Y-8864650D02*
X15753515Y-8874174D01*
X15877325Y-8997984D02*
X15858277Y-8988460D01*
X15858277Y-8988460D02*
X15848754Y-8969412D01*
X15848754Y-8969412D02*
X15848754Y-8797984D01*
X15982087Y-8997984D02*
X15963039Y-8988460D01*
X15963039Y-8988460D02*
X15953515Y-8978936D01*
X15953515Y-8978936D02*
X15943992Y-8959889D01*
X15943992Y-8959889D02*
X15943992Y-8902746D01*
X15943992Y-8902746D02*
X15953515Y-8883698D01*
X15953515Y-8883698D02*
X15963039Y-8874174D01*
X15963039Y-8874174D02*
X15982087Y-8864650D01*
X15982087Y-8864650D02*
X16010658Y-8864650D01*
X16010658Y-8864650D02*
X16029706Y-8874174D01*
X16029706Y-8874174D02*
X16039230Y-8883698D01*
X16039230Y-8883698D02*
X16048754Y-8902746D01*
X16048754Y-8902746D02*
X16048754Y-8959889D01*
X16048754Y-8959889D02*
X16039230Y-8978936D01*
X16039230Y-8978936D02*
X16029706Y-8988460D01*
X16029706Y-8988460D02*
X16010658Y-8997984D01*
X16010658Y-8997984D02*
X15982087Y-8997984D01*
X16105896Y-8864650D02*
X16182087Y-8864650D01*
X16134468Y-8797984D02*
X16134468Y-8969412D01*
X16134468Y-8969412D02*
X16143992Y-8988460D01*
X16143992Y-8988460D02*
X16163039Y-8997984D01*
X16163039Y-8997984D02*
X16182087Y-8997984D01*
X16239230Y-8988460D02*
X16258277Y-8997984D01*
X16258277Y-8997984D02*
X16296373Y-8997984D01*
X16296373Y-8997984D02*
X16315420Y-8988460D01*
X16315420Y-8988460D02*
X16324944Y-8969412D01*
X16324944Y-8969412D02*
X16324944Y-8959889D01*
X16324944Y-8959889D02*
X16315420Y-8940841D01*
X16315420Y-8940841D02*
X16296373Y-8931317D01*
X16296373Y-8931317D02*
X16267801Y-8931317D01*
X16267801Y-8931317D02*
X16248754Y-8921793D01*
X16248754Y-8921793D02*
X16239230Y-8902746D01*
X16239230Y-8902746D02*
X16239230Y-8893222D01*
X16239230Y-8893222D02*
X16248754Y-8874174D01*
X16248754Y-8874174D02*
X16267801Y-8864650D01*
X16267801Y-8864650D02*
X16296373Y-8864650D01*
X16296373Y-8864650D02*
X16315420Y-8874174D01*
X16391611Y-9074174D02*
X16401135Y-9064650D01*
X16401135Y-9064650D02*
X16420182Y-9036079D01*
X16420182Y-9036079D02*
X16429706Y-9017031D01*
X16429706Y-9017031D02*
X16439230Y-8988460D01*
X16439230Y-8988460D02*
X16448754Y-8940841D01*
X16448754Y-8940841D02*
X16448754Y-8902746D01*
X16448754Y-8902746D02*
X16439230Y-8855127D01*
X16439230Y-8855127D02*
X16429706Y-8826555D01*
X16429706Y-8826555D02*
X16420182Y-8807508D01*
X16420182Y-8807508D02*
X16401135Y-8778936D01*
X16401135Y-8778936D02*
X16391611Y-8769412D01*
D12*
X9947500Y-9120500D02*
X9947500Y-9220500D01*
X9897500Y-9170500D02*
X9997500Y-9170500D01*
D11*
X10363039Y-9261984D02*
X10248753Y-9261984D01*
X10305896Y-9261984D02*
X10305896Y-9061984D01*
X10305896Y-9061984D02*
X10286848Y-9090555D01*
X10286848Y-9090555D02*
X10267801Y-9109603D01*
X10267801Y-9109603D02*
X10248753Y-9119127D01*
X10448753Y-9242936D02*
X10458277Y-9252460D01*
X10458277Y-9252460D02*
X10448753Y-9261984D01*
X10448753Y-9261984D02*
X10439229Y-9252460D01*
X10439229Y-9252460D02*
X10448753Y-9242936D01*
X10448753Y-9242936D02*
X10448753Y-9261984D01*
X10582086Y-9061984D02*
X10601134Y-9061984D01*
X10601134Y-9061984D02*
X10620182Y-9071508D01*
X10620182Y-9071508D02*
X10629705Y-9081031D01*
X10629705Y-9081031D02*
X10639229Y-9100079D01*
X10639229Y-9100079D02*
X10648753Y-9138174D01*
X10648753Y-9138174D02*
X10648753Y-9185793D01*
X10648753Y-9185793D02*
X10639229Y-9223889D01*
X10639229Y-9223889D02*
X10629705Y-9242936D01*
X10629705Y-9242936D02*
X10620182Y-9252460D01*
X10620182Y-9252460D02*
X10601134Y-9261984D01*
X10601134Y-9261984D02*
X10582086Y-9261984D01*
X10582086Y-9261984D02*
X10563039Y-9252460D01*
X10563039Y-9252460D02*
X10553515Y-9242936D01*
X10553515Y-9242936D02*
X10543991Y-9223889D01*
X10543991Y-9223889D02*
X10534467Y-9185793D01*
X10534467Y-9185793D02*
X10534467Y-9138174D01*
X10534467Y-9138174D02*
X10543991Y-9100079D01*
X10543991Y-9100079D02*
X10553515Y-9081031D01*
X10553515Y-9081031D02*
X10563039Y-9071508D01*
X10563039Y-9071508D02*
X10582086Y-9061984D01*
X10772563Y-9061984D02*
X10791610Y-9061984D01*
X10791610Y-9061984D02*
X10810658Y-9071508D01*
X10810658Y-9071508D02*
X10820182Y-9081031D01*
X10820182Y-9081031D02*
X10829705Y-9100079D01*
X10829705Y-9100079D02*
X10839229Y-9138174D01*
X10839229Y-9138174D02*
X10839229Y-9185793D01*
X10839229Y-9185793D02*
X10829705Y-9223889D01*
X10829705Y-9223889D02*
X10820182Y-9242936D01*
X10820182Y-9242936D02*
X10810658Y-9252460D01*
X10810658Y-9252460D02*
X10791610Y-9261984D01*
X10791610Y-9261984D02*
X10772563Y-9261984D01*
X10772563Y-9261984D02*
X10753515Y-9252460D01*
X10753515Y-9252460D02*
X10743991Y-9242936D01*
X10743991Y-9242936D02*
X10734467Y-9223889D01*
X10734467Y-9223889D02*
X10724944Y-9185793D01*
X10724944Y-9185793D02*
X10724944Y-9138174D01*
X10724944Y-9138174D02*
X10734467Y-9100079D01*
X10734467Y-9100079D02*
X10743991Y-9081031D01*
X10743991Y-9081031D02*
X10753515Y-9071508D01*
X10753515Y-9071508D02*
X10772563Y-9061984D01*
X10963039Y-9061984D02*
X10982086Y-9061984D01*
X10982086Y-9061984D02*
X11001134Y-9071508D01*
X11001134Y-9071508D02*
X11010658Y-9081031D01*
X11010658Y-9081031D02*
X11020182Y-9100079D01*
X11020182Y-9100079D02*
X11029705Y-9138174D01*
X11029705Y-9138174D02*
X11029705Y-9185793D01*
X11029705Y-9185793D02*
X11020182Y-9223889D01*
X11020182Y-9223889D02*
X11010658Y-9242936D01*
X11010658Y-9242936D02*
X11001134Y-9252460D01*
X11001134Y-9252460D02*
X10982086Y-9261984D01*
X10982086Y-9261984D02*
X10963039Y-9261984D01*
X10963039Y-9261984D02*
X10943991Y-9252460D01*
X10943991Y-9252460D02*
X10934467Y-9242936D01*
X10934467Y-9242936D02*
X10924944Y-9223889D01*
X10924944Y-9223889D02*
X10915420Y-9185793D01*
X10915420Y-9185793D02*
X10915420Y-9138174D01*
X10915420Y-9138174D02*
X10924944Y-9100079D01*
X10924944Y-9100079D02*
X10934467Y-9081031D01*
X10934467Y-9081031D02*
X10943991Y-9071508D01*
X10943991Y-9071508D02*
X10963039Y-9061984D01*
X11115420Y-9261984D02*
X11115420Y-9128650D01*
X11115420Y-9147698D02*
X11124944Y-9138174D01*
X11124944Y-9138174D02*
X11143991Y-9128650D01*
X11143991Y-9128650D02*
X11172563Y-9128650D01*
X11172563Y-9128650D02*
X11191610Y-9138174D01*
X11191610Y-9138174D02*
X11201134Y-9157222D01*
X11201134Y-9157222D02*
X11201134Y-9261984D01*
X11201134Y-9157222D02*
X11210658Y-9138174D01*
X11210658Y-9138174D02*
X11229705Y-9128650D01*
X11229705Y-9128650D02*
X11258277Y-9128650D01*
X11258277Y-9128650D02*
X11277324Y-9138174D01*
X11277324Y-9138174D02*
X11286848Y-9157222D01*
X11286848Y-9157222D02*
X11286848Y-9261984D01*
X11382086Y-9261984D02*
X11382086Y-9128650D01*
X11382086Y-9147698D02*
X11391610Y-9138174D01*
X11391610Y-9138174D02*
X11410658Y-9128650D01*
X11410658Y-9128650D02*
X11439229Y-9128650D01*
X11439229Y-9128650D02*
X11458277Y-9138174D01*
X11458277Y-9138174D02*
X11467801Y-9157222D01*
X11467801Y-9157222D02*
X11467801Y-9261984D01*
X11467801Y-9157222D02*
X11477324Y-9138174D01*
X11477324Y-9138174D02*
X11496372Y-9128650D01*
X11496372Y-9128650D02*
X11524943Y-9128650D01*
X11524943Y-9128650D02*
X11543991Y-9138174D01*
X11543991Y-9138174D02*
X11553515Y-9157222D01*
X11553515Y-9157222D02*
X11553515Y-9261984D01*
X11943991Y-9052460D02*
X11772563Y-9309603D01*
X12201134Y-9061984D02*
X12220182Y-9061984D01*
X12220182Y-9061984D02*
X12239229Y-9071508D01*
X12239229Y-9071508D02*
X12248753Y-9081031D01*
X12248753Y-9081031D02*
X12258277Y-9100079D01*
X12258277Y-9100079D02*
X12267801Y-9138174D01*
X12267801Y-9138174D02*
X12267801Y-9185793D01*
X12267801Y-9185793D02*
X12258277Y-9223889D01*
X12258277Y-9223889D02*
X12248753Y-9242936D01*
X12248753Y-9242936D02*
X12239229Y-9252460D01*
X12239229Y-9252460D02*
X12220182Y-9261984D01*
X12220182Y-9261984D02*
X12201134Y-9261984D01*
X12201134Y-9261984D02*
X12182086Y-9252460D01*
X12182086Y-9252460D02*
X12172563Y-9242936D01*
X12172563Y-9242936D02*
X12163039Y-9223889D01*
X12163039Y-9223889D02*
X12153515Y-9185793D01*
X12153515Y-9185793D02*
X12153515Y-9138174D01*
X12153515Y-9138174D02*
X12163039Y-9100079D01*
X12163039Y-9100079D02*
X12172563Y-9081031D01*
X12172563Y-9081031D02*
X12182086Y-9071508D01*
X12182086Y-9071508D02*
X12201134Y-9061984D01*
X12353515Y-9242936D02*
X12363039Y-9252460D01*
X12363039Y-9252460D02*
X12353515Y-9261984D01*
X12353515Y-9261984D02*
X12343991Y-9252460D01*
X12343991Y-9252460D02*
X12353515Y-9242936D01*
X12353515Y-9242936D02*
X12353515Y-9261984D01*
X12486848Y-9061984D02*
X12505896Y-9061984D01*
X12505896Y-9061984D02*
X12524944Y-9071508D01*
X12524944Y-9071508D02*
X12534467Y-9081031D01*
X12534467Y-9081031D02*
X12543991Y-9100079D01*
X12543991Y-9100079D02*
X12553515Y-9138174D01*
X12553515Y-9138174D02*
X12553515Y-9185793D01*
X12553515Y-9185793D02*
X12543991Y-9223889D01*
X12543991Y-9223889D02*
X12534467Y-9242936D01*
X12534467Y-9242936D02*
X12524944Y-9252460D01*
X12524944Y-9252460D02*
X12505896Y-9261984D01*
X12505896Y-9261984D02*
X12486848Y-9261984D01*
X12486848Y-9261984D02*
X12467801Y-9252460D01*
X12467801Y-9252460D02*
X12458277Y-9242936D01*
X12458277Y-9242936D02*
X12448753Y-9223889D01*
X12448753Y-9223889D02*
X12439229Y-9185793D01*
X12439229Y-9185793D02*
X12439229Y-9138174D01*
X12439229Y-9138174D02*
X12448753Y-9100079D01*
X12448753Y-9100079D02*
X12458277Y-9081031D01*
X12458277Y-9081031D02*
X12467801Y-9071508D01*
X12467801Y-9071508D02*
X12486848Y-9061984D01*
X12620182Y-9061984D02*
X12743991Y-9061984D01*
X12743991Y-9061984D02*
X12677325Y-9138174D01*
X12677325Y-9138174D02*
X12705896Y-9138174D01*
X12705896Y-9138174D02*
X12724944Y-9147698D01*
X12724944Y-9147698D02*
X12734467Y-9157222D01*
X12734467Y-9157222D02*
X12743991Y-9176270D01*
X12743991Y-9176270D02*
X12743991Y-9223889D01*
X12743991Y-9223889D02*
X12734467Y-9242936D01*
X12734467Y-9242936D02*
X12724944Y-9252460D01*
X12724944Y-9252460D02*
X12705896Y-9261984D01*
X12705896Y-9261984D02*
X12648753Y-9261984D01*
X12648753Y-9261984D02*
X12629706Y-9252460D01*
X12629706Y-9252460D02*
X12620182Y-9242936D01*
X12839229Y-9261984D02*
X12877325Y-9261984D01*
X12877325Y-9261984D02*
X12896372Y-9252460D01*
X12896372Y-9252460D02*
X12905896Y-9242936D01*
X12905896Y-9242936D02*
X12924944Y-9214365D01*
X12924944Y-9214365D02*
X12934467Y-9176270D01*
X12934467Y-9176270D02*
X12934467Y-9100079D01*
X12934467Y-9100079D02*
X12924944Y-9081031D01*
X12924944Y-9081031D02*
X12915420Y-9071508D01*
X12915420Y-9071508D02*
X12896372Y-9061984D01*
X12896372Y-9061984D02*
X12858277Y-9061984D01*
X12858277Y-9061984D02*
X12839229Y-9071508D01*
X12839229Y-9071508D02*
X12829706Y-9081031D01*
X12829706Y-9081031D02*
X12820182Y-9100079D01*
X12820182Y-9100079D02*
X12820182Y-9147698D01*
X12820182Y-9147698D02*
X12829706Y-9166746D01*
X12829706Y-9166746D02*
X12839229Y-9176270D01*
X12839229Y-9176270D02*
X12858277Y-9185793D01*
X12858277Y-9185793D02*
X12896372Y-9185793D01*
X12896372Y-9185793D02*
X12915420Y-9176270D01*
X12915420Y-9176270D02*
X12924944Y-9166746D01*
X12924944Y-9166746D02*
X12934467Y-9147698D01*
X13105896Y-9128650D02*
X13105896Y-9261984D01*
X13058277Y-9052460D02*
X13010658Y-9195317D01*
X13010658Y-9195317D02*
X13134467Y-9195317D01*
X13201134Y-9061984D02*
X13201134Y-9100079D01*
X13277325Y-9061984D02*
X13277325Y-9100079D01*
X13572563Y-9338174D02*
X13563039Y-9328650D01*
X13563039Y-9328650D02*
X13543991Y-9300079D01*
X13543991Y-9300079D02*
X13534468Y-9281031D01*
X13534468Y-9281031D02*
X13524944Y-9252460D01*
X13524944Y-9252460D02*
X13515420Y-9204841D01*
X13515420Y-9204841D02*
X13515420Y-9166746D01*
X13515420Y-9166746D02*
X13524944Y-9119127D01*
X13524944Y-9119127D02*
X13534468Y-9090555D01*
X13534468Y-9090555D02*
X13543991Y-9071508D01*
X13543991Y-9071508D02*
X13563039Y-9042936D01*
X13563039Y-9042936D02*
X13572563Y-9033412D01*
X13753515Y-9261984D02*
X13639229Y-9261984D01*
X13696372Y-9261984D02*
X13696372Y-9061984D01*
X13696372Y-9061984D02*
X13677325Y-9090555D01*
X13677325Y-9090555D02*
X13658277Y-9109603D01*
X13658277Y-9109603D02*
X13639229Y-9119127D01*
X13829706Y-9081031D02*
X13839229Y-9071508D01*
X13839229Y-9071508D02*
X13858277Y-9061984D01*
X13858277Y-9061984D02*
X13905896Y-9061984D01*
X13905896Y-9061984D02*
X13924944Y-9071508D01*
X13924944Y-9071508D02*
X13934468Y-9081031D01*
X13934468Y-9081031D02*
X13943991Y-9100079D01*
X13943991Y-9100079D02*
X13943991Y-9119127D01*
X13943991Y-9119127D02*
X13934468Y-9147698D01*
X13934468Y-9147698D02*
X13820182Y-9261984D01*
X13820182Y-9261984D02*
X13943991Y-9261984D01*
X14182087Y-9261984D02*
X14182087Y-9061984D01*
X14267801Y-9261984D02*
X14267801Y-9157222D01*
X14267801Y-9157222D02*
X14258277Y-9138174D01*
X14258277Y-9138174D02*
X14239230Y-9128650D01*
X14239230Y-9128650D02*
X14210658Y-9128650D01*
X14210658Y-9128650D02*
X14191610Y-9138174D01*
X14191610Y-9138174D02*
X14182087Y-9147698D01*
X14391610Y-9261984D02*
X14372563Y-9252460D01*
X14372563Y-9252460D02*
X14363039Y-9242936D01*
X14363039Y-9242936D02*
X14353515Y-9223889D01*
X14353515Y-9223889D02*
X14353515Y-9166746D01*
X14353515Y-9166746D02*
X14363039Y-9147698D01*
X14363039Y-9147698D02*
X14372563Y-9138174D01*
X14372563Y-9138174D02*
X14391610Y-9128650D01*
X14391610Y-9128650D02*
X14420182Y-9128650D01*
X14420182Y-9128650D02*
X14439230Y-9138174D01*
X14439230Y-9138174D02*
X14448753Y-9147698D01*
X14448753Y-9147698D02*
X14458277Y-9166746D01*
X14458277Y-9166746D02*
X14458277Y-9223889D01*
X14458277Y-9223889D02*
X14448753Y-9242936D01*
X14448753Y-9242936D02*
X14439230Y-9252460D01*
X14439230Y-9252460D02*
X14420182Y-9261984D01*
X14420182Y-9261984D02*
X14391610Y-9261984D01*
X14572563Y-9261984D02*
X14553515Y-9252460D01*
X14553515Y-9252460D02*
X14543991Y-9233412D01*
X14543991Y-9233412D02*
X14543991Y-9061984D01*
X14724944Y-9252460D02*
X14705896Y-9261984D01*
X14705896Y-9261984D02*
X14667801Y-9261984D01*
X14667801Y-9261984D02*
X14648753Y-9252460D01*
X14648753Y-9252460D02*
X14639230Y-9233412D01*
X14639230Y-9233412D02*
X14639230Y-9157222D01*
X14639230Y-9157222D02*
X14648753Y-9138174D01*
X14648753Y-9138174D02*
X14667801Y-9128650D01*
X14667801Y-9128650D02*
X14705896Y-9128650D01*
X14705896Y-9128650D02*
X14724944Y-9138174D01*
X14724944Y-9138174D02*
X14734468Y-9157222D01*
X14734468Y-9157222D02*
X14734468Y-9176270D01*
X14734468Y-9176270D02*
X14639230Y-9195317D01*
X14810658Y-9252460D02*
X14829706Y-9261984D01*
X14829706Y-9261984D02*
X14867801Y-9261984D01*
X14867801Y-9261984D02*
X14886849Y-9252460D01*
X14886849Y-9252460D02*
X14896372Y-9233412D01*
X14896372Y-9233412D02*
X14896372Y-9223889D01*
X14896372Y-9223889D02*
X14886849Y-9204841D01*
X14886849Y-9204841D02*
X14867801Y-9195317D01*
X14867801Y-9195317D02*
X14839230Y-9195317D01*
X14839230Y-9195317D02*
X14820182Y-9185793D01*
X14820182Y-9185793D02*
X14810658Y-9166746D01*
X14810658Y-9166746D02*
X14810658Y-9157222D01*
X14810658Y-9157222D02*
X14820182Y-9138174D01*
X14820182Y-9138174D02*
X14839230Y-9128650D01*
X14839230Y-9128650D02*
X14867801Y-9128650D01*
X14867801Y-9128650D02*
X14886849Y-9138174D01*
X14963039Y-9338174D02*
X14972563Y-9328650D01*
X14972563Y-9328650D02*
X14991611Y-9300079D01*
X14991611Y-9300079D02*
X15001134Y-9281031D01*
X15001134Y-9281031D02*
X15010658Y-9252460D01*
X15010658Y-9252460D02*
X15020182Y-9204841D01*
X15020182Y-9204841D02*
X15020182Y-9166746D01*
X15020182Y-9166746D02*
X15010658Y-9119127D01*
X15010658Y-9119127D02*
X15001134Y-9090555D01*
X15001134Y-9090555D02*
X14991611Y-9071508D01*
X14991611Y-9071508D02*
X14972563Y-9042936D01*
X14972563Y-9042936D02*
X14963039Y-9033412D01*
M02*
