G04 #@! TF.GenerationSoftware,KiCad,Pcbnew,8.0.3-8.0.3-0~ubuntu22.04.1*
G04 #@! TF.CreationDate,2025-02-10T22:12:32+01:00*
G04 #@! TF.ProjectId,garland_controller,6761726c-616e-4645-9f63-6f6e74726f6c,0.1*
G04 #@! TF.SameCoordinates,Original*
G04 #@! TF.FileFunction,Legend,Top*
G04 #@! TF.FilePolarity,Positive*
%FSLAX46Y46*%
G04 Gerber Fmt 4.6, Leading zero omitted, Abs format (unit mm)*
G04 Created by KiCad (PCBNEW 8.0.3-8.0.3-0~ubuntu22.04.1) date 2025-02-10 22:12:32*
%MOMM*%
%LPD*%
G01*
G04 APERTURE LIST*
G04 Aperture macros list*
%AMRoundRect*
0 Rectangle with rounded corners*
0 $1 Rounding radius*
0 $2 $3 $4 $5 $6 $7 $8 $9 X,Y pos of 4 corners*
0 Add a 4 corners polygon primitive as box body*
4,1,4,$2,$3,$4,$5,$6,$7,$8,$9,$2,$3,0*
0 Add four circle primitives for the rounded corners*
1,1,$1+$1,$2,$3*
1,1,$1+$1,$4,$5*
1,1,$1+$1,$6,$7*
1,1,$1+$1,$8,$9*
0 Add four rect primitives between the rounded corners*
20,1,$1+$1,$2,$3,$4,$5,0*
20,1,$1+$1,$4,$5,$6,$7,0*
20,1,$1+$1,$6,$7,$8,$9,0*
20,1,$1+$1,$8,$9,$2,$3,0*%
G04 Aperture macros list end*
%ADD10C,0.150000*%
%ADD11C,0.120000*%
%ADD12RoundRect,0.237500X0.237500X-0.250000X0.237500X0.250000X-0.237500X0.250000X-0.237500X-0.250000X0*%
%ADD13R,1.700000X1.700000*%
%ADD14O,1.700000X1.700000*%
%ADD15RoundRect,0.237500X0.287500X0.237500X-0.287500X0.237500X-0.287500X-0.237500X0.287500X-0.237500X0*%
%ADD16RoundRect,0.237500X-0.300000X-0.237500X0.300000X-0.237500X0.300000X0.237500X-0.300000X0.237500X0*%
%ADD17RoundRect,0.250000X-0.650000X0.412500X-0.650000X-0.412500X0.650000X-0.412500X0.650000X0.412500X0*%
%ADD18C,2.100000*%
%ADD19RoundRect,0.250001X1.074999X-0.462499X1.074999X0.462499X-1.074999X0.462499X-1.074999X-0.462499X0*%
%ADD20RoundRect,0.237500X0.250000X0.237500X-0.250000X0.237500X-0.250000X-0.237500X0.250000X-0.237500X0*%
%ADD21RoundRect,0.237500X0.300000X0.237500X-0.300000X0.237500X-0.300000X-0.237500X0.300000X-0.237500X0*%
%ADD22RoundRect,0.150000X-0.512500X-0.150000X0.512500X-0.150000X0.512500X0.150000X-0.512500X0.150000X0*%
%ADD23RoundRect,0.237500X-0.250000X-0.237500X0.250000X-0.237500X0.250000X0.237500X-0.250000X0.237500X0*%
%ADD24RoundRect,0.237500X-0.237500X0.250000X-0.237500X-0.250000X0.237500X-0.250000X0.237500X0.250000X0*%
%ADD25RoundRect,0.375000X0.375000X-0.625000X0.375000X0.625000X-0.375000X0.625000X-0.375000X-0.625000X0*%
%ADD26RoundRect,0.500000X1.400000X-0.500000X1.400000X0.500000X-1.400000X0.500000X-1.400000X-0.500000X0*%
%ADD27RoundRect,0.237500X0.237500X-0.300000X0.237500X0.300000X-0.237500X0.300000X-0.237500X-0.300000X0*%
%ADD28RoundRect,0.075000X0.075000X-0.662500X0.075000X0.662500X-0.075000X0.662500X-0.075000X-0.662500X0*%
%ADD29RoundRect,0.075000X0.662500X-0.075000X0.662500X0.075000X-0.662500X0.075000X-0.662500X-0.075000X0*%
%ADD30RoundRect,0.250000X0.412500X0.650000X-0.412500X0.650000X-0.412500X-0.650000X0.412500X-0.650000X0*%
%ADD31C,0.650000*%
%ADD32RoundRect,0.150000X-0.425000X0.150000X-0.425000X-0.150000X0.425000X-0.150000X0.425000X0.150000X0*%
%ADD33RoundRect,0.075000X-0.500000X0.075000X-0.500000X-0.075000X0.500000X-0.075000X0.500000X0.075000X0*%
%ADD34O,2.100000X1.000000*%
%ADD35O,1.800000X1.000000*%
%ADD36R,4.500000X2.000000*%
%ADD37RoundRect,0.250000X-0.325000X-0.450000X0.325000X-0.450000X0.325000X0.450000X-0.325000X0.450000X0*%
%ADD38RoundRect,0.150000X-0.150000X-0.200000X0.150000X-0.200000X0.150000X0.200000X-0.150000X0.200000X0*%
G04 APERTURE END LIST*
D10*
X120583333Y-63704819D02*
X120250000Y-63228628D01*
X120011905Y-63704819D02*
X120011905Y-62704819D01*
X120011905Y-62704819D02*
X120392857Y-62704819D01*
X120392857Y-62704819D02*
X120488095Y-62752438D01*
X120488095Y-62752438D02*
X120535714Y-62800057D01*
X120535714Y-62800057D02*
X120583333Y-62895295D01*
X120583333Y-62895295D02*
X120583333Y-63038152D01*
X120583333Y-63038152D02*
X120535714Y-63133390D01*
X120535714Y-63133390D02*
X120488095Y-63181009D01*
X120488095Y-63181009D02*
X120392857Y-63228628D01*
X120392857Y-63228628D02*
X120011905Y-63228628D01*
X120916667Y-62704819D02*
X121535714Y-62704819D01*
X121535714Y-62704819D02*
X121202381Y-63085771D01*
X121202381Y-63085771D02*
X121345238Y-63085771D01*
X121345238Y-63085771D02*
X121440476Y-63133390D01*
X121440476Y-63133390D02*
X121488095Y-63181009D01*
X121488095Y-63181009D02*
X121535714Y-63276247D01*
X121535714Y-63276247D02*
X121535714Y-63514342D01*
X121535714Y-63514342D02*
X121488095Y-63609580D01*
X121488095Y-63609580D02*
X121440476Y-63657200D01*
X121440476Y-63657200D02*
X121345238Y-63704819D01*
X121345238Y-63704819D02*
X121059524Y-63704819D01*
X121059524Y-63704819D02*
X120964286Y-63657200D01*
X120964286Y-63657200D02*
X120916667Y-63609580D01*
X110666666Y-58704819D02*
X110666666Y-59419104D01*
X110666666Y-59419104D02*
X110619047Y-59561961D01*
X110619047Y-59561961D02*
X110523809Y-59657200D01*
X110523809Y-59657200D02*
X110380952Y-59704819D01*
X110380952Y-59704819D02*
X110285714Y-59704819D01*
X111571428Y-59038152D02*
X111571428Y-59704819D01*
X111333333Y-58657200D02*
X111095238Y-59371485D01*
X111095238Y-59371485D02*
X111714285Y-59371485D01*
X112416666Y-75704819D02*
X112416666Y-76419104D01*
X112416666Y-76419104D02*
X112369047Y-76561961D01*
X112369047Y-76561961D02*
X112273809Y-76657200D01*
X112273809Y-76657200D02*
X112130952Y-76704819D01*
X112130952Y-76704819D02*
X112035714Y-76704819D01*
X112797619Y-75704819D02*
X113416666Y-75704819D01*
X113416666Y-75704819D02*
X113083333Y-76085771D01*
X113083333Y-76085771D02*
X113226190Y-76085771D01*
X113226190Y-76085771D02*
X113321428Y-76133390D01*
X113321428Y-76133390D02*
X113369047Y-76181009D01*
X113369047Y-76181009D02*
X113416666Y-76276247D01*
X113416666Y-76276247D02*
X113416666Y-76514342D01*
X113416666Y-76514342D02*
X113369047Y-76609580D01*
X113369047Y-76609580D02*
X113321428Y-76657200D01*
X113321428Y-76657200D02*
X113226190Y-76704819D01*
X113226190Y-76704819D02*
X112940476Y-76704819D01*
X112940476Y-76704819D02*
X112845238Y-76657200D01*
X112845238Y-76657200D02*
X112797619Y-76609580D01*
X113916666Y-58704819D02*
X113916666Y-59419104D01*
X113916666Y-59419104D02*
X113869047Y-59561961D01*
X113869047Y-59561961D02*
X113773809Y-59657200D01*
X113773809Y-59657200D02*
X113630952Y-59704819D01*
X113630952Y-59704819D02*
X113535714Y-59704819D01*
X114345238Y-58800057D02*
X114392857Y-58752438D01*
X114392857Y-58752438D02*
X114488095Y-58704819D01*
X114488095Y-58704819D02*
X114726190Y-58704819D01*
X114726190Y-58704819D02*
X114821428Y-58752438D01*
X114821428Y-58752438D02*
X114869047Y-58800057D01*
X114869047Y-58800057D02*
X114916666Y-58895295D01*
X114916666Y-58895295D02*
X114916666Y-58990533D01*
X114916666Y-58990533D02*
X114869047Y-59133390D01*
X114869047Y-59133390D02*
X114297619Y-59704819D01*
X114297619Y-59704819D02*
X114916666Y-59704819D01*
X133261905Y-58884819D02*
X133261905Y-57884819D01*
X133261905Y-57884819D02*
X133500000Y-57884819D01*
X133500000Y-57884819D02*
X133642857Y-57932438D01*
X133642857Y-57932438D02*
X133738095Y-58027676D01*
X133738095Y-58027676D02*
X133785714Y-58122914D01*
X133785714Y-58122914D02*
X133833333Y-58313390D01*
X133833333Y-58313390D02*
X133833333Y-58456247D01*
X133833333Y-58456247D02*
X133785714Y-58646723D01*
X133785714Y-58646723D02*
X133738095Y-58741961D01*
X133738095Y-58741961D02*
X133642857Y-58837200D01*
X133642857Y-58837200D02*
X133500000Y-58884819D01*
X133500000Y-58884819D02*
X133261905Y-58884819D01*
X134785714Y-58884819D02*
X134214286Y-58884819D01*
X134500000Y-58884819D02*
X134500000Y-57884819D01*
X134500000Y-57884819D02*
X134404762Y-58027676D01*
X134404762Y-58027676D02*
X134309524Y-58122914D01*
X134309524Y-58122914D02*
X134214286Y-58170533D01*
X123083333Y-56359580D02*
X123035714Y-56407200D01*
X123035714Y-56407200D02*
X122892857Y-56454819D01*
X122892857Y-56454819D02*
X122797619Y-56454819D01*
X122797619Y-56454819D02*
X122654762Y-56407200D01*
X122654762Y-56407200D02*
X122559524Y-56311961D01*
X122559524Y-56311961D02*
X122511905Y-56216723D01*
X122511905Y-56216723D02*
X122464286Y-56026247D01*
X122464286Y-56026247D02*
X122464286Y-55883390D01*
X122464286Y-55883390D02*
X122511905Y-55692914D01*
X122511905Y-55692914D02*
X122559524Y-55597676D01*
X122559524Y-55597676D02*
X122654762Y-55502438D01*
X122654762Y-55502438D02*
X122797619Y-55454819D01*
X122797619Y-55454819D02*
X122892857Y-55454819D01*
X122892857Y-55454819D02*
X123035714Y-55502438D01*
X123035714Y-55502438D02*
X123083333Y-55550057D01*
X123416667Y-55454819D02*
X124035714Y-55454819D01*
X124035714Y-55454819D02*
X123702381Y-55835771D01*
X123702381Y-55835771D02*
X123845238Y-55835771D01*
X123845238Y-55835771D02*
X123940476Y-55883390D01*
X123940476Y-55883390D02*
X123988095Y-55931009D01*
X123988095Y-55931009D02*
X124035714Y-56026247D01*
X124035714Y-56026247D02*
X124035714Y-56264342D01*
X124035714Y-56264342D02*
X123988095Y-56359580D01*
X123988095Y-56359580D02*
X123940476Y-56407200D01*
X123940476Y-56407200D02*
X123845238Y-56454819D01*
X123845238Y-56454819D02*
X123559524Y-56454819D01*
X123559524Y-56454819D02*
X123464286Y-56407200D01*
X123464286Y-56407200D02*
X123416667Y-56359580D01*
X123833333Y-70359580D02*
X123785714Y-70407200D01*
X123785714Y-70407200D02*
X123642857Y-70454819D01*
X123642857Y-70454819D02*
X123547619Y-70454819D01*
X123547619Y-70454819D02*
X123404762Y-70407200D01*
X123404762Y-70407200D02*
X123309524Y-70311961D01*
X123309524Y-70311961D02*
X123261905Y-70216723D01*
X123261905Y-70216723D02*
X123214286Y-70026247D01*
X123214286Y-70026247D02*
X123214286Y-69883390D01*
X123214286Y-69883390D02*
X123261905Y-69692914D01*
X123261905Y-69692914D02*
X123309524Y-69597676D01*
X123309524Y-69597676D02*
X123404762Y-69502438D01*
X123404762Y-69502438D02*
X123547619Y-69454819D01*
X123547619Y-69454819D02*
X123642857Y-69454819D01*
X123642857Y-69454819D02*
X123785714Y-69502438D01*
X123785714Y-69502438D02*
X123833333Y-69550057D01*
X124785714Y-70454819D02*
X124214286Y-70454819D01*
X124500000Y-70454819D02*
X124500000Y-69454819D01*
X124500000Y-69454819D02*
X124404762Y-69597676D01*
X124404762Y-69597676D02*
X124309524Y-69692914D01*
X124309524Y-69692914D02*
X124214286Y-69740533D01*
X101666666Y-55681009D02*
X101333333Y-55681009D01*
X101333333Y-56204819D02*
X101333333Y-55204819D01*
X101333333Y-55204819D02*
X101809523Y-55204819D01*
X102714285Y-56204819D02*
X102142857Y-56204819D01*
X102428571Y-56204819D02*
X102428571Y-55204819D01*
X102428571Y-55204819D02*
X102333333Y-55347676D01*
X102333333Y-55347676D02*
X102238095Y-55442914D01*
X102238095Y-55442914D02*
X102142857Y-55490533D01*
X108583333Y-62384819D02*
X108250000Y-61908628D01*
X108011905Y-62384819D02*
X108011905Y-61384819D01*
X108011905Y-61384819D02*
X108392857Y-61384819D01*
X108392857Y-61384819D02*
X108488095Y-61432438D01*
X108488095Y-61432438D02*
X108535714Y-61480057D01*
X108535714Y-61480057D02*
X108583333Y-61575295D01*
X108583333Y-61575295D02*
X108583333Y-61718152D01*
X108583333Y-61718152D02*
X108535714Y-61813390D01*
X108535714Y-61813390D02*
X108488095Y-61861009D01*
X108488095Y-61861009D02*
X108392857Y-61908628D01*
X108392857Y-61908628D02*
X108011905Y-61908628D01*
X109488095Y-61384819D02*
X109011905Y-61384819D01*
X109011905Y-61384819D02*
X108964286Y-61861009D01*
X108964286Y-61861009D02*
X109011905Y-61813390D01*
X109011905Y-61813390D02*
X109107143Y-61765771D01*
X109107143Y-61765771D02*
X109345238Y-61765771D01*
X109345238Y-61765771D02*
X109440476Y-61813390D01*
X109440476Y-61813390D02*
X109488095Y-61861009D01*
X109488095Y-61861009D02*
X109535714Y-61956247D01*
X109535714Y-61956247D02*
X109535714Y-62194342D01*
X109535714Y-62194342D02*
X109488095Y-62289580D01*
X109488095Y-62289580D02*
X109440476Y-62337200D01*
X109440476Y-62337200D02*
X109345238Y-62384819D01*
X109345238Y-62384819D02*
X109107143Y-62384819D01*
X109107143Y-62384819D02*
X109011905Y-62337200D01*
X109011905Y-62337200D02*
X108964286Y-62289580D01*
X138583333Y-79109580D02*
X138535714Y-79157200D01*
X138535714Y-79157200D02*
X138392857Y-79204819D01*
X138392857Y-79204819D02*
X138297619Y-79204819D01*
X138297619Y-79204819D02*
X138154762Y-79157200D01*
X138154762Y-79157200D02*
X138059524Y-79061961D01*
X138059524Y-79061961D02*
X138011905Y-78966723D01*
X138011905Y-78966723D02*
X137964286Y-78776247D01*
X137964286Y-78776247D02*
X137964286Y-78633390D01*
X137964286Y-78633390D02*
X138011905Y-78442914D01*
X138011905Y-78442914D02*
X138059524Y-78347676D01*
X138059524Y-78347676D02*
X138154762Y-78252438D01*
X138154762Y-78252438D02*
X138297619Y-78204819D01*
X138297619Y-78204819D02*
X138392857Y-78204819D01*
X138392857Y-78204819D02*
X138535714Y-78252438D01*
X138535714Y-78252438D02*
X138583333Y-78300057D01*
X139154762Y-78633390D02*
X139059524Y-78585771D01*
X139059524Y-78585771D02*
X139011905Y-78538152D01*
X139011905Y-78538152D02*
X138964286Y-78442914D01*
X138964286Y-78442914D02*
X138964286Y-78395295D01*
X138964286Y-78395295D02*
X139011905Y-78300057D01*
X139011905Y-78300057D02*
X139059524Y-78252438D01*
X139059524Y-78252438D02*
X139154762Y-78204819D01*
X139154762Y-78204819D02*
X139345238Y-78204819D01*
X139345238Y-78204819D02*
X139440476Y-78252438D01*
X139440476Y-78252438D02*
X139488095Y-78300057D01*
X139488095Y-78300057D02*
X139535714Y-78395295D01*
X139535714Y-78395295D02*
X139535714Y-78442914D01*
X139535714Y-78442914D02*
X139488095Y-78538152D01*
X139488095Y-78538152D02*
X139440476Y-78585771D01*
X139440476Y-78585771D02*
X139345238Y-78633390D01*
X139345238Y-78633390D02*
X139154762Y-78633390D01*
X139154762Y-78633390D02*
X139059524Y-78681009D01*
X139059524Y-78681009D02*
X139011905Y-78728628D01*
X139011905Y-78728628D02*
X138964286Y-78823866D01*
X138964286Y-78823866D02*
X138964286Y-79014342D01*
X138964286Y-79014342D02*
X139011905Y-79109580D01*
X139011905Y-79109580D02*
X139059524Y-79157200D01*
X139059524Y-79157200D02*
X139154762Y-79204819D01*
X139154762Y-79204819D02*
X139345238Y-79204819D01*
X139345238Y-79204819D02*
X139440476Y-79157200D01*
X139440476Y-79157200D02*
X139488095Y-79109580D01*
X139488095Y-79109580D02*
X139535714Y-79014342D01*
X139535714Y-79014342D02*
X139535714Y-78823866D01*
X139535714Y-78823866D02*
X139488095Y-78728628D01*
X139488095Y-78728628D02*
X139440476Y-78681009D01*
X139440476Y-78681009D02*
X139345238Y-78633390D01*
X109488095Y-63454819D02*
X109488095Y-64264342D01*
X109488095Y-64264342D02*
X109535714Y-64359580D01*
X109535714Y-64359580D02*
X109583333Y-64407200D01*
X109583333Y-64407200D02*
X109678571Y-64454819D01*
X109678571Y-64454819D02*
X109869047Y-64454819D01*
X109869047Y-64454819D02*
X109964285Y-64407200D01*
X109964285Y-64407200D02*
X110011904Y-64359580D01*
X110011904Y-64359580D02*
X110059523Y-64264342D01*
X110059523Y-64264342D02*
X110059523Y-63454819D01*
X111059523Y-64454819D02*
X110488095Y-64454819D01*
X110773809Y-64454819D02*
X110773809Y-63454819D01*
X110773809Y-63454819D02*
X110678571Y-63597676D01*
X110678571Y-63597676D02*
X110583333Y-63692914D01*
X110583333Y-63692914D02*
X110488095Y-63740533D01*
X131333333Y-70024819D02*
X131000000Y-69548628D01*
X130761905Y-70024819D02*
X130761905Y-69024819D01*
X130761905Y-69024819D02*
X131142857Y-69024819D01*
X131142857Y-69024819D02*
X131238095Y-69072438D01*
X131238095Y-69072438D02*
X131285714Y-69120057D01*
X131285714Y-69120057D02*
X131333333Y-69215295D01*
X131333333Y-69215295D02*
X131333333Y-69358152D01*
X131333333Y-69358152D02*
X131285714Y-69453390D01*
X131285714Y-69453390D02*
X131238095Y-69501009D01*
X131238095Y-69501009D02*
X131142857Y-69548628D01*
X131142857Y-69548628D02*
X130761905Y-69548628D01*
X131714286Y-69120057D02*
X131761905Y-69072438D01*
X131761905Y-69072438D02*
X131857143Y-69024819D01*
X131857143Y-69024819D02*
X132095238Y-69024819D01*
X132095238Y-69024819D02*
X132190476Y-69072438D01*
X132190476Y-69072438D02*
X132238095Y-69120057D01*
X132238095Y-69120057D02*
X132285714Y-69215295D01*
X132285714Y-69215295D02*
X132285714Y-69310533D01*
X132285714Y-69310533D02*
X132238095Y-69453390D01*
X132238095Y-69453390D02*
X131666667Y-70024819D01*
X131666667Y-70024819D02*
X132285714Y-70024819D01*
X128083333Y-70954819D02*
X127750000Y-70478628D01*
X127511905Y-70954819D02*
X127511905Y-69954819D01*
X127511905Y-69954819D02*
X127892857Y-69954819D01*
X127892857Y-69954819D02*
X127988095Y-70002438D01*
X127988095Y-70002438D02*
X128035714Y-70050057D01*
X128035714Y-70050057D02*
X128083333Y-70145295D01*
X128083333Y-70145295D02*
X128083333Y-70288152D01*
X128083333Y-70288152D02*
X128035714Y-70383390D01*
X128035714Y-70383390D02*
X127988095Y-70431009D01*
X127988095Y-70431009D02*
X127892857Y-70478628D01*
X127892857Y-70478628D02*
X127511905Y-70478628D01*
X129035714Y-70954819D02*
X128464286Y-70954819D01*
X128750000Y-70954819D02*
X128750000Y-69954819D01*
X128750000Y-69954819D02*
X128654762Y-70097676D01*
X128654762Y-70097676D02*
X128559524Y-70192914D01*
X128559524Y-70192914D02*
X128464286Y-70240533D01*
X126833333Y-79359580D02*
X126785714Y-79407200D01*
X126785714Y-79407200D02*
X126642857Y-79454819D01*
X126642857Y-79454819D02*
X126547619Y-79454819D01*
X126547619Y-79454819D02*
X126404762Y-79407200D01*
X126404762Y-79407200D02*
X126309524Y-79311961D01*
X126309524Y-79311961D02*
X126261905Y-79216723D01*
X126261905Y-79216723D02*
X126214286Y-79026247D01*
X126214286Y-79026247D02*
X126214286Y-78883390D01*
X126214286Y-78883390D02*
X126261905Y-78692914D01*
X126261905Y-78692914D02*
X126309524Y-78597676D01*
X126309524Y-78597676D02*
X126404762Y-78502438D01*
X126404762Y-78502438D02*
X126547619Y-78454819D01*
X126547619Y-78454819D02*
X126642857Y-78454819D01*
X126642857Y-78454819D02*
X126785714Y-78502438D01*
X126785714Y-78502438D02*
X126833333Y-78550057D01*
X127309524Y-79454819D02*
X127500000Y-79454819D01*
X127500000Y-79454819D02*
X127595238Y-79407200D01*
X127595238Y-79407200D02*
X127642857Y-79359580D01*
X127642857Y-79359580D02*
X127738095Y-79216723D01*
X127738095Y-79216723D02*
X127785714Y-79026247D01*
X127785714Y-79026247D02*
X127785714Y-78645295D01*
X127785714Y-78645295D02*
X127738095Y-78550057D01*
X127738095Y-78550057D02*
X127690476Y-78502438D01*
X127690476Y-78502438D02*
X127595238Y-78454819D01*
X127595238Y-78454819D02*
X127404762Y-78454819D01*
X127404762Y-78454819D02*
X127309524Y-78502438D01*
X127309524Y-78502438D02*
X127261905Y-78550057D01*
X127261905Y-78550057D02*
X127214286Y-78645295D01*
X127214286Y-78645295D02*
X127214286Y-78883390D01*
X127214286Y-78883390D02*
X127261905Y-78978628D01*
X127261905Y-78978628D02*
X127309524Y-79026247D01*
X127309524Y-79026247D02*
X127404762Y-79073866D01*
X127404762Y-79073866D02*
X127595238Y-79073866D01*
X127595238Y-79073866D02*
X127690476Y-79026247D01*
X127690476Y-79026247D02*
X127738095Y-78978628D01*
X127738095Y-78978628D02*
X127785714Y-78883390D01*
X119333333Y-65609580D02*
X119285714Y-65657200D01*
X119285714Y-65657200D02*
X119142857Y-65704819D01*
X119142857Y-65704819D02*
X119047619Y-65704819D01*
X119047619Y-65704819D02*
X118904762Y-65657200D01*
X118904762Y-65657200D02*
X118809524Y-65561961D01*
X118809524Y-65561961D02*
X118761905Y-65466723D01*
X118761905Y-65466723D02*
X118714286Y-65276247D01*
X118714286Y-65276247D02*
X118714286Y-65133390D01*
X118714286Y-65133390D02*
X118761905Y-64942914D01*
X118761905Y-64942914D02*
X118809524Y-64847676D01*
X118809524Y-64847676D02*
X118904762Y-64752438D01*
X118904762Y-64752438D02*
X119047619Y-64704819D01*
X119047619Y-64704819D02*
X119142857Y-64704819D01*
X119142857Y-64704819D02*
X119285714Y-64752438D01*
X119285714Y-64752438D02*
X119333333Y-64800057D01*
X119714286Y-64800057D02*
X119761905Y-64752438D01*
X119761905Y-64752438D02*
X119857143Y-64704819D01*
X119857143Y-64704819D02*
X120095238Y-64704819D01*
X120095238Y-64704819D02*
X120190476Y-64752438D01*
X120190476Y-64752438D02*
X120238095Y-64800057D01*
X120238095Y-64800057D02*
X120285714Y-64895295D01*
X120285714Y-64895295D02*
X120285714Y-64990533D01*
X120285714Y-64990533D02*
X120238095Y-65133390D01*
X120238095Y-65133390D02*
X119666667Y-65704819D01*
X119666667Y-65704819D02*
X120285714Y-65704819D01*
X123333333Y-75289580D02*
X123285714Y-75337200D01*
X123285714Y-75337200D02*
X123142857Y-75384819D01*
X123142857Y-75384819D02*
X123047619Y-75384819D01*
X123047619Y-75384819D02*
X122904762Y-75337200D01*
X122904762Y-75337200D02*
X122809524Y-75241961D01*
X122809524Y-75241961D02*
X122761905Y-75146723D01*
X122761905Y-75146723D02*
X122714286Y-74956247D01*
X122714286Y-74956247D02*
X122714286Y-74813390D01*
X122714286Y-74813390D02*
X122761905Y-74622914D01*
X122761905Y-74622914D02*
X122809524Y-74527676D01*
X122809524Y-74527676D02*
X122904762Y-74432438D01*
X122904762Y-74432438D02*
X123047619Y-74384819D01*
X123047619Y-74384819D02*
X123142857Y-74384819D01*
X123142857Y-74384819D02*
X123285714Y-74432438D01*
X123285714Y-74432438D02*
X123333333Y-74480057D01*
X123666667Y-74384819D02*
X124333333Y-74384819D01*
X124333333Y-74384819D02*
X123904762Y-75384819D01*
X138083333Y-58929580D02*
X138035714Y-58977200D01*
X138035714Y-58977200D02*
X137892857Y-59024819D01*
X137892857Y-59024819D02*
X137797619Y-59024819D01*
X137797619Y-59024819D02*
X137654762Y-58977200D01*
X137654762Y-58977200D02*
X137559524Y-58881961D01*
X137559524Y-58881961D02*
X137511905Y-58786723D01*
X137511905Y-58786723D02*
X137464286Y-58596247D01*
X137464286Y-58596247D02*
X137464286Y-58453390D01*
X137464286Y-58453390D02*
X137511905Y-58262914D01*
X137511905Y-58262914D02*
X137559524Y-58167676D01*
X137559524Y-58167676D02*
X137654762Y-58072438D01*
X137654762Y-58072438D02*
X137797619Y-58024819D01*
X137797619Y-58024819D02*
X137892857Y-58024819D01*
X137892857Y-58024819D02*
X138035714Y-58072438D01*
X138035714Y-58072438D02*
X138083333Y-58120057D01*
X138940476Y-58024819D02*
X138750000Y-58024819D01*
X138750000Y-58024819D02*
X138654762Y-58072438D01*
X138654762Y-58072438D02*
X138607143Y-58120057D01*
X138607143Y-58120057D02*
X138511905Y-58262914D01*
X138511905Y-58262914D02*
X138464286Y-58453390D01*
X138464286Y-58453390D02*
X138464286Y-58834342D01*
X138464286Y-58834342D02*
X138511905Y-58929580D01*
X138511905Y-58929580D02*
X138559524Y-58977200D01*
X138559524Y-58977200D02*
X138654762Y-59024819D01*
X138654762Y-59024819D02*
X138845238Y-59024819D01*
X138845238Y-59024819D02*
X138940476Y-58977200D01*
X138940476Y-58977200D02*
X138988095Y-58929580D01*
X138988095Y-58929580D02*
X139035714Y-58834342D01*
X139035714Y-58834342D02*
X139035714Y-58596247D01*
X139035714Y-58596247D02*
X138988095Y-58501009D01*
X138988095Y-58501009D02*
X138940476Y-58453390D01*
X138940476Y-58453390D02*
X138845238Y-58405771D01*
X138845238Y-58405771D02*
X138654762Y-58405771D01*
X138654762Y-58405771D02*
X138559524Y-58453390D01*
X138559524Y-58453390D02*
X138511905Y-58501009D01*
X138511905Y-58501009D02*
X138464286Y-58596247D01*
X109083333Y-78704819D02*
X108750000Y-78228628D01*
X108511905Y-78704819D02*
X108511905Y-77704819D01*
X108511905Y-77704819D02*
X108892857Y-77704819D01*
X108892857Y-77704819D02*
X108988095Y-77752438D01*
X108988095Y-77752438D02*
X109035714Y-77800057D01*
X109035714Y-77800057D02*
X109083333Y-77895295D01*
X109083333Y-77895295D02*
X109083333Y-78038152D01*
X109083333Y-78038152D02*
X109035714Y-78133390D01*
X109035714Y-78133390D02*
X108988095Y-78181009D01*
X108988095Y-78181009D02*
X108892857Y-78228628D01*
X108892857Y-78228628D02*
X108511905Y-78228628D01*
X109940476Y-78038152D02*
X109940476Y-78704819D01*
X109702381Y-77657200D02*
X109464286Y-78371485D01*
X109464286Y-78371485D02*
X110083333Y-78371485D01*
X115988095Y-64954819D02*
X115988095Y-65764342D01*
X115988095Y-65764342D02*
X116035714Y-65859580D01*
X116035714Y-65859580D02*
X116083333Y-65907200D01*
X116083333Y-65907200D02*
X116178571Y-65954819D01*
X116178571Y-65954819D02*
X116369047Y-65954819D01*
X116369047Y-65954819D02*
X116464285Y-65907200D01*
X116464285Y-65907200D02*
X116511904Y-65859580D01*
X116511904Y-65859580D02*
X116559523Y-65764342D01*
X116559523Y-65764342D02*
X116559523Y-64954819D01*
X116940476Y-64954819D02*
X117559523Y-64954819D01*
X117559523Y-64954819D02*
X117226190Y-65335771D01*
X117226190Y-65335771D02*
X117369047Y-65335771D01*
X117369047Y-65335771D02*
X117464285Y-65383390D01*
X117464285Y-65383390D02*
X117511904Y-65431009D01*
X117511904Y-65431009D02*
X117559523Y-65526247D01*
X117559523Y-65526247D02*
X117559523Y-65764342D01*
X117559523Y-65764342D02*
X117511904Y-65859580D01*
X117511904Y-65859580D02*
X117464285Y-65907200D01*
X117464285Y-65907200D02*
X117369047Y-65954819D01*
X117369047Y-65954819D02*
X117083333Y-65954819D01*
X117083333Y-65954819D02*
X116988095Y-65907200D01*
X116988095Y-65907200D02*
X116940476Y-65859580D01*
X136583333Y-70359580D02*
X136535714Y-70407200D01*
X136535714Y-70407200D02*
X136392857Y-70454819D01*
X136392857Y-70454819D02*
X136297619Y-70454819D01*
X136297619Y-70454819D02*
X136154762Y-70407200D01*
X136154762Y-70407200D02*
X136059524Y-70311961D01*
X136059524Y-70311961D02*
X136011905Y-70216723D01*
X136011905Y-70216723D02*
X135964286Y-70026247D01*
X135964286Y-70026247D02*
X135964286Y-69883390D01*
X135964286Y-69883390D02*
X136011905Y-69692914D01*
X136011905Y-69692914D02*
X136059524Y-69597676D01*
X136059524Y-69597676D02*
X136154762Y-69502438D01*
X136154762Y-69502438D02*
X136297619Y-69454819D01*
X136297619Y-69454819D02*
X136392857Y-69454819D01*
X136392857Y-69454819D02*
X136535714Y-69502438D01*
X136535714Y-69502438D02*
X136583333Y-69550057D01*
X137440476Y-69788152D02*
X137440476Y-70454819D01*
X137202381Y-69407200D02*
X136964286Y-70121485D01*
X136964286Y-70121485D02*
X137583333Y-70121485D01*
X123988095Y-58204819D02*
X123988095Y-59014342D01*
X123988095Y-59014342D02*
X124035714Y-59109580D01*
X124035714Y-59109580D02*
X124083333Y-59157200D01*
X124083333Y-59157200D02*
X124178571Y-59204819D01*
X124178571Y-59204819D02*
X124369047Y-59204819D01*
X124369047Y-59204819D02*
X124464285Y-59157200D01*
X124464285Y-59157200D02*
X124511904Y-59109580D01*
X124511904Y-59109580D02*
X124559523Y-59014342D01*
X124559523Y-59014342D02*
X124559523Y-58204819D01*
X124988095Y-58300057D02*
X125035714Y-58252438D01*
X125035714Y-58252438D02*
X125130952Y-58204819D01*
X125130952Y-58204819D02*
X125369047Y-58204819D01*
X125369047Y-58204819D02*
X125464285Y-58252438D01*
X125464285Y-58252438D02*
X125511904Y-58300057D01*
X125511904Y-58300057D02*
X125559523Y-58395295D01*
X125559523Y-58395295D02*
X125559523Y-58490533D01*
X125559523Y-58490533D02*
X125511904Y-58633390D01*
X125511904Y-58633390D02*
X124940476Y-59204819D01*
X124940476Y-59204819D02*
X125559523Y-59204819D01*
X108857142Y-76709580D02*
X108809523Y-76757200D01*
X108809523Y-76757200D02*
X108666666Y-76804819D01*
X108666666Y-76804819D02*
X108571428Y-76804819D01*
X108571428Y-76804819D02*
X108428571Y-76757200D01*
X108428571Y-76757200D02*
X108333333Y-76661961D01*
X108333333Y-76661961D02*
X108285714Y-76566723D01*
X108285714Y-76566723D02*
X108238095Y-76376247D01*
X108238095Y-76376247D02*
X108238095Y-76233390D01*
X108238095Y-76233390D02*
X108285714Y-76042914D01*
X108285714Y-76042914D02*
X108333333Y-75947676D01*
X108333333Y-75947676D02*
X108428571Y-75852438D01*
X108428571Y-75852438D02*
X108571428Y-75804819D01*
X108571428Y-75804819D02*
X108666666Y-75804819D01*
X108666666Y-75804819D02*
X108809523Y-75852438D01*
X108809523Y-75852438D02*
X108857142Y-75900057D01*
X109809523Y-76804819D02*
X109238095Y-76804819D01*
X109523809Y-76804819D02*
X109523809Y-75804819D01*
X109523809Y-75804819D02*
X109428571Y-75947676D01*
X109428571Y-75947676D02*
X109333333Y-76042914D01*
X109333333Y-76042914D02*
X109238095Y-76090533D01*
X110428571Y-75804819D02*
X110523809Y-75804819D01*
X110523809Y-75804819D02*
X110619047Y-75852438D01*
X110619047Y-75852438D02*
X110666666Y-75900057D01*
X110666666Y-75900057D02*
X110714285Y-75995295D01*
X110714285Y-75995295D02*
X110761904Y-76185771D01*
X110761904Y-76185771D02*
X110761904Y-76423866D01*
X110761904Y-76423866D02*
X110714285Y-76614342D01*
X110714285Y-76614342D02*
X110666666Y-76709580D01*
X110666666Y-76709580D02*
X110619047Y-76757200D01*
X110619047Y-76757200D02*
X110523809Y-76804819D01*
X110523809Y-76804819D02*
X110428571Y-76804819D01*
X110428571Y-76804819D02*
X110333333Y-76757200D01*
X110333333Y-76757200D02*
X110285714Y-76709580D01*
X110285714Y-76709580D02*
X110238095Y-76614342D01*
X110238095Y-76614342D02*
X110190476Y-76423866D01*
X110190476Y-76423866D02*
X110190476Y-76185771D01*
X110190476Y-76185771D02*
X110238095Y-75995295D01*
X110238095Y-75995295D02*
X110285714Y-75900057D01*
X110285714Y-75900057D02*
X110333333Y-75852438D01*
X110333333Y-75852438D02*
X110428571Y-75804819D01*
X101916666Y-73204819D02*
X101916666Y-73919104D01*
X101916666Y-73919104D02*
X101869047Y-74061961D01*
X101869047Y-74061961D02*
X101773809Y-74157200D01*
X101773809Y-74157200D02*
X101630952Y-74204819D01*
X101630952Y-74204819D02*
X101535714Y-74204819D01*
X102916666Y-74204819D02*
X102345238Y-74204819D01*
X102630952Y-74204819D02*
X102630952Y-73204819D01*
X102630952Y-73204819D02*
X102535714Y-73347676D01*
X102535714Y-73347676D02*
X102440476Y-73442914D01*
X102440476Y-73442914D02*
X102345238Y-73490533D01*
X137333333Y-56204819D02*
X137000000Y-55728628D01*
X136761905Y-56204819D02*
X136761905Y-55204819D01*
X136761905Y-55204819D02*
X137142857Y-55204819D01*
X137142857Y-55204819D02*
X137238095Y-55252438D01*
X137238095Y-55252438D02*
X137285714Y-55300057D01*
X137285714Y-55300057D02*
X137333333Y-55395295D01*
X137333333Y-55395295D02*
X137333333Y-55538152D01*
X137333333Y-55538152D02*
X137285714Y-55633390D01*
X137285714Y-55633390D02*
X137238095Y-55681009D01*
X137238095Y-55681009D02*
X137142857Y-55728628D01*
X137142857Y-55728628D02*
X136761905Y-55728628D01*
X137666667Y-55204819D02*
X138333333Y-55204819D01*
X138333333Y-55204819D02*
X137904762Y-56204819D01*
X135083333Y-67429580D02*
X135035714Y-67477200D01*
X135035714Y-67477200D02*
X134892857Y-67524819D01*
X134892857Y-67524819D02*
X134797619Y-67524819D01*
X134797619Y-67524819D02*
X134654762Y-67477200D01*
X134654762Y-67477200D02*
X134559524Y-67381961D01*
X134559524Y-67381961D02*
X134511905Y-67286723D01*
X134511905Y-67286723D02*
X134464286Y-67096247D01*
X134464286Y-67096247D02*
X134464286Y-66953390D01*
X134464286Y-66953390D02*
X134511905Y-66762914D01*
X134511905Y-66762914D02*
X134559524Y-66667676D01*
X134559524Y-66667676D02*
X134654762Y-66572438D01*
X134654762Y-66572438D02*
X134797619Y-66524819D01*
X134797619Y-66524819D02*
X134892857Y-66524819D01*
X134892857Y-66524819D02*
X135035714Y-66572438D01*
X135035714Y-66572438D02*
X135083333Y-66620057D01*
X135988095Y-66524819D02*
X135511905Y-66524819D01*
X135511905Y-66524819D02*
X135464286Y-67001009D01*
X135464286Y-67001009D02*
X135511905Y-66953390D01*
X135511905Y-66953390D02*
X135607143Y-66905771D01*
X135607143Y-66905771D02*
X135845238Y-66905771D01*
X135845238Y-66905771D02*
X135940476Y-66953390D01*
X135940476Y-66953390D02*
X135988095Y-67001009D01*
X135988095Y-67001009D02*
X136035714Y-67096247D01*
X136035714Y-67096247D02*
X136035714Y-67334342D01*
X136035714Y-67334342D02*
X135988095Y-67429580D01*
X135988095Y-67429580D02*
X135940476Y-67477200D01*
X135940476Y-67477200D02*
X135845238Y-67524819D01*
X135845238Y-67524819D02*
X135607143Y-67524819D01*
X135607143Y-67524819D02*
X135511905Y-67477200D01*
X135511905Y-67477200D02*
X135464286Y-67429580D01*
X135523809Y-71478628D02*
X135523809Y-71954819D01*
X135190476Y-70954819D02*
X135523809Y-71478628D01*
X135523809Y-71478628D02*
X135857142Y-70954819D01*
X136714285Y-71954819D02*
X136142857Y-71954819D01*
X136428571Y-71954819D02*
X136428571Y-70954819D01*
X136428571Y-70954819D02*
X136333333Y-71097676D01*
X136333333Y-71097676D02*
X136238095Y-71192914D01*
X136238095Y-71192914D02*
X136142857Y-71240533D01*
X120357142Y-70359580D02*
X120309523Y-70407200D01*
X120309523Y-70407200D02*
X120166666Y-70454819D01*
X120166666Y-70454819D02*
X120071428Y-70454819D01*
X120071428Y-70454819D02*
X119928571Y-70407200D01*
X119928571Y-70407200D02*
X119833333Y-70311961D01*
X119833333Y-70311961D02*
X119785714Y-70216723D01*
X119785714Y-70216723D02*
X119738095Y-70026247D01*
X119738095Y-70026247D02*
X119738095Y-69883390D01*
X119738095Y-69883390D02*
X119785714Y-69692914D01*
X119785714Y-69692914D02*
X119833333Y-69597676D01*
X119833333Y-69597676D02*
X119928571Y-69502438D01*
X119928571Y-69502438D02*
X120071428Y-69454819D01*
X120071428Y-69454819D02*
X120166666Y-69454819D01*
X120166666Y-69454819D02*
X120309523Y-69502438D01*
X120309523Y-69502438D02*
X120357142Y-69550057D01*
X121309523Y-70454819D02*
X120738095Y-70454819D01*
X121023809Y-70454819D02*
X121023809Y-69454819D01*
X121023809Y-69454819D02*
X120928571Y-69597676D01*
X120928571Y-69597676D02*
X120833333Y-69692914D01*
X120833333Y-69692914D02*
X120738095Y-69740533D01*
X122261904Y-70454819D02*
X121690476Y-70454819D01*
X121976190Y-70454819D02*
X121976190Y-69454819D01*
X121976190Y-69454819D02*
X121880952Y-69597676D01*
X121880952Y-69597676D02*
X121785714Y-69692914D01*
X121785714Y-69692914D02*
X121690476Y-69740533D01*
X120333333Y-61884819D02*
X120000000Y-61408628D01*
X119761905Y-61884819D02*
X119761905Y-60884819D01*
X119761905Y-60884819D02*
X120142857Y-60884819D01*
X120142857Y-60884819D02*
X120238095Y-60932438D01*
X120238095Y-60932438D02*
X120285714Y-60980057D01*
X120285714Y-60980057D02*
X120333333Y-61075295D01*
X120333333Y-61075295D02*
X120333333Y-61218152D01*
X120333333Y-61218152D02*
X120285714Y-61313390D01*
X120285714Y-61313390D02*
X120238095Y-61361009D01*
X120238095Y-61361009D02*
X120142857Y-61408628D01*
X120142857Y-61408628D02*
X119761905Y-61408628D01*
X121190476Y-60884819D02*
X121000000Y-60884819D01*
X121000000Y-60884819D02*
X120904762Y-60932438D01*
X120904762Y-60932438D02*
X120857143Y-60980057D01*
X120857143Y-60980057D02*
X120761905Y-61122914D01*
X120761905Y-61122914D02*
X120714286Y-61313390D01*
X120714286Y-61313390D02*
X120714286Y-61694342D01*
X120714286Y-61694342D02*
X120761905Y-61789580D01*
X120761905Y-61789580D02*
X120809524Y-61837200D01*
X120809524Y-61837200D02*
X120904762Y-61884819D01*
X120904762Y-61884819D02*
X121095238Y-61884819D01*
X121095238Y-61884819D02*
X121190476Y-61837200D01*
X121190476Y-61837200D02*
X121238095Y-61789580D01*
X121238095Y-61789580D02*
X121285714Y-61694342D01*
X121285714Y-61694342D02*
X121285714Y-61456247D01*
X121285714Y-61456247D02*
X121238095Y-61361009D01*
X121238095Y-61361009D02*
X121190476Y-61313390D01*
X121190476Y-61313390D02*
X121095238Y-61265771D01*
X121095238Y-61265771D02*
X120904762Y-61265771D01*
X120904762Y-61265771D02*
X120809524Y-61313390D01*
X120809524Y-61313390D02*
X120761905Y-61361009D01*
X120761905Y-61361009D02*
X120714286Y-61456247D01*
X126238095Y-57454819D02*
X126809523Y-57454819D01*
X126523809Y-58454819D02*
X126523809Y-57454819D01*
X127142857Y-58454819D02*
X127142857Y-57454819D01*
X127142857Y-57454819D02*
X127523809Y-57454819D01*
X127523809Y-57454819D02*
X127619047Y-57502438D01*
X127619047Y-57502438D02*
X127666666Y-57550057D01*
X127666666Y-57550057D02*
X127714285Y-57645295D01*
X127714285Y-57645295D02*
X127714285Y-57788152D01*
X127714285Y-57788152D02*
X127666666Y-57883390D01*
X127666666Y-57883390D02*
X127619047Y-57931009D01*
X127619047Y-57931009D02*
X127523809Y-57978628D01*
X127523809Y-57978628D02*
X127142857Y-57978628D01*
X128666666Y-58454819D02*
X128095238Y-58454819D01*
X128380952Y-58454819D02*
X128380952Y-57454819D01*
X128380952Y-57454819D02*
X128285714Y-57597676D01*
X128285714Y-57597676D02*
X128190476Y-57692914D01*
X128190476Y-57692914D02*
X128095238Y-57740533D01*
X110916666Y-71681009D02*
X110583333Y-71681009D01*
X110583333Y-72204819D02*
X110583333Y-71204819D01*
X110583333Y-71204819D02*
X111059523Y-71204819D01*
X111392857Y-71300057D02*
X111440476Y-71252438D01*
X111440476Y-71252438D02*
X111535714Y-71204819D01*
X111535714Y-71204819D02*
X111773809Y-71204819D01*
X111773809Y-71204819D02*
X111869047Y-71252438D01*
X111869047Y-71252438D02*
X111916666Y-71300057D01*
X111916666Y-71300057D02*
X111964285Y-71395295D01*
X111964285Y-71395295D02*
X111964285Y-71490533D01*
X111964285Y-71490533D02*
X111916666Y-71633390D01*
X111916666Y-71633390D02*
X111345238Y-72204819D01*
X111345238Y-72204819D02*
X111964285Y-72204819D01*
X116461905Y-61954819D02*
X116461905Y-60954819D01*
X116461905Y-60954819D02*
X116700000Y-60954819D01*
X116700000Y-60954819D02*
X116842857Y-61002438D01*
X116842857Y-61002438D02*
X116938095Y-61097676D01*
X116938095Y-61097676D02*
X116985714Y-61192914D01*
X116985714Y-61192914D02*
X117033333Y-61383390D01*
X117033333Y-61383390D02*
X117033333Y-61526247D01*
X117033333Y-61526247D02*
X116985714Y-61716723D01*
X116985714Y-61716723D02*
X116938095Y-61811961D01*
X116938095Y-61811961D02*
X116842857Y-61907200D01*
X116842857Y-61907200D02*
X116700000Y-61954819D01*
X116700000Y-61954819D02*
X116461905Y-61954819D01*
X117414286Y-61050057D02*
X117461905Y-61002438D01*
X117461905Y-61002438D02*
X117557143Y-60954819D01*
X117557143Y-60954819D02*
X117795238Y-60954819D01*
X117795238Y-60954819D02*
X117890476Y-61002438D01*
X117890476Y-61002438D02*
X117938095Y-61050057D01*
X117938095Y-61050057D02*
X117985714Y-61145295D01*
X117985714Y-61145295D02*
X117985714Y-61240533D01*
X117985714Y-61240533D02*
X117938095Y-61383390D01*
X117938095Y-61383390D02*
X117366667Y-61954819D01*
X117366667Y-61954819D02*
X117985714Y-61954819D01*
D11*
X121977500Y-64254724D02*
X121977500Y-63745276D01*
X123022500Y-64254724D02*
X123022500Y-63745276D01*
X104130000Y-55670000D02*
X104130000Y-58330000D01*
X109270000Y-55670000D02*
X104130000Y-55670000D01*
X109270000Y-55670000D02*
X109270000Y-58330000D01*
X109270000Y-58330000D02*
X104130000Y-58330000D01*
X110540000Y-55670000D02*
X111870000Y-55670000D01*
X111870000Y-55670000D02*
X111870000Y-57000000D01*
X111510000Y-79330000D02*
X111510000Y-78000000D01*
X112840000Y-79330000D02*
X111510000Y-79330000D01*
X114110000Y-76670000D02*
X124330000Y-76670000D01*
X114110000Y-79330000D02*
X114110000Y-76670000D01*
X114110000Y-79330000D02*
X124330000Y-79330000D01*
X124330000Y-79330000D02*
X124330000Y-76670000D01*
X114130000Y-58330000D02*
X114130000Y-57000000D01*
X115460000Y-58330000D02*
X114130000Y-58330000D01*
X116730000Y-55670000D02*
X121870000Y-55670000D01*
X116730000Y-58330000D02*
X116730000Y-55670000D01*
X116730000Y-58330000D02*
X121870000Y-58330000D01*
X121870000Y-58330000D02*
X121870000Y-55670000D01*
X133200000Y-57735000D02*
X135660000Y-57735000D01*
X135660000Y-56265000D02*
X133200000Y-56265000D01*
X135660000Y-57735000D02*
X135660000Y-56265000D01*
X125716233Y-55990000D02*
X126008767Y-55990000D01*
X125716233Y-57010000D02*
X126008767Y-57010000D01*
X123090000Y-69288748D02*
X123090000Y-70711252D01*
X124910000Y-69288748D02*
X124910000Y-70711252D01*
X100640000Y-59602064D02*
X100640000Y-58397936D01*
X103360000Y-59602064D02*
X103360000Y-58397936D01*
X107167224Y-59977500D02*
X106657776Y-59977500D01*
X107167224Y-61022500D02*
X106657776Y-61022500D01*
X136146267Y-77990000D02*
X135853733Y-77990000D01*
X136146267Y-79010000D02*
X135853733Y-79010000D01*
X110862500Y-64990000D02*
X110062500Y-64990000D01*
X110862500Y-64990000D02*
X111662500Y-64990000D01*
X110862500Y-68110000D02*
X110062500Y-68110000D01*
X110862500Y-68110000D02*
X111662500Y-68110000D01*
X109562500Y-65040000D02*
X109322500Y-64710000D01*
X109802500Y-64710000D01*
X109562500Y-65040000D01*
G36*
X109562500Y-65040000D02*
G01*
X109322500Y-64710000D01*
X109802500Y-64710000D01*
X109562500Y-65040000D01*
G37*
X131657776Y-70477500D02*
X132167224Y-70477500D01*
X131657776Y-71522500D02*
X132167224Y-71522500D01*
X125977500Y-70245276D02*
X125977500Y-70754724D01*
X127022500Y-70245276D02*
X127022500Y-70754724D01*
X129853733Y-77990000D02*
X130146267Y-77990000D01*
X129853733Y-79010000D02*
X130146267Y-79010000D01*
X122146267Y-65990000D02*
X121853733Y-65990000D01*
X122146267Y-67010000D02*
X121853733Y-67010000D01*
X123646267Y-72990000D02*
X123353733Y-72990000D01*
X123646267Y-74010000D02*
X123353733Y-74010000D01*
X136353733Y-59490000D02*
X136646267Y-59490000D01*
X136353733Y-60510000D02*
X136646267Y-60510000D01*
X106977500Y-77245276D02*
X106977500Y-77754724D01*
X108022500Y-77245276D02*
X108022500Y-77754724D01*
X113090000Y-68590000D02*
X114350000Y-68590000D01*
X113090000Y-72350000D02*
X113090000Y-68590000D01*
X119910000Y-68590000D02*
X118650000Y-68590000D01*
X119910000Y-72350000D02*
X119910000Y-68590000D01*
X113190000Y-73630000D02*
X112860000Y-73870000D01*
X112860000Y-73390000D01*
X113190000Y-73630000D01*
G36*
X113190000Y-73630000D02*
G01*
X112860000Y-73870000D01*
X112860000Y-73390000D01*
X113190000Y-73630000D01*
G37*
X137990000Y-69146267D02*
X137990000Y-68853733D01*
X139010000Y-69146267D02*
X139010000Y-68853733D01*
X125390000Y-59890000D02*
X125840000Y-59890000D01*
X125390000Y-60340000D02*
X125390000Y-59890000D01*
X125390000Y-66660000D02*
X125390000Y-67110000D01*
X125390000Y-67110000D02*
X125840000Y-67110000D01*
X132610000Y-59890000D02*
X132160000Y-59890000D01*
X132610000Y-60340000D02*
X132610000Y-59890000D01*
X132610000Y-66660000D02*
X132610000Y-67110000D01*
X132610000Y-67110000D02*
X132160000Y-67110000D01*
X125840000Y-67700000D02*
X125370000Y-68040000D01*
X125370000Y-67360000D01*
X125840000Y-67700000D01*
G36*
X125840000Y-67700000D02*
G01*
X125370000Y-68040000D01*
X125370000Y-67360000D01*
X125840000Y-67700000D01*
G37*
X110211252Y-73590000D02*
X108788748Y-73590000D01*
X110211252Y-75410000D02*
X108788748Y-75410000D01*
X103100000Y-62830000D02*
X104800000Y-62830000D01*
X103100000Y-72170000D02*
X104800000Y-72170000D01*
X137245276Y-56477500D02*
X137754724Y-56477500D01*
X137245276Y-57522500D02*
X137754724Y-57522500D01*
X134353733Y-67990000D02*
X134646267Y-67990000D01*
X134353733Y-69010000D02*
X134646267Y-69010000D01*
X126600000Y-77550000D02*
X139200000Y-77550000D01*
X139200000Y-72450000D02*
X126600000Y-72450000D01*
X139200000Y-77550000D02*
X139200000Y-72450000D01*
X120590000Y-69288748D02*
X120590000Y-70711252D01*
X122410000Y-69288748D02*
X122410000Y-70711252D01*
X120754724Y-59477500D02*
X120245276Y-59477500D01*
X120754724Y-60522500D02*
X120245276Y-60522500D01*
X128670000Y-55170000D02*
X130000000Y-55170000D01*
X128670000Y-56500000D02*
X128670000Y-55170000D01*
X128670000Y-57770000D02*
X128670000Y-57830000D01*
X128670000Y-57770000D02*
X131330000Y-57770000D01*
X128670000Y-57830000D02*
X131330000Y-57830000D01*
X131330000Y-57770000D02*
X131330000Y-57830000D01*
X110238748Y-69290000D02*
X110761252Y-69290000D01*
X110238748Y-70710000D02*
X110761252Y-70710000D01*
X116500000Y-59400000D02*
X118460000Y-59400000D01*
X116500000Y-60600000D02*
X118460000Y-60600000D01*
X118460000Y-60600000D02*
X118460000Y-59400000D01*
%LPC*%
D12*
X122500000Y-64912500D03*
X122500000Y-63087500D03*
D13*
X110540000Y-57000000D03*
D14*
X108000000Y-57000000D03*
X105460000Y-57000000D03*
D13*
X112840000Y-78000000D03*
D14*
X115380000Y-78000000D03*
X117920000Y-78000000D03*
X120460000Y-78000000D03*
X123000000Y-78000000D03*
D13*
X115460000Y-57000000D03*
D14*
X118000000Y-57000000D03*
X120540000Y-57000000D03*
D15*
X134875000Y-57000000D03*
X133125000Y-57000000D03*
D16*
X125000000Y-56500000D03*
X126725000Y-56500000D03*
D17*
X124000000Y-68437500D03*
X124000000Y-71562500D03*
D18*
X113000000Y-62000000D03*
D19*
X102000000Y-60487500D03*
X102000000Y-57512500D03*
D20*
X107825000Y-60500000D03*
X106000000Y-60500000D03*
D21*
X136862500Y-78500000D03*
X135137500Y-78500000D03*
D22*
X109725000Y-65600000D03*
X109725000Y-66550000D03*
X109725000Y-67500000D03*
X112000000Y-67500000D03*
X112000000Y-66550000D03*
X112000000Y-65600000D03*
D23*
X131000000Y-71000000D03*
X132825000Y-71000000D03*
D24*
X126500000Y-69587500D03*
X126500000Y-71412500D03*
D16*
X129137500Y-78500000D03*
X130862500Y-78500000D03*
D21*
X122862500Y-66500000D03*
X121137500Y-66500000D03*
X124362500Y-73500000D03*
X122637500Y-73500000D03*
D16*
X135637500Y-60000000D03*
X137362500Y-60000000D03*
D24*
X107500000Y-76587500D03*
X107500000Y-78412500D03*
D25*
X114200000Y-73650000D03*
X116500000Y-73650000D03*
D26*
X116500000Y-67350000D03*
D25*
X118800000Y-73650000D03*
D27*
X138500000Y-69862500D03*
X138500000Y-68137500D03*
D28*
X126250000Y-67662500D03*
X126750000Y-67662500D03*
X127250000Y-67662500D03*
X127750000Y-67662500D03*
X128250000Y-67662500D03*
X128750000Y-67662500D03*
X129250000Y-67662500D03*
X129750000Y-67662500D03*
X130250000Y-67662500D03*
X130750000Y-67662500D03*
X131250000Y-67662500D03*
X131750000Y-67662500D03*
D29*
X133162500Y-66250000D03*
X133162500Y-65750000D03*
X133162500Y-65250000D03*
X133162500Y-64750000D03*
X133162500Y-64250000D03*
X133162500Y-63750000D03*
X133162500Y-63250000D03*
X133162500Y-62750000D03*
X133162500Y-62250000D03*
X133162500Y-61750000D03*
X133162500Y-61250000D03*
X133162500Y-60750000D03*
D28*
X131750000Y-59337500D03*
X131250000Y-59337500D03*
X130750000Y-59337500D03*
X130250000Y-59337500D03*
X129750000Y-59337500D03*
X129250000Y-59337500D03*
X128750000Y-59337500D03*
X128250000Y-59337500D03*
X127750000Y-59337500D03*
X127250000Y-59337500D03*
X126750000Y-59337500D03*
X126250000Y-59337500D03*
D29*
X124837500Y-60750000D03*
X124837500Y-61250000D03*
X124837500Y-61750000D03*
X124837500Y-62250000D03*
X124837500Y-62750000D03*
X124837500Y-63250000D03*
X124837500Y-63750000D03*
X124837500Y-64250000D03*
X124837500Y-64750000D03*
X124837500Y-65250000D03*
X124837500Y-65750000D03*
X124837500Y-66250000D03*
D30*
X111062500Y-74500000D03*
X107937500Y-74500000D03*
D31*
X105605000Y-64610000D03*
X105605000Y-70390000D03*
D32*
X106680000Y-64300000D03*
X106680000Y-65100000D03*
D33*
X106680000Y-66250000D03*
X106680000Y-67250000D03*
X106680000Y-67750000D03*
X106680000Y-68750000D03*
D32*
X106680000Y-69900000D03*
X106680000Y-70700000D03*
X106680000Y-70700000D03*
X106680000Y-69900000D03*
D33*
X106680000Y-69250000D03*
X106680000Y-68250000D03*
X106680000Y-66750000D03*
X106680000Y-65750000D03*
D32*
X106680000Y-65100000D03*
X106680000Y-64300000D03*
D34*
X106105000Y-63180000D03*
D35*
X101925000Y-63180000D03*
D34*
X106105000Y-71820000D03*
D35*
X101925000Y-71820000D03*
D23*
X136587500Y-57000000D03*
X138412500Y-57000000D03*
D16*
X133637500Y-68500000D03*
X135362500Y-68500000D03*
D36*
X136750000Y-75000000D03*
X128250000Y-75000000D03*
D17*
X121500000Y-68437500D03*
X121500000Y-71562500D03*
D20*
X121412500Y-60000000D03*
X119587500Y-60000000D03*
D18*
X137000000Y-64000000D03*
D13*
X130000000Y-56500000D03*
D37*
X109475000Y-70000000D03*
X111525000Y-70000000D03*
D18*
X104000000Y-77000000D03*
D38*
X117900000Y-60000000D03*
X116500000Y-60000000D03*
%LPD*%
M02*
