G04 #@! TF.GenerationSoftware,KiCad,Pcbnew,8.0.3-8.0.3-0~ubuntu22.04.1*
G04 #@! TF.CreationDate,2025-02-10T22:12:32+01:00*
G04 #@! TF.ProjectId,garland_controller,6761726c-616e-4645-9f63-6f6e74726f6c,0.1*
G04 #@! TF.SameCoordinates,Original*
G04 #@! TF.FileFunction,Copper,L1,Top*
G04 #@! TF.FilePolarity,Positive*
%FSLAX46Y46*%
G04 Gerber Fmt 4.6, Leading zero omitted, Abs format (unit mm)*
G04 Created by KiCad (PCBNEW 8.0.3-8.0.3-0~ubuntu22.04.1) date 2025-02-10 22:12:32*
%MOMM*%
%LPD*%
G01*
G04 APERTURE LIST*
G04 Aperture macros list*
%AMRoundRect*
0 Rectangle with rounded corners*
0 $1 Rounding radius*
0 $2 $3 $4 $5 $6 $7 $8 $9 X,Y pos of 4 corners*
0 Add a 4 corners polygon primitive as box body*
4,1,4,$2,$3,$4,$5,$6,$7,$8,$9,$2,$3,0*
0 Add four circle primitives for the rounded corners*
1,1,$1+$1,$2,$3*
1,1,$1+$1,$4,$5*
1,1,$1+$1,$6,$7*
1,1,$1+$1,$8,$9*
0 Add four rect primitives between the rounded corners*
20,1,$1+$1,$2,$3,$4,$5,0*
20,1,$1+$1,$4,$5,$6,$7,0*
20,1,$1+$1,$6,$7,$8,$9,0*
20,1,$1+$1,$8,$9,$2,$3,0*%
G04 Aperture macros list end*
G04 #@! TA.AperFunction,SMDPad,CuDef*
%ADD10RoundRect,0.237500X0.237500X-0.250000X0.237500X0.250000X-0.237500X0.250000X-0.237500X-0.250000X0*%
G04 #@! TD*
G04 #@! TA.AperFunction,ComponentPad*
%ADD11R,1.700000X1.700000*%
G04 #@! TD*
G04 #@! TA.AperFunction,ComponentPad*
%ADD12O,1.700000X1.700000*%
G04 #@! TD*
G04 #@! TA.AperFunction,SMDPad,CuDef*
%ADD13RoundRect,0.237500X0.287500X0.237500X-0.287500X0.237500X-0.287500X-0.237500X0.287500X-0.237500X0*%
G04 #@! TD*
G04 #@! TA.AperFunction,SMDPad,CuDef*
%ADD14RoundRect,0.237500X-0.300000X-0.237500X0.300000X-0.237500X0.300000X0.237500X-0.300000X0.237500X0*%
G04 #@! TD*
G04 #@! TA.AperFunction,SMDPad,CuDef*
%ADD15RoundRect,0.250000X-0.650000X0.412500X-0.650000X-0.412500X0.650000X-0.412500X0.650000X0.412500X0*%
G04 #@! TD*
G04 #@! TA.AperFunction,SMDPad,CuDef*
%ADD16RoundRect,0.250001X1.074999X-0.462499X1.074999X0.462499X-1.074999X0.462499X-1.074999X-0.462499X0*%
G04 #@! TD*
G04 #@! TA.AperFunction,SMDPad,CuDef*
%ADD17RoundRect,0.237500X0.250000X0.237500X-0.250000X0.237500X-0.250000X-0.237500X0.250000X-0.237500X0*%
G04 #@! TD*
G04 #@! TA.AperFunction,SMDPad,CuDef*
%ADD18RoundRect,0.237500X0.300000X0.237500X-0.300000X0.237500X-0.300000X-0.237500X0.300000X-0.237500X0*%
G04 #@! TD*
G04 #@! TA.AperFunction,SMDPad,CuDef*
%ADD19RoundRect,0.150000X-0.512500X-0.150000X0.512500X-0.150000X0.512500X0.150000X-0.512500X0.150000X0*%
G04 #@! TD*
G04 #@! TA.AperFunction,SMDPad,CuDef*
%ADD20RoundRect,0.237500X-0.250000X-0.237500X0.250000X-0.237500X0.250000X0.237500X-0.250000X0.237500X0*%
G04 #@! TD*
G04 #@! TA.AperFunction,SMDPad,CuDef*
%ADD21RoundRect,0.237500X-0.237500X0.250000X-0.237500X-0.250000X0.237500X-0.250000X0.237500X0.250000X0*%
G04 #@! TD*
G04 #@! TA.AperFunction,SMDPad,CuDef*
%ADD22RoundRect,0.375000X0.375000X-0.625000X0.375000X0.625000X-0.375000X0.625000X-0.375000X-0.625000X0*%
G04 #@! TD*
G04 #@! TA.AperFunction,SMDPad,CuDef*
%ADD23RoundRect,0.500000X1.400000X-0.500000X1.400000X0.500000X-1.400000X0.500000X-1.400000X-0.500000X0*%
G04 #@! TD*
G04 #@! TA.AperFunction,SMDPad,CuDef*
%ADD24RoundRect,0.237500X0.237500X-0.300000X0.237500X0.300000X-0.237500X0.300000X-0.237500X-0.300000X0*%
G04 #@! TD*
G04 #@! TA.AperFunction,SMDPad,CuDef*
%ADD25RoundRect,0.075000X0.075000X-0.662500X0.075000X0.662500X-0.075000X0.662500X-0.075000X-0.662500X0*%
G04 #@! TD*
G04 #@! TA.AperFunction,SMDPad,CuDef*
%ADD26RoundRect,0.075000X0.662500X-0.075000X0.662500X0.075000X-0.662500X0.075000X-0.662500X-0.075000X0*%
G04 #@! TD*
G04 #@! TA.AperFunction,SMDPad,CuDef*
%ADD27RoundRect,0.250000X0.412500X0.650000X-0.412500X0.650000X-0.412500X-0.650000X0.412500X-0.650000X0*%
G04 #@! TD*
G04 #@! TA.AperFunction,SMDPad,CuDef*
%ADD28RoundRect,0.150000X-0.425000X0.150000X-0.425000X-0.150000X0.425000X-0.150000X0.425000X0.150000X0*%
G04 #@! TD*
G04 #@! TA.AperFunction,SMDPad,CuDef*
%ADD29RoundRect,0.075000X-0.500000X0.075000X-0.500000X-0.075000X0.500000X-0.075000X0.500000X0.075000X0*%
G04 #@! TD*
G04 #@! TA.AperFunction,ComponentPad*
%ADD30O,2.100000X1.000000*%
G04 #@! TD*
G04 #@! TA.AperFunction,ComponentPad*
%ADD31O,1.800000X1.000000*%
G04 #@! TD*
G04 #@! TA.AperFunction,SMDPad,CuDef*
%ADD32R,4.500000X2.000000*%
G04 #@! TD*
G04 #@! TA.AperFunction,SMDPad,CuDef*
%ADD33RoundRect,0.250000X-0.325000X-0.450000X0.325000X-0.450000X0.325000X0.450000X-0.325000X0.450000X0*%
G04 #@! TD*
G04 #@! TA.AperFunction,SMDPad,CuDef*
%ADD34RoundRect,0.150000X-0.150000X-0.200000X0.150000X-0.200000X0.150000X0.200000X-0.150000X0.200000X0*%
G04 #@! TD*
G04 #@! TA.AperFunction,ViaPad*
%ADD35C,0.600000*%
G04 #@! TD*
G04 #@! TA.AperFunction,Conductor*
%ADD36C,0.500000*%
G04 #@! TD*
G04 #@! TA.AperFunction,Conductor*
%ADD37C,0.200000*%
G04 #@! TD*
G04 #@! TA.AperFunction,Conductor*
%ADD38C,1.000000*%
G04 #@! TD*
G04 APERTURE END LIST*
D10*
X122500000Y-64912500D03*
X122500000Y-63087500D03*
D11*
X110540000Y-57000000D03*
D12*
X108000000Y-57000000D03*
X105460000Y-57000000D03*
D11*
X112840000Y-78000000D03*
D12*
X115380000Y-78000000D03*
X117920000Y-78000000D03*
X120460000Y-78000000D03*
X123000000Y-78000000D03*
D11*
X115460000Y-57000000D03*
D12*
X118000000Y-57000000D03*
X120540000Y-57000000D03*
D13*
X134875000Y-57000000D03*
X133125000Y-57000000D03*
D14*
X125000000Y-56500000D03*
X126725000Y-56500000D03*
D15*
X124000000Y-68437500D03*
X124000000Y-71562500D03*
D16*
X102000000Y-60487500D03*
X102000000Y-57512500D03*
D17*
X107825000Y-60500000D03*
X106000000Y-60500000D03*
D18*
X136862500Y-78500000D03*
X135137500Y-78500000D03*
D19*
X109725000Y-65600000D03*
X109725000Y-66550000D03*
X109725000Y-67500000D03*
X112000000Y-67500000D03*
X112000000Y-66550000D03*
X112000000Y-65600000D03*
D20*
X131000000Y-71000000D03*
X132825000Y-71000000D03*
D21*
X126500000Y-69587500D03*
X126500000Y-71412500D03*
D14*
X129137500Y-78500000D03*
X130862500Y-78500000D03*
D18*
X122862500Y-66500000D03*
X121137500Y-66500000D03*
X124362500Y-73500000D03*
X122637500Y-73500000D03*
D14*
X135637500Y-60000000D03*
X137362500Y-60000000D03*
D21*
X107500000Y-76587500D03*
X107500000Y-78412500D03*
D22*
X114200000Y-73650000D03*
X116500000Y-73650000D03*
D23*
X116500000Y-67350000D03*
D22*
X118800000Y-73650000D03*
D24*
X138500000Y-69862500D03*
X138500000Y-68137500D03*
D25*
X126250000Y-67662500D03*
X126750000Y-67662500D03*
X127250000Y-67662500D03*
X127750000Y-67662500D03*
X128250000Y-67662500D03*
X128750000Y-67662500D03*
X129250000Y-67662500D03*
X129750000Y-67662500D03*
X130250000Y-67662500D03*
X130750000Y-67662500D03*
X131250000Y-67662500D03*
X131750000Y-67662500D03*
D26*
X133162500Y-66250000D03*
X133162500Y-65750000D03*
X133162500Y-65250000D03*
X133162500Y-64750000D03*
X133162500Y-64250000D03*
X133162500Y-63750000D03*
X133162500Y-63250000D03*
X133162500Y-62750000D03*
X133162500Y-62250000D03*
X133162500Y-61750000D03*
X133162500Y-61250000D03*
X133162500Y-60750000D03*
D25*
X131750000Y-59337500D03*
X131250000Y-59337500D03*
X130750000Y-59337500D03*
X130250000Y-59337500D03*
X129750000Y-59337500D03*
X129250000Y-59337500D03*
X128750000Y-59337500D03*
X128250000Y-59337500D03*
X127750000Y-59337500D03*
X127250000Y-59337500D03*
X126750000Y-59337500D03*
X126250000Y-59337500D03*
D26*
X124837500Y-60750000D03*
X124837500Y-61250000D03*
X124837500Y-61750000D03*
X124837500Y-62250000D03*
X124837500Y-62750000D03*
X124837500Y-63250000D03*
X124837500Y-63750000D03*
X124837500Y-64250000D03*
X124837500Y-64750000D03*
X124837500Y-65250000D03*
X124837500Y-65750000D03*
X124837500Y-66250000D03*
D27*
X111062500Y-74500000D03*
X107937500Y-74500000D03*
D28*
X106680000Y-64300000D03*
X106680000Y-65100000D03*
D29*
X106680000Y-66250000D03*
X106680000Y-67250000D03*
X106680000Y-67750000D03*
X106680000Y-68750000D03*
D28*
X106680000Y-69900000D03*
X106680000Y-70700000D03*
X106680000Y-70700000D03*
X106680000Y-69900000D03*
D29*
X106680000Y-69250000D03*
X106680000Y-68250000D03*
X106680000Y-66750000D03*
X106680000Y-65750000D03*
D28*
X106680000Y-65100000D03*
X106680000Y-64300000D03*
D30*
X106105000Y-63180000D03*
D31*
X101925000Y-63180000D03*
D30*
X106105000Y-71820000D03*
D31*
X101925000Y-71820000D03*
D20*
X136587500Y-57000000D03*
X138412500Y-57000000D03*
D14*
X133637500Y-68500000D03*
X135362500Y-68500000D03*
D32*
X136750000Y-75000000D03*
X128250000Y-75000000D03*
D15*
X121500000Y-68437500D03*
X121500000Y-71562500D03*
D17*
X121412500Y-60000000D03*
X119587500Y-60000000D03*
D11*
X130000000Y-56500000D03*
D33*
X109475000Y-70000000D03*
X111525000Y-70000000D03*
D34*
X117900000Y-60000000D03*
X116500000Y-60000000D03*
D35*
X129799265Y-68950735D03*
X106200000Y-73800000D03*
X129800000Y-66100000D03*
X127150000Y-61000000D03*
X120700000Y-64800000D03*
X135357100Y-62170237D03*
X127900000Y-56800000D03*
X138500000Y-60500000D03*
X121100000Y-73200000D03*
X132817100Y-74870237D03*
X117577100Y-69790237D03*
X125889352Y-64250000D03*
X109957100Y-62170237D03*
X116500000Y-61400000D03*
X109957100Y-72330237D03*
X115037100Y-62170237D03*
X104877100Y-67250237D03*
X112497100Y-57090237D03*
X137897100Y-72330237D03*
X109957100Y-77410237D03*
X137200000Y-67100000D03*
X130277100Y-72330237D03*
X115037100Y-69790237D03*
X132817100Y-77410237D03*
X102337100Y-74870237D03*
X110837500Y-64837500D03*
X112700000Y-72500000D03*
X109000000Y-78900000D03*
X104500000Y-60000000D03*
X113800000Y-76300000D03*
X122200000Y-69900000D03*
X132900000Y-59100000D03*
X123600000Y-58900000D03*
X137300000Y-68700000D03*
X126386678Y-60680739D03*
X117600000Y-71700000D03*
X125700000Y-57100000D03*
X127700000Y-66200000D03*
X127500000Y-69300000D03*
X108250000Y-69150000D03*
X108600000Y-71000000D03*
X126684313Y-66100000D03*
X123286863Y-76191962D03*
X127250000Y-65500000D03*
X123400000Y-75400000D03*
X121000000Y-61000000D03*
X123500000Y-62000000D03*
D36*
X130862500Y-78500000D02*
X135137500Y-78500000D01*
X104250000Y-70515000D02*
X104250000Y-67877337D01*
X121100000Y-71962500D02*
X121500000Y-71562500D01*
X106900000Y-74500000D02*
X106200000Y-73800000D01*
X127600000Y-56500000D02*
X127900000Y-56800000D01*
X105000000Y-60500000D02*
X104500000Y-60000000D01*
X138000000Y-60000000D02*
X138500000Y-60500000D01*
D37*
X127250000Y-60695532D02*
X127250000Y-61000000D01*
D36*
X106680000Y-70700000D02*
X106680000Y-71245000D01*
X106000000Y-60500000D02*
X105000000Y-60500000D01*
X122637500Y-73500000D02*
X121400000Y-73500000D01*
X121100000Y-73200000D02*
X121100000Y-71962500D01*
X109725000Y-66550000D02*
X110290184Y-66550000D01*
D37*
X129750000Y-67662500D02*
X129750000Y-69000000D01*
X129750000Y-69000000D02*
X129799265Y-68950735D01*
D36*
X110290184Y-66550000D02*
X110837500Y-66002684D01*
X110800000Y-64800000D02*
X110837500Y-64837500D01*
X114200000Y-73650000D02*
X113850000Y-73650000D01*
X137462500Y-67100000D02*
X137200000Y-67100000D01*
X138312500Y-67950000D02*
X138500000Y-68137500D01*
X107937500Y-74500000D02*
X106900000Y-74500000D01*
X105555000Y-71820000D02*
X104250000Y-70515000D01*
X110837500Y-66002684D02*
X110837500Y-64837500D01*
X121400000Y-73500000D02*
X121100000Y-73200000D01*
X107500000Y-78412500D02*
X108512500Y-78412500D01*
D37*
X129750000Y-66150000D02*
X129800000Y-66100000D01*
D36*
X106680000Y-71245000D02*
X106105000Y-71820000D01*
X121137500Y-65237500D02*
X120700000Y-64800000D01*
X135362500Y-68500000D02*
X135912500Y-67950000D01*
X138500000Y-68137500D02*
X137462500Y-67100000D01*
X137362500Y-60000000D02*
X138000000Y-60000000D01*
D37*
X127250000Y-61000000D02*
X127150000Y-61000000D01*
X129750000Y-67662500D02*
X129750000Y-66150000D01*
D36*
X108512500Y-78412500D02*
X109000000Y-78900000D01*
X106105000Y-71820000D02*
X105555000Y-71820000D01*
D37*
X125889352Y-65468058D02*
X125889352Y-64250000D01*
D36*
X104250000Y-67877337D02*
X104877100Y-67250237D01*
X124000000Y-71562500D02*
X121500000Y-71562500D01*
X135912500Y-67950000D02*
X138312500Y-67950000D01*
D37*
X125607410Y-65750000D02*
X125889352Y-65468058D01*
X124837500Y-65750000D02*
X125607410Y-65750000D01*
D36*
X121137500Y-66500000D02*
X121137500Y-65237500D01*
X126725000Y-56500000D02*
X127600000Y-56500000D01*
X113850000Y-73650000D02*
X112700000Y-72500000D01*
X116500000Y-60000000D02*
X116500000Y-61400000D01*
D37*
X124837500Y-64250000D02*
X125889352Y-64250000D01*
D36*
X137362500Y-58050000D02*
X138412500Y-57000000D01*
D37*
X126750000Y-59337500D02*
X126750000Y-60195532D01*
X126750000Y-60195532D02*
X127250000Y-60695532D01*
D36*
X137362500Y-60000000D02*
X137362500Y-58050000D01*
D37*
X130250000Y-67662500D02*
X130250000Y-68432410D01*
D36*
X116500000Y-73650000D02*
X116500000Y-67350000D01*
X138500000Y-70200000D02*
X138200000Y-70500000D01*
X117600000Y-71700000D02*
X117600000Y-72550000D01*
X138200000Y-70500000D02*
X135637500Y-70500000D01*
D37*
X133437500Y-68700000D02*
X133637500Y-68500000D01*
D36*
X124000000Y-68437500D02*
X125350000Y-68437500D01*
D37*
X130250000Y-68432410D02*
X130517590Y-68700000D01*
D36*
X134737500Y-59100000D02*
X135637500Y-60000000D01*
X125350000Y-68437500D02*
X126500000Y-69587500D01*
X122862500Y-66500000D02*
X124687500Y-66500000D01*
X112840000Y-77260000D02*
X113800000Y-76300000D01*
X125000000Y-56500000D02*
X125100000Y-56500000D01*
X122700000Y-69900000D02*
X122200000Y-69900000D01*
X137300000Y-68700000D02*
X137337500Y-68700000D01*
X123600000Y-58900000D02*
X123600000Y-57900000D01*
D37*
X126386678Y-60680739D02*
X126250000Y-60544061D01*
D36*
X123600000Y-57900000D02*
X125000000Y-56500000D01*
X132900000Y-59100000D02*
X134737500Y-59100000D01*
X112840000Y-78000000D02*
X112840000Y-77260000D01*
D37*
X133162500Y-60750000D02*
X134887500Y-60750000D01*
X130517590Y-68700000D02*
X133437500Y-68700000D01*
X126250000Y-60544061D02*
X126250000Y-59337500D01*
D36*
X124000000Y-68437500D02*
X121500000Y-68437500D01*
X124687500Y-66500000D02*
X124837500Y-66350000D01*
X124000000Y-68437500D02*
X124000000Y-68600000D01*
D37*
X134887500Y-60750000D02*
X135637500Y-60000000D01*
D36*
X135637500Y-70500000D02*
X133637500Y-68500000D01*
X117587500Y-68437500D02*
X116500000Y-67350000D01*
X137337500Y-68700000D02*
X138500000Y-69862500D01*
X117600000Y-72550000D02*
X116500000Y-73650000D01*
X124000000Y-68600000D02*
X122700000Y-69900000D01*
X138500000Y-69862500D02*
X138500000Y-70200000D01*
X121500000Y-68437500D02*
X117587500Y-68437500D01*
X124000000Y-68437500D02*
X124000000Y-67637500D01*
X125100000Y-56500000D02*
X125700000Y-57100000D01*
X124000000Y-67637500D02*
X122862500Y-66500000D01*
D37*
X126500000Y-71412500D02*
X126450000Y-71412500D01*
X126450000Y-71412500D02*
X124362500Y-73500000D01*
X124362500Y-76637500D02*
X123000000Y-78000000D01*
X129250000Y-67662500D02*
X129250000Y-66892590D01*
X127500000Y-70412500D02*
X126500000Y-71412500D01*
X127500000Y-69300000D02*
X127500000Y-70412500D01*
X129250000Y-66892590D02*
X128557410Y-66200000D01*
X124362500Y-73500000D02*
X124362500Y-76637500D01*
X128557410Y-66200000D02*
X127700000Y-66200000D01*
X136862500Y-78500000D02*
X136862500Y-75112500D01*
X132825000Y-71000000D02*
X132825000Y-71075000D01*
X136862500Y-75112500D02*
X136750000Y-75000000D01*
X132825000Y-71075000D02*
X136750000Y-75000000D01*
X128250000Y-75000000D02*
X128250000Y-77612500D01*
X128250000Y-77612500D02*
X129137500Y-78500000D01*
X128250000Y-67662500D02*
X128250000Y-75000000D01*
X129137500Y-75887500D02*
X128250000Y-75000000D01*
D36*
X111525000Y-70000000D02*
X111525000Y-74037500D01*
X111862500Y-75300000D02*
X117150000Y-75300000D01*
X117150000Y-75300000D02*
X118800000Y-73650000D01*
X111525000Y-74037500D02*
X111062500Y-74500000D01*
X111062500Y-74500000D02*
X111862500Y-75300000D01*
D37*
X130500000Y-57000000D02*
X130000000Y-56500000D01*
X130250000Y-56750000D02*
X130000000Y-56500000D01*
X130250000Y-59337500D02*
X130250000Y-56750000D01*
X133125000Y-57000000D02*
X130500000Y-57000000D01*
X134875000Y-57000000D02*
X136587500Y-57000000D01*
X117900000Y-57100000D02*
X118000000Y-57000000D01*
X117900000Y-60000000D02*
X117900000Y-57100000D01*
X119587500Y-60000000D02*
X117900000Y-60000000D01*
D38*
X115460000Y-57000000D02*
X113910000Y-58550000D01*
X104947500Y-57512500D02*
X105460000Y-57000000D01*
X107010000Y-58550000D02*
X105460000Y-57000000D01*
X113910000Y-58550000D02*
X107010000Y-58550000D01*
X102000000Y-57512500D02*
X104947500Y-57512500D01*
D36*
X107800000Y-72018503D02*
X107048503Y-72770000D01*
X107307684Y-65100000D02*
X107705000Y-64702684D01*
X110837500Y-67062500D02*
X111350000Y-66550000D01*
X109475000Y-70000000D02*
X109375000Y-69900000D01*
X106680000Y-69900000D02*
X107307684Y-69900000D01*
X107800000Y-70392316D02*
X107800000Y-72018503D01*
X106680000Y-65100000D02*
X107307684Y-65100000D01*
X103300000Y-70908503D02*
X103300000Y-61787500D01*
X111350000Y-66550000D02*
X112000000Y-66550000D01*
X107307684Y-69900000D02*
X107800000Y-70392316D01*
X107705000Y-62886497D02*
X106318503Y-61500000D01*
X106318503Y-61500000D02*
X103012500Y-61500000D01*
X105161497Y-72770000D02*
X103300000Y-70908503D01*
X103300000Y-61787500D02*
X102000000Y-60487500D01*
X110837500Y-68637500D02*
X110837500Y-67062500D01*
X109375000Y-69900000D02*
X106680000Y-69900000D01*
X109475000Y-70000000D02*
X110837500Y-68637500D01*
X103012500Y-61500000D02*
X102000000Y-60487500D01*
X107048503Y-72770000D02*
X105161497Y-72770000D01*
X107705000Y-64702684D02*
X107705000Y-62886497D01*
D37*
X107400000Y-67250000D02*
X109475000Y-67250000D01*
X106680000Y-67250000D02*
X107400000Y-67250000D01*
X109475000Y-67250000D02*
X109725000Y-67500000D01*
X107555000Y-67405000D02*
X107400000Y-67250000D01*
X107287410Y-68250000D02*
X107555000Y-67982410D01*
X107555000Y-67982410D02*
X107555000Y-67405000D01*
X106680000Y-68250000D02*
X107287410Y-68250000D01*
X108221948Y-66750000D02*
X109371948Y-65600000D01*
X109371948Y-65600000D02*
X109725000Y-65600000D01*
X106072590Y-66750000D02*
X105805000Y-67017590D01*
X106680000Y-66750000D02*
X108221948Y-66750000D01*
X106680000Y-66750000D02*
X106072590Y-66750000D01*
X106072590Y-67750000D02*
X106680000Y-67750000D01*
X105805000Y-67017590D02*
X105805000Y-67482410D01*
X105805000Y-67482410D02*
X106072590Y-67750000D01*
X108300000Y-69200000D02*
X108250000Y-69150000D01*
X108900000Y-71300000D02*
X108900000Y-75600000D01*
X107912500Y-76587500D02*
X107500000Y-76587500D01*
X106680000Y-69250000D02*
X108250000Y-69250000D01*
X108900000Y-75600000D02*
X107912500Y-76587500D01*
X108600000Y-71000000D02*
X108900000Y-71300000D01*
X108250000Y-69250000D02*
X108300000Y-69200000D01*
X108255000Y-65945000D02*
X107950000Y-66250000D01*
X107950000Y-66250000D02*
X106680000Y-66250000D01*
X108255000Y-60930000D02*
X108255000Y-65945000D01*
X107825000Y-60500000D02*
X108255000Y-60930000D01*
X126684313Y-66100000D02*
X126500000Y-65915687D01*
X126500000Y-65915687D02*
X126500000Y-61642590D01*
X119820000Y-76100000D02*
X123300000Y-76100000D01*
X117920000Y-78000000D02*
X119820000Y-76100000D01*
X126500000Y-61642590D02*
X125607410Y-60750000D01*
X125607410Y-60750000D02*
X124837500Y-60750000D01*
X123300000Y-76178825D02*
X123286863Y-76191962D01*
X123300000Y-76100000D02*
X123300000Y-76178825D01*
X119300000Y-75400000D02*
X123400000Y-75400000D01*
X118500000Y-76200000D02*
X119300000Y-75400000D01*
X117180000Y-76200000D02*
X118500000Y-76200000D01*
X127250000Y-65500000D02*
X127750000Y-65000000D01*
X127750000Y-65000000D02*
X127750000Y-60607410D01*
X127250000Y-60107410D02*
X127250000Y-59337500D01*
X115380000Y-78000000D02*
X117180000Y-76200000D01*
X127750000Y-60607410D02*
X127250000Y-60107410D01*
X128750000Y-68750000D02*
X131000000Y-71000000D01*
X128750000Y-67662500D02*
X128750000Y-68750000D01*
X122905090Y-64912500D02*
X122500000Y-64912500D01*
X124837500Y-63750000D02*
X124067590Y-63750000D01*
X124067590Y-63750000D02*
X122905090Y-64912500D01*
X114443751Y-66050000D02*
X118168200Y-66050000D01*
X112993751Y-67500000D02*
X114443751Y-66050000D01*
X122500000Y-63087500D02*
X122500000Y-63000000D01*
X112000000Y-67500000D02*
X112993751Y-67500000D01*
X127750000Y-58567590D02*
X127750000Y-59337500D01*
X125993200Y-58225000D02*
X127407410Y-58225000D01*
X121859100Y-62359100D02*
X125993200Y-58225000D01*
X118168200Y-66050000D02*
X121859100Y-62359100D01*
X127407410Y-58225000D02*
X127750000Y-58567590D01*
X122500000Y-63000000D02*
X121859100Y-62359100D01*
X124837500Y-62750000D02*
X124067590Y-62750000D01*
X124067590Y-62750000D02*
X123500000Y-62182410D01*
X123500000Y-62182410D02*
X123500000Y-62000000D01*
X121000000Y-61000000D02*
X121000000Y-60412500D01*
X121000000Y-60412500D02*
X121412500Y-60000000D01*
X112993771Y-65600020D02*
X117981780Y-65600020D01*
X117981780Y-65600020D02*
X125806800Y-57775000D01*
X112993751Y-65600000D02*
X112993771Y-65600020D01*
X112000000Y-65600000D02*
X112993751Y-65600000D01*
X128250000Y-58501904D02*
X128250000Y-59337500D01*
X127523096Y-57775000D02*
X128250000Y-58501904D01*
X125806800Y-57775000D02*
X127523096Y-57775000D01*
G04 #@! TA.AperFunction,Conductor*
G36*
X110695445Y-69513400D02*
G01*
X110738710Y-69556665D01*
X110749500Y-69601610D01*
X110749500Y-70504274D01*
X110752353Y-70534694D01*
X110752355Y-70534703D01*
X110797207Y-70662883D01*
X110877845Y-70772144D01*
X110877847Y-70772146D01*
X110877850Y-70772150D01*
X110877853Y-70772152D01*
X110877855Y-70772154D01*
X110987114Y-70852791D01*
X110987116Y-70852791D01*
X110987118Y-70852793D01*
X111008198Y-70860169D01*
X111056878Y-70897233D01*
X111074500Y-70953613D01*
X111074500Y-73300500D01*
X111055593Y-73358691D01*
X111006093Y-73394655D01*
X110975500Y-73399500D01*
X110595725Y-73399500D01*
X110565305Y-73402353D01*
X110565296Y-73402355D01*
X110437116Y-73447207D01*
X110327855Y-73527845D01*
X110327845Y-73527855D01*
X110247207Y-73637116D01*
X110202355Y-73765296D01*
X110202353Y-73765305D01*
X110199500Y-73795725D01*
X110199500Y-75204274D01*
X110202353Y-75234694D01*
X110202355Y-75234703D01*
X110247207Y-75362883D01*
X110327845Y-75472144D01*
X110327847Y-75472146D01*
X110327850Y-75472150D01*
X110327853Y-75472152D01*
X110327855Y-75472154D01*
X110437116Y-75552792D01*
X110437117Y-75552792D01*
X110437118Y-75552793D01*
X110565301Y-75597646D01*
X110595725Y-75600499D01*
X110595727Y-75600500D01*
X110595734Y-75600500D01*
X111484888Y-75600500D01*
X111543079Y-75619407D01*
X111554891Y-75629495D01*
X111585886Y-75660490D01*
X111688613Y-75719799D01*
X111712820Y-75726284D01*
X111712825Y-75726287D01*
X111712826Y-75726286D01*
X111803188Y-75750499D01*
X111803190Y-75750500D01*
X113397108Y-75750500D01*
X113455299Y-75769407D01*
X113491263Y-75818907D01*
X113491263Y-75880093D01*
X113471927Y-75914331D01*
X113374623Y-76026626D01*
X113330224Y-76123843D01*
X113310175Y-76152719D01*
X112542393Y-76920503D01*
X112487876Y-76948281D01*
X112472389Y-76949500D01*
X111970252Y-76949500D01*
X111970251Y-76949500D01*
X111970241Y-76949501D01*
X111911772Y-76961132D01*
X111911766Y-76961134D01*
X111845451Y-77005445D01*
X111845445Y-77005451D01*
X111801134Y-77071766D01*
X111801132Y-77071772D01*
X111789501Y-77130241D01*
X111789500Y-77130253D01*
X111789500Y-78869746D01*
X111789501Y-78869758D01*
X111801132Y-78928227D01*
X111801134Y-78928233D01*
X111833256Y-78976306D01*
X111845448Y-78994552D01*
X111911769Y-79038867D01*
X111956231Y-79047711D01*
X111970241Y-79050498D01*
X111970246Y-79050498D01*
X111970252Y-79050500D01*
X111970253Y-79050500D01*
X113709747Y-79050500D01*
X113709748Y-79050500D01*
X113768231Y-79038867D01*
X113834552Y-78994552D01*
X113878867Y-78928231D01*
X113890500Y-78869748D01*
X113890500Y-77130252D01*
X113888921Y-77122316D01*
X113883541Y-77095268D01*
X113878867Y-77071769D01*
X113860630Y-77044476D01*
X113838476Y-77011320D01*
X113821867Y-76952432D01*
X113843044Y-76895028D01*
X113850779Y-76886322D01*
X113945607Y-76791494D01*
X113987723Y-76766509D01*
X114010053Y-76759953D01*
X114131128Y-76682143D01*
X114225377Y-76573373D01*
X114285165Y-76442457D01*
X114296222Y-76365556D01*
X114305647Y-76300002D01*
X114305647Y-76299997D01*
X114285165Y-76157543D01*
X114272825Y-76130523D01*
X114225377Y-76026627D01*
X114167245Y-75959539D01*
X114128073Y-75914331D01*
X114104255Y-75857972D01*
X114118114Y-75798376D01*
X114164355Y-75758309D01*
X114202892Y-75750500D01*
X116988083Y-75750500D01*
X117046274Y-75769407D01*
X117082238Y-75818907D01*
X117082238Y-75880093D01*
X117046274Y-75929593D01*
X117037583Y-75935236D01*
X117019143Y-75945881D01*
X117019144Y-75945882D01*
X116995489Y-75959539D01*
X115931214Y-77023812D01*
X115876698Y-77051589D01*
X115816266Y-77042018D01*
X115814583Y-77041139D01*
X115783954Y-77024768D01*
X115585934Y-76964699D01*
X115585929Y-76964698D01*
X115380003Y-76944417D01*
X115379997Y-76944417D01*
X115174070Y-76964698D01*
X115174065Y-76964699D01*
X114976045Y-77024768D01*
X114793547Y-77122316D01*
X114633595Y-77253585D01*
X114633585Y-77253595D01*
X114502316Y-77413547D01*
X114404768Y-77596045D01*
X114344699Y-77794065D01*
X114344698Y-77794070D01*
X114324417Y-77999996D01*
X114324417Y-78000003D01*
X114344698Y-78205929D01*
X114344699Y-78205934D01*
X114404768Y-78403954D01*
X114502316Y-78586452D01*
X114605067Y-78711655D01*
X114633590Y-78746410D01*
X114633595Y-78746414D01*
X114793547Y-78877683D01*
X114793548Y-78877683D01*
X114793550Y-78877685D01*
X114976046Y-78975232D01*
X115113997Y-79017078D01*
X115174065Y-79035300D01*
X115174070Y-79035301D01*
X115379997Y-79055583D01*
X115380000Y-79055583D01*
X115380003Y-79055583D01*
X115585929Y-79035301D01*
X115585934Y-79035300D01*
X115783954Y-78975232D01*
X115966450Y-78877685D01*
X116126410Y-78746410D01*
X116257685Y-78586450D01*
X116355232Y-78403954D01*
X116415300Y-78205934D01*
X116415301Y-78205929D01*
X116435583Y-78000003D01*
X116435583Y-77999996D01*
X116415301Y-77794070D01*
X116415300Y-77794065D01*
X116366879Y-77634443D01*
X116355232Y-77596046D01*
X116346684Y-77580053D01*
X116338881Y-77565454D01*
X116328125Y-77505221D01*
X116354827Y-77450170D01*
X116356188Y-77448782D01*
X117275476Y-76529496D01*
X117329992Y-76501719D01*
X117345479Y-76500500D01*
X118539563Y-76500500D01*
X118539563Y-76500499D01*
X118615989Y-76480021D01*
X118684511Y-76440460D01*
X118740460Y-76384511D01*
X119395475Y-75729496D01*
X119449992Y-75701719D01*
X119465479Y-75700500D01*
X119555522Y-75700500D01*
X119613713Y-75719407D01*
X119649677Y-75768907D01*
X119649677Y-75830093D01*
X119625525Y-75869504D01*
X118471214Y-77023812D01*
X118416698Y-77051589D01*
X118356266Y-77042018D01*
X118354583Y-77041139D01*
X118323954Y-77024768D01*
X118125934Y-76964699D01*
X118125929Y-76964698D01*
X117920003Y-76944417D01*
X117919997Y-76944417D01*
X117714070Y-76964698D01*
X117714065Y-76964699D01*
X117516045Y-77024768D01*
X117333547Y-77122316D01*
X117173595Y-77253585D01*
X117173585Y-77253595D01*
X117042316Y-77413547D01*
X116944768Y-77596045D01*
X116884699Y-77794065D01*
X116884698Y-77794070D01*
X116864417Y-77999996D01*
X116864417Y-78000003D01*
X116884698Y-78205929D01*
X116884699Y-78205934D01*
X116944768Y-78403954D01*
X117042316Y-78586452D01*
X117145067Y-78711655D01*
X117173590Y-78746410D01*
X117173595Y-78746414D01*
X117333547Y-78877683D01*
X117333548Y-78877683D01*
X117333550Y-78877685D01*
X117516046Y-78975232D01*
X117653997Y-79017078D01*
X117714065Y-79035300D01*
X117714070Y-79035301D01*
X117919997Y-79055583D01*
X117920000Y-79055583D01*
X117920003Y-79055583D01*
X118125929Y-79035301D01*
X118125934Y-79035300D01*
X118323954Y-78975232D01*
X118506450Y-78877685D01*
X118666410Y-78746410D01*
X118797685Y-78586450D01*
X118895232Y-78403954D01*
X118940819Y-78253670D01*
X118975804Y-78203474D01*
X119033612Y-78183428D01*
X119092163Y-78201189D01*
X119129092Y-78249973D01*
X119131183Y-78256786D01*
X119186569Y-78463489D01*
X119286399Y-78677577D01*
X119421886Y-78871073D01*
X119588926Y-79038113D01*
X119782422Y-79173600D01*
X119996510Y-79273430D01*
X120113854Y-79304873D01*
X120165168Y-79338197D01*
X120187095Y-79395319D01*
X120171259Y-79454419D01*
X120123710Y-79492924D01*
X120088231Y-79499500D01*
X108134426Y-79499500D01*
X108076235Y-79480593D01*
X108040271Y-79431093D01*
X108040271Y-79369907D01*
X108076235Y-79320407D01*
X108082453Y-79316240D01*
X108198035Y-79244946D01*
X108319946Y-79123035D01*
X108410451Y-78976306D01*
X108464681Y-78812648D01*
X108475000Y-78711655D01*
X108475000Y-78662501D01*
X108474999Y-78662500D01*
X106525002Y-78662500D01*
X106525001Y-78662501D01*
X106525001Y-78711654D01*
X106535317Y-78812642D01*
X106535320Y-78812654D01*
X106589548Y-78976306D01*
X106680053Y-79123035D01*
X106801964Y-79244946D01*
X106917547Y-79316240D01*
X106957148Y-79362881D01*
X106961771Y-79423892D01*
X106929649Y-79475967D01*
X106873053Y-79499217D01*
X106865574Y-79499500D01*
X100599500Y-79499500D01*
X100541309Y-79480593D01*
X100505345Y-79431093D01*
X100500500Y-79400500D01*
X100500500Y-76904728D01*
X102789500Y-76904728D01*
X102789500Y-77095271D01*
X102819306Y-77283456D01*
X102878185Y-77464669D01*
X102964687Y-77634439D01*
X102964689Y-77634443D01*
X103076677Y-77788582D01*
X103076679Y-77788584D01*
X103076682Y-77788588D01*
X103211412Y-77923318D01*
X103211415Y-77923320D01*
X103211417Y-77923322D01*
X103365556Y-78035310D01*
X103365560Y-78035312D01*
X103535329Y-78121814D01*
X103716541Y-78180693D01*
X103791817Y-78192615D01*
X103904729Y-78210500D01*
X103904732Y-78210500D01*
X104095271Y-78210500D01*
X104205801Y-78192993D01*
X104283459Y-78180693D01*
X104464671Y-78121814D01*
X104634440Y-78035312D01*
X104666044Y-78012351D01*
X104685822Y-77997980D01*
X104788588Y-77923318D01*
X104923318Y-77788588D01*
X105035312Y-77634440D01*
X105121814Y-77464671D01*
X105180693Y-77283459D01*
X105201719Y-77150711D01*
X105210500Y-77095271D01*
X105210500Y-76904728D01*
X105186545Y-76753489D01*
X105180693Y-76716541D01*
X105121814Y-76535329D01*
X105035312Y-76365560D01*
X105035310Y-76365556D01*
X104923322Y-76211417D01*
X104923320Y-76211415D01*
X104923318Y-76211412D01*
X104788588Y-76076682D01*
X104788584Y-76076679D01*
X104788582Y-76076677D01*
X104634443Y-75964689D01*
X104634439Y-75964687D01*
X104464669Y-75878185D01*
X104283456Y-75819306D01*
X104095271Y-75789500D01*
X104095268Y-75789500D01*
X103904732Y-75789500D01*
X103904729Y-75789500D01*
X103716543Y-75819306D01*
X103535330Y-75878185D01*
X103365560Y-75964687D01*
X103365556Y-75964689D01*
X103211417Y-76076677D01*
X103076677Y-76211417D01*
X102964689Y-76365556D01*
X102964687Y-76365560D01*
X102878185Y-76535330D01*
X102819306Y-76716543D01*
X102789500Y-76904728D01*
X100500500Y-76904728D01*
X100500500Y-72413040D01*
X100519407Y-72354849D01*
X100568907Y-72318885D01*
X100630093Y-72318885D01*
X100679593Y-72354849D01*
X100681815Y-72358038D01*
X100748249Y-72457462D01*
X100748252Y-72457466D01*
X100887533Y-72596747D01*
X100887537Y-72596750D01*
X101051314Y-72706185D01*
X101051326Y-72706191D01*
X101233310Y-72781570D01*
X101426506Y-72819999D01*
X101426510Y-72820000D01*
X101674999Y-72820000D01*
X101675000Y-72819999D01*
X101675000Y-72120000D01*
X102175000Y-72120000D01*
X102175000Y-72819999D01*
X102175001Y-72820000D01*
X102423490Y-72820000D01*
X102423493Y-72819999D01*
X102616688Y-72781570D01*
X102616690Y-72781570D01*
X102798673Y-72706191D01*
X102798685Y-72706185D01*
X102962462Y-72596750D01*
X102962466Y-72596747D01*
X103101747Y-72457466D01*
X103101750Y-72457462D01*
X103211185Y-72293685D01*
X103211191Y-72293673D01*
X103286568Y-72111695D01*
X103286571Y-72111684D01*
X103294863Y-72070000D01*
X102491988Y-72070000D01*
X102509205Y-72060060D01*
X102565060Y-72004205D01*
X102604556Y-71935796D01*
X102625000Y-71859496D01*
X102625000Y-71780504D01*
X102604556Y-71704204D01*
X102565060Y-71635795D01*
X102509205Y-71579940D01*
X102491988Y-71570000D01*
X103283386Y-71570000D01*
X103341577Y-71588907D01*
X103353390Y-71598996D01*
X104884883Y-73130489D01*
X104944193Y-73164731D01*
X104987611Y-73189799D01*
X105102188Y-73220500D01*
X105102190Y-73220500D01*
X106855621Y-73220500D01*
X106913812Y-73239407D01*
X106949776Y-73288907D01*
X106949776Y-73350093D01*
X106935554Y-73376651D01*
X106935710Y-73376748D01*
X106934136Y-73379298D01*
X106933276Y-73380906D01*
X106932681Y-73381657D01*
X106840643Y-73530875D01*
X106785493Y-73697306D01*
X106775000Y-73800012D01*
X106775000Y-74249999D01*
X106775001Y-74250000D01*
X107687499Y-74250000D01*
X107687500Y-74249999D01*
X107687500Y-73100001D01*
X107687499Y-73100000D01*
X107594612Y-73100000D01*
X107536421Y-73081093D01*
X107500457Y-73031593D01*
X107500457Y-72970407D01*
X107524604Y-72931001D01*
X108160489Y-72295117D01*
X108219799Y-72192390D01*
X108236462Y-72130201D01*
X108250500Y-72077812D01*
X108250500Y-71550316D01*
X108269407Y-71492125D01*
X108318907Y-71456161D01*
X108380093Y-71456161D01*
X108389471Y-71459813D01*
X108389946Y-71459952D01*
X108389947Y-71459953D01*
X108528039Y-71500500D01*
X108528040Y-71500500D01*
X108528391Y-71500603D01*
X108578898Y-71535138D01*
X108599460Y-71592765D01*
X108599500Y-71595593D01*
X108599500Y-73010754D01*
X108580593Y-73068945D01*
X108531093Y-73104909D01*
X108490438Y-73109241D01*
X108399988Y-73100000D01*
X108187501Y-73100000D01*
X108187500Y-73100001D01*
X108187500Y-74651000D01*
X108168593Y-74709191D01*
X108119093Y-74745155D01*
X108088500Y-74750000D01*
X106775002Y-74750000D01*
X106775001Y-74750001D01*
X106775001Y-75199986D01*
X106785492Y-75302687D01*
X106785495Y-75302699D01*
X106840643Y-75469124D01*
X106932680Y-75618340D01*
X107056659Y-75742319D01*
X107089974Y-75762868D01*
X107129576Y-75809509D01*
X107134199Y-75870520D01*
X107102078Y-75922596D01*
X107070703Y-75940572D01*
X107055525Y-75945883D01*
X107055523Y-75945884D01*
X106949293Y-76024285D01*
X106949285Y-76024293D01*
X106870884Y-76130523D01*
X106827276Y-76255147D01*
X106827274Y-76255155D01*
X106824500Y-76284733D01*
X106824500Y-76890266D01*
X106827274Y-76919844D01*
X106827276Y-76919852D01*
X106870884Y-77044476D01*
X106934190Y-77130253D01*
X106949289Y-77150711D01*
X106949292Y-77150713D01*
X106949293Y-77150714D01*
X107055523Y-77229115D01*
X107055524Y-77229115D01*
X107055525Y-77229116D01*
X107099060Y-77244349D01*
X107111492Y-77248700D01*
X107160172Y-77285765D01*
X107177769Y-77344366D01*
X107157561Y-77402117D01*
X107109934Y-77436119D01*
X106948693Y-77489548D01*
X106801964Y-77580053D01*
X106680053Y-77701964D01*
X106589548Y-77848693D01*
X106535318Y-78012351D01*
X106525000Y-78113344D01*
X106525000Y-78162499D01*
X106525001Y-78162500D01*
X108474998Y-78162500D01*
X108474999Y-78162499D01*
X108474999Y-78113345D01*
X108464682Y-78012357D01*
X108464679Y-78012345D01*
X108410451Y-77848693D01*
X108319946Y-77701964D01*
X108198035Y-77580053D01*
X108051306Y-77489548D01*
X107890065Y-77436119D01*
X107840775Y-77399868D01*
X107822207Y-77341568D01*
X107841452Y-77283488D01*
X107888505Y-77248700D01*
X107944475Y-77229116D01*
X107949993Y-77225044D01*
X107987629Y-77197267D01*
X108050711Y-77150711D01*
X108129116Y-77044475D01*
X108172725Y-76919849D01*
X108175500Y-76890256D01*
X108175500Y-76790478D01*
X108194407Y-76732287D01*
X108204490Y-76720480D01*
X109140460Y-75784511D01*
X109147965Y-75771512D01*
X109149181Y-75769407D01*
X109164819Y-75742319D01*
X109180021Y-75715989D01*
X109200500Y-75639562D01*
X109200500Y-71260438D01*
X109180021Y-71184011D01*
X109140460Y-71115489D01*
X109140459Y-71115488D01*
X109130544Y-71105572D01*
X109102768Y-71051055D01*
X109102558Y-71021482D01*
X109105647Y-71000000D01*
X109105647Y-70999998D01*
X109105647Y-70999500D01*
X109105775Y-70999104D01*
X109106655Y-70992989D01*
X109107713Y-70993141D01*
X109124554Y-70941309D01*
X109174054Y-70905345D01*
X109204647Y-70900500D01*
X109854273Y-70900500D01*
X109854273Y-70900499D01*
X109884699Y-70897646D01*
X110012882Y-70852793D01*
X110122150Y-70772150D01*
X110202793Y-70662882D01*
X110247646Y-70534699D01*
X110250499Y-70504273D01*
X110250500Y-70504273D01*
X110250500Y-69902610D01*
X110269407Y-69844419D01*
X110279490Y-69832612D01*
X110580496Y-69531605D01*
X110635013Y-69503829D01*
X110695445Y-69513400D01*
G37*
G04 #@! TD.AperFunction*
G04 #@! TA.AperFunction,Conductor*
G36*
X124029942Y-75537401D02*
G01*
X124060028Y-75590678D01*
X124062000Y-75610338D01*
X124062000Y-76472020D01*
X124043093Y-76530211D01*
X124033003Y-76542024D01*
X123551214Y-77023812D01*
X123496698Y-77051589D01*
X123436266Y-77042018D01*
X123434583Y-77041139D01*
X123403954Y-77024768D01*
X123205934Y-76964699D01*
X123205929Y-76964698D01*
X123000003Y-76944417D01*
X122999997Y-76944417D01*
X122794070Y-76964698D01*
X122794065Y-76964699D01*
X122596045Y-77024768D01*
X122413547Y-77122316D01*
X122253595Y-77253585D01*
X122253585Y-77253595D01*
X122122316Y-77413547D01*
X122024771Y-77596040D01*
X122024768Y-77596046D01*
X122013121Y-77634443D01*
X121979180Y-77746329D01*
X121944195Y-77796525D01*
X121886386Y-77816571D01*
X121827836Y-77798810D01*
X121790907Y-77750025D01*
X121788816Y-77743213D01*
X121733429Y-77536504D01*
X121633605Y-77322432D01*
X121633601Y-77322424D01*
X121498113Y-77128926D01*
X121331073Y-76961886D01*
X121137577Y-76826399D01*
X120923489Y-76726569D01*
X120710000Y-76669364D01*
X120710000Y-77566988D01*
X120652993Y-77534075D01*
X120525826Y-77500000D01*
X120394174Y-77500000D01*
X120267007Y-77534075D01*
X120210000Y-77566988D01*
X120210000Y-76669364D01*
X119996510Y-76726569D01*
X119796888Y-76819654D01*
X119736159Y-76827110D01*
X119682645Y-76797447D01*
X119656787Y-76741994D01*
X119668462Y-76681933D01*
X119685046Y-76659925D01*
X119915476Y-76429496D01*
X119969992Y-76401719D01*
X119985479Y-76400500D01*
X122768253Y-76400500D01*
X122826444Y-76419407D01*
X122858305Y-76458371D01*
X122861484Y-76465332D01*
X122861485Y-76465333D01*
X122861486Y-76465335D01*
X122917701Y-76530211D01*
X122955736Y-76574106D01*
X123076805Y-76651912D01*
X123076810Y-76651915D01*
X123136237Y-76669364D01*
X123214898Y-76692461D01*
X123214899Y-76692461D01*
X123214902Y-76692462D01*
X123214904Y-76692462D01*
X123358822Y-76692462D01*
X123358824Y-76692462D01*
X123496916Y-76651915D01*
X123617991Y-76574105D01*
X123712240Y-76465335D01*
X123772028Y-76334419D01*
X123783425Y-76255151D01*
X123792510Y-76191964D01*
X123792510Y-76191959D01*
X123772028Y-76049505D01*
X123712241Y-75918591D01*
X123709050Y-75913626D01*
X123693495Y-75854451D01*
X123715693Y-75797434D01*
X123727510Y-75785276D01*
X123731117Y-75782149D01*
X123731128Y-75782143D01*
X123825377Y-75673373D01*
X123872947Y-75569211D01*
X123914319Y-75524134D01*
X123974286Y-75511983D01*
X124029942Y-75537401D01*
G37*
G04 #@! TD.AperFunction*
G04 #@! TA.AperFunction,Conductor*
G36*
X117119501Y-68606604D02*
G01*
X117310886Y-68797989D01*
X117310888Y-68797990D01*
X117310890Y-68797992D01*
X117413607Y-68857296D01*
X117413609Y-68857296D01*
X117413613Y-68857299D01*
X117434532Y-68862904D01*
X117434535Y-68862906D01*
X117434536Y-68862905D01*
X117528191Y-68888000D01*
X120315769Y-68888000D01*
X120373960Y-68906907D01*
X120409213Y-68954302D01*
X120447207Y-69062883D01*
X120527845Y-69172144D01*
X120527847Y-69172146D01*
X120527850Y-69172150D01*
X120527853Y-69172152D01*
X120527855Y-69172154D01*
X120637116Y-69252792D01*
X120637117Y-69252792D01*
X120637118Y-69252793D01*
X120765301Y-69297646D01*
X120795725Y-69300499D01*
X120795727Y-69300500D01*
X121869923Y-69300500D01*
X121928114Y-69319407D01*
X121964078Y-69368907D01*
X121964078Y-69430093D01*
X121928114Y-69479593D01*
X121923447Y-69482784D01*
X121868872Y-69517857D01*
X121774622Y-69626628D01*
X121714834Y-69757543D01*
X121694353Y-69899997D01*
X121694353Y-69900002D01*
X121714834Y-70042456D01*
X121767306Y-70157352D01*
X121774623Y-70173373D01*
X121829036Y-70236169D01*
X121852853Y-70292529D01*
X121838994Y-70352124D01*
X121792753Y-70392191D01*
X121754216Y-70400000D01*
X121750001Y-70400000D01*
X121750000Y-70400001D01*
X121750000Y-71312499D01*
X121750001Y-71312500D01*
X123749999Y-71312500D01*
X123750000Y-71312499D01*
X123750000Y-70400001D01*
X124250000Y-70400001D01*
X124250000Y-71312499D01*
X124250001Y-71312500D01*
X125399998Y-71312500D01*
X125399999Y-71312499D01*
X125399999Y-71100013D01*
X125389507Y-70997312D01*
X125389504Y-70997300D01*
X125334356Y-70830875D01*
X125242319Y-70681659D01*
X125118340Y-70557680D01*
X124969124Y-70465643D01*
X124802693Y-70410493D01*
X124699987Y-70400000D01*
X124250001Y-70400000D01*
X124250000Y-70400001D01*
X123750000Y-70400001D01*
X123749999Y-70400000D01*
X123300013Y-70400000D01*
X123197312Y-70410492D01*
X123197300Y-70410495D01*
X123030875Y-70465643D01*
X122881659Y-70557680D01*
X122820004Y-70619336D01*
X122765487Y-70647113D01*
X122705055Y-70637542D01*
X122679996Y-70619336D01*
X122618342Y-70557682D01*
X122579560Y-70533761D01*
X122539959Y-70487119D01*
X122535336Y-70426109D01*
X122567457Y-70374033D01*
X122624053Y-70350783D01*
X122631533Y-70350500D01*
X122759307Y-70350500D01*
X122759309Y-70350500D01*
X122856342Y-70324500D01*
X122873887Y-70319799D01*
X122873889Y-70319797D01*
X122873891Y-70319797D01*
X122976609Y-70260492D01*
X122976609Y-70260491D01*
X122976614Y-70260489D01*
X123751315Y-69485789D01*
X123907609Y-69329496D01*
X123962125Y-69301719D01*
X123977612Y-69300500D01*
X124704273Y-69300500D01*
X124704273Y-69300499D01*
X124734699Y-69297646D01*
X124862882Y-69252793D01*
X124972150Y-69172150D01*
X125025912Y-69099304D01*
X125052791Y-69062885D01*
X125052792Y-69062883D01*
X125052793Y-69062882D01*
X125074757Y-69000110D01*
X125111820Y-68951433D01*
X125170420Y-68933836D01*
X125228172Y-68954043D01*
X125238204Y-68962807D01*
X125795504Y-69520107D01*
X125823281Y-69574624D01*
X125824500Y-69590111D01*
X125824500Y-69890266D01*
X125827274Y-69919844D01*
X125827276Y-69919852D01*
X125870884Y-70044476D01*
X125939915Y-70138010D01*
X125949289Y-70150711D01*
X125949292Y-70150713D01*
X125949293Y-70150714D01*
X126055523Y-70229115D01*
X126055524Y-70229115D01*
X126055525Y-70229116D01*
X126180151Y-70272725D01*
X126207441Y-70275284D01*
X126209733Y-70275499D01*
X126209738Y-70275500D01*
X126209744Y-70275500D01*
X126790262Y-70275500D01*
X126790265Y-70275499D01*
X126819849Y-70272725D01*
X126944475Y-70229116D01*
X127041713Y-70157351D01*
X127099759Y-70138010D01*
X127158090Y-70156481D01*
X127194423Y-70205711D01*
X127199500Y-70237007D01*
X127199500Y-70247021D01*
X127180593Y-70305212D01*
X127170504Y-70317025D01*
X126792025Y-70695504D01*
X126737508Y-70723281D01*
X126722021Y-70724500D01*
X126209733Y-70724500D01*
X126180155Y-70727274D01*
X126180147Y-70727276D01*
X126055523Y-70770884D01*
X125949293Y-70849285D01*
X125949285Y-70849293D01*
X125870884Y-70955523D01*
X125827276Y-71080147D01*
X125827274Y-71080155D01*
X125824500Y-71109733D01*
X125824500Y-71572021D01*
X125805593Y-71630212D01*
X125795504Y-71642025D01*
X125569004Y-71868525D01*
X125514487Y-71896302D01*
X125454055Y-71886731D01*
X125410790Y-71843466D01*
X125404416Y-71816917D01*
X125399999Y-71812500D01*
X121750001Y-71812500D01*
X121750000Y-71812501D01*
X121750000Y-72747008D01*
X121754913Y-72756651D01*
X121745342Y-72817083D01*
X121741393Y-72824111D01*
X121664547Y-72948696D01*
X121610318Y-73112351D01*
X121600000Y-73213344D01*
X121600000Y-73249999D01*
X121600001Y-73250000D01*
X122788500Y-73250000D01*
X122846691Y-73268907D01*
X122882655Y-73318407D01*
X122887500Y-73349000D01*
X122887500Y-74474998D01*
X122887501Y-74474999D01*
X122986654Y-74474999D01*
X123087642Y-74464682D01*
X123087654Y-74464679D01*
X123251306Y-74410451D01*
X123398035Y-74319946D01*
X123519943Y-74198038D01*
X123597913Y-74071630D01*
X123644554Y-74032029D01*
X123705565Y-74027406D01*
X123742112Y-74047942D01*
X123743320Y-74046306D01*
X123855523Y-74129115D01*
X123855524Y-74129115D01*
X123855525Y-74129116D01*
X123908974Y-74147819D01*
X123980147Y-74172724D01*
X123980150Y-74172724D01*
X123980151Y-74172725D01*
X123980152Y-74172725D01*
X123984118Y-74173591D01*
X124036936Y-74204475D01*
X124061513Y-74260508D01*
X124062000Y-74270312D01*
X124062000Y-75189661D01*
X124043093Y-75247852D01*
X123993593Y-75283816D01*
X123932407Y-75283816D01*
X123882907Y-75247852D01*
X123872947Y-75230788D01*
X123825377Y-75126628D01*
X123825377Y-75126627D01*
X123731128Y-75017857D01*
X123731127Y-75017856D01*
X123731126Y-75017855D01*
X123610057Y-74940049D01*
X123610054Y-74940047D01*
X123610053Y-74940047D01*
X123610050Y-74940046D01*
X123471964Y-74899500D01*
X123471961Y-74899500D01*
X123328039Y-74899500D01*
X123328035Y-74899500D01*
X123189949Y-74940046D01*
X123189942Y-74940049D01*
X123068876Y-75017854D01*
X123068871Y-75017858D01*
X123027736Y-75065331D01*
X122975340Y-75096927D01*
X122952917Y-75099500D01*
X119260435Y-75099500D01*
X119184011Y-75119978D01*
X119184007Y-75119980D01*
X119115491Y-75159538D01*
X118404525Y-75870504D01*
X118350008Y-75898281D01*
X118334521Y-75899500D01*
X117382108Y-75899500D01*
X117323917Y-75880593D01*
X117287953Y-75831093D01*
X117287953Y-75769907D01*
X117323917Y-75720407D01*
X117332595Y-75714770D01*
X117426614Y-75660489D01*
X118219611Y-74867490D01*
X118274126Y-74839715D01*
X118302534Y-74839343D01*
X118387280Y-74850500D01*
X118387281Y-74850500D01*
X119212719Y-74850500D01*
X119212720Y-74850500D01*
X119325236Y-74835687D01*
X119465233Y-74777698D01*
X119585451Y-74685451D01*
X119677698Y-74565233D01*
X119735687Y-74425236D01*
X119750500Y-74312720D01*
X119750500Y-73750001D01*
X121600001Y-73750001D01*
X121600001Y-73786654D01*
X121610317Y-73887642D01*
X121610320Y-73887654D01*
X121664548Y-74051306D01*
X121755053Y-74198035D01*
X121876964Y-74319946D01*
X122023693Y-74410451D01*
X122187351Y-74464681D01*
X122288345Y-74474999D01*
X122387500Y-74474999D01*
X122387500Y-73750001D01*
X122387499Y-73750000D01*
X121600002Y-73750000D01*
X121600001Y-73750001D01*
X119750500Y-73750001D01*
X119750500Y-72987280D01*
X119735687Y-72874764D01*
X119677698Y-72734767D01*
X119585451Y-72614549D01*
X119465233Y-72522302D01*
X119325236Y-72464313D01*
X119325234Y-72464312D01*
X119325232Y-72464312D01*
X119212720Y-72449500D01*
X118387280Y-72449500D01*
X118387279Y-72449500D01*
X118274767Y-72464312D01*
X118274759Y-72464314D01*
X118187385Y-72500506D01*
X118126389Y-72505307D01*
X118074220Y-72473337D01*
X118050805Y-72416809D01*
X118050500Y-72409042D01*
X118050500Y-71939897D01*
X118059446Y-71898771D01*
X118085165Y-71842457D01*
X118085165Y-71842455D01*
X118085166Y-71842454D01*
X118089472Y-71812501D01*
X120100001Y-71812501D01*
X120100001Y-72024986D01*
X120110492Y-72127687D01*
X120110495Y-72127699D01*
X120165643Y-72294124D01*
X120257680Y-72443340D01*
X120381659Y-72567319D01*
X120530875Y-72659356D01*
X120697306Y-72714506D01*
X120800012Y-72724999D01*
X121249998Y-72724999D01*
X121250000Y-72724998D01*
X121250000Y-71812501D01*
X121249999Y-71812500D01*
X120100002Y-71812500D01*
X120100001Y-71812501D01*
X118089472Y-71812501D01*
X118105647Y-71700002D01*
X118105647Y-71699997D01*
X118085165Y-71557543D01*
X118082045Y-71550711D01*
X118025377Y-71426627D01*
X117931128Y-71317857D01*
X117931127Y-71317856D01*
X117931126Y-71317855D01*
X117810057Y-71240049D01*
X117810054Y-71240047D01*
X117810053Y-71240047D01*
X117778714Y-71230845D01*
X117671964Y-71199500D01*
X117671961Y-71199500D01*
X117528039Y-71199500D01*
X117528035Y-71199500D01*
X117389949Y-71240046D01*
X117389942Y-71240049D01*
X117268873Y-71317855D01*
X117174622Y-71426628D01*
X117139553Y-71503418D01*
X117098181Y-71548495D01*
X117038214Y-71560646D01*
X116982558Y-71535228D01*
X116952472Y-71481951D01*
X116950500Y-71462291D01*
X116950500Y-71100012D01*
X120100000Y-71100012D01*
X120100000Y-71312499D01*
X120100001Y-71312500D01*
X121249999Y-71312500D01*
X121250000Y-71312499D01*
X121250000Y-70400001D01*
X121249999Y-70400000D01*
X120800013Y-70400000D01*
X120697312Y-70410492D01*
X120697300Y-70410495D01*
X120530875Y-70465643D01*
X120381659Y-70557680D01*
X120257680Y-70681659D01*
X120165643Y-70830875D01*
X120110493Y-70997306D01*
X120100000Y-71100012D01*
X116950500Y-71100012D01*
X116950500Y-68676610D01*
X116969407Y-68618419D01*
X117018907Y-68582455D01*
X117080093Y-68582455D01*
X117119501Y-68606604D01*
G37*
G04 #@! TD.AperFunction*
G04 #@! TA.AperFunction,Conductor*
G36*
X114348509Y-66666955D02*
G01*
X114391774Y-66710220D01*
X114402158Y-66764122D01*
X114399500Y-66793372D01*
X114399500Y-67906620D01*
X114405913Y-67977194D01*
X114456521Y-68139605D01*
X114456522Y-68139607D01*
X114481481Y-68180893D01*
X114544528Y-68285185D01*
X114664815Y-68405472D01*
X114730204Y-68445001D01*
X114806382Y-68491053D01*
X114810394Y-68493478D01*
X114972804Y-68544086D01*
X115043384Y-68550500D01*
X115950500Y-68550500D01*
X116008691Y-68569407D01*
X116044655Y-68618907D01*
X116049500Y-68649500D01*
X116049500Y-72368322D01*
X116030593Y-72426513D01*
X115981093Y-72462477D01*
X115976127Y-72463948D01*
X115974763Y-72464313D01*
X115834768Y-72522301D01*
X115714551Y-72614547D01*
X115714547Y-72614551D01*
X115622301Y-72734767D01*
X115601200Y-72785710D01*
X115561462Y-72832235D01*
X115501967Y-72846518D01*
X115445440Y-72823102D01*
X115413662Y-72771715D01*
X115401169Y-72721478D01*
X115316608Y-72550976D01*
X115316606Y-72550973D01*
X115197368Y-72402635D01*
X115197364Y-72402631D01*
X115049026Y-72283393D01*
X115049023Y-72283391D01*
X114878522Y-72198831D01*
X114693821Y-72152897D01*
X114651115Y-72150000D01*
X114450001Y-72150000D01*
X114450000Y-72150001D01*
X114450000Y-73801000D01*
X114431093Y-73859191D01*
X114381593Y-73895155D01*
X114351000Y-73900000D01*
X112950001Y-73900000D01*
X112950000Y-73900001D01*
X112950000Y-74351115D01*
X112952897Y-74393821D01*
X112952896Y-74393821D01*
X112998830Y-74578520D01*
X113062309Y-74706514D01*
X113071225Y-74767046D01*
X113042858Y-74821258D01*
X112988043Y-74848443D01*
X112973617Y-74849500D01*
X112090112Y-74849500D01*
X112031921Y-74830593D01*
X112020108Y-74820504D01*
X111954496Y-74754892D01*
X111926719Y-74700375D01*
X111925500Y-74684888D01*
X111925500Y-74271340D01*
X111938763Y-74221840D01*
X111944799Y-74211387D01*
X111955158Y-74172725D01*
X111975500Y-74096809D01*
X111975500Y-72948884D01*
X112950000Y-72948884D01*
X112950000Y-73399999D01*
X112950001Y-73400000D01*
X113949999Y-73400000D01*
X113950000Y-73399999D01*
X113950000Y-72150001D01*
X113949999Y-72150000D01*
X113748884Y-72150000D01*
X113706178Y-72152897D01*
X113521477Y-72198831D01*
X113350976Y-72283391D01*
X113350973Y-72283393D01*
X113202635Y-72402631D01*
X113202631Y-72402635D01*
X113083393Y-72550973D01*
X113083391Y-72550976D01*
X112998831Y-72721477D01*
X112952897Y-72906178D01*
X112950000Y-72948884D01*
X111975500Y-72948884D01*
X111975500Y-70953613D01*
X111994407Y-70895422D01*
X112041800Y-70860169D01*
X112062882Y-70852793D01*
X112065312Y-70851000D01*
X112163551Y-70778496D01*
X112172150Y-70772150D01*
X112252793Y-70662882D01*
X112297646Y-70534699D01*
X112300499Y-70504273D01*
X112300500Y-70504273D01*
X112300500Y-69495727D01*
X112300499Y-69495725D01*
X112299567Y-69485789D01*
X112297646Y-69465301D01*
X112252793Y-69337118D01*
X112226667Y-69301719D01*
X112172154Y-69227855D01*
X112172152Y-69227853D01*
X112172150Y-69227850D01*
X112172146Y-69227847D01*
X112172144Y-69227845D01*
X112062883Y-69147207D01*
X111934703Y-69102355D01*
X111934694Y-69102353D01*
X111904274Y-69099500D01*
X111904266Y-69099500D01*
X111251610Y-69099500D01*
X111193419Y-69080593D01*
X111157455Y-69031093D01*
X111157455Y-68969907D01*
X111181604Y-68930498D01*
X111197989Y-68914114D01*
X111206427Y-68899500D01*
X111234717Y-68850500D01*
X111257299Y-68811387D01*
X111267347Y-68773886D01*
X111288000Y-68696809D01*
X111288000Y-68090748D01*
X111306907Y-68032557D01*
X111356407Y-67996593D01*
X111401270Y-67992782D01*
X111454240Y-68000500D01*
X111454244Y-68000500D01*
X112545757Y-68000500D01*
X112545760Y-68000500D01*
X112613893Y-67990573D01*
X112718983Y-67939198D01*
X112801698Y-67856483D01*
X112801923Y-67856021D01*
X112802319Y-67855612D01*
X112806465Y-67849806D01*
X112807335Y-67850427D01*
X112844465Y-67812047D01*
X112890865Y-67800500D01*
X113033314Y-67800500D01*
X113033314Y-67800499D01*
X113109740Y-67780021D01*
X113178262Y-67740460D01*
X113234211Y-67684511D01*
X114233562Y-66685159D01*
X114288077Y-66657384D01*
X114348509Y-66666955D01*
G37*
G04 #@! TD.AperFunction*
G04 #@! TA.AperFunction,Conductor*
G36*
X102175000Y-64179999D02*
G01*
X102175001Y-64180000D01*
X102423490Y-64180000D01*
X102423493Y-64179999D01*
X102616687Y-64141571D01*
X102712614Y-64101837D01*
X102773611Y-64097036D01*
X102825780Y-64129006D01*
X102849195Y-64185533D01*
X102849500Y-64193301D01*
X102849500Y-70806698D01*
X102830593Y-70864889D01*
X102781093Y-70900853D01*
X102719907Y-70900853D01*
X102712615Y-70898162D01*
X102616689Y-70858429D01*
X102423493Y-70820000D01*
X102175001Y-70820000D01*
X102175000Y-70820001D01*
X102175000Y-71520000D01*
X101675000Y-71520000D01*
X101675000Y-70820001D01*
X101674999Y-70820000D01*
X101426506Y-70820000D01*
X101233311Y-70858429D01*
X101233309Y-70858429D01*
X101051326Y-70933808D01*
X101051314Y-70933814D01*
X100887537Y-71043249D01*
X100887533Y-71043252D01*
X100748248Y-71182537D01*
X100681815Y-71281961D01*
X100633765Y-71319840D01*
X100572626Y-71322242D01*
X100521753Y-71288248D01*
X100500576Y-71230845D01*
X100500500Y-71226959D01*
X100500500Y-63773040D01*
X100519407Y-63714849D01*
X100568907Y-63678885D01*
X100630093Y-63678885D01*
X100679593Y-63714849D01*
X100681815Y-63718038D01*
X100748249Y-63817462D01*
X100748252Y-63817466D01*
X100887533Y-63956747D01*
X100887537Y-63956750D01*
X101051314Y-64066185D01*
X101051326Y-64066191D01*
X101233310Y-64141570D01*
X101426506Y-64179999D01*
X101426510Y-64180000D01*
X101674999Y-64180000D01*
X101675000Y-64179999D01*
X101675000Y-63480000D01*
X102175000Y-63480000D01*
X102175000Y-64179999D01*
G37*
G04 #@! TD.AperFunction*
G04 #@! TA.AperFunction,Conductor*
G36*
X106149083Y-61969407D02*
G01*
X106160896Y-61979496D01*
X106326004Y-62144604D01*
X106353781Y-62199121D01*
X106355000Y-62214608D01*
X106355000Y-62880000D01*
X105855000Y-62880000D01*
X105855000Y-62180001D01*
X105854999Y-62180000D01*
X105456506Y-62180000D01*
X105263311Y-62218429D01*
X105263309Y-62218429D01*
X105081326Y-62293808D01*
X105081314Y-62293814D01*
X104917537Y-62403249D01*
X104917533Y-62403252D01*
X104778252Y-62542533D01*
X104778249Y-62542537D01*
X104668814Y-62706314D01*
X104668808Y-62706326D01*
X104593431Y-62888304D01*
X104593428Y-62888315D01*
X104585137Y-62930000D01*
X105388012Y-62930000D01*
X105370795Y-62939940D01*
X105314940Y-62995795D01*
X105275444Y-63064204D01*
X105255000Y-63140504D01*
X105255000Y-63219496D01*
X105275444Y-63295796D01*
X105314940Y-63364205D01*
X105370795Y-63420060D01*
X105388012Y-63430000D01*
X104585137Y-63430000D01*
X104593428Y-63471684D01*
X104593431Y-63471695D01*
X104668808Y-63653673D01*
X104668814Y-63653685D01*
X104778249Y-63817462D01*
X104778252Y-63817466D01*
X104917533Y-63956747D01*
X104917537Y-63956750D01*
X105081314Y-64066185D01*
X105081326Y-64066191D01*
X105213765Y-64121048D01*
X105260291Y-64160784D01*
X105274575Y-64220279D01*
X105251161Y-64276807D01*
X105245885Y-64282515D01*
X105216500Y-64311900D01*
X105152587Y-64422599D01*
X105149935Y-64432498D01*
X105119500Y-64546083D01*
X105119500Y-64673917D01*
X105120859Y-64678988D01*
X105152587Y-64797400D01*
X105216500Y-64908099D01*
X105216502Y-64908101D01*
X105216504Y-64908104D01*
X105306896Y-64998496D01*
X105306898Y-64998497D01*
X105306900Y-64998499D01*
X105417600Y-65062412D01*
X105417598Y-65062412D01*
X105417602Y-65062413D01*
X105417604Y-65062414D01*
X105541083Y-65095500D01*
X105541085Y-65095500D01*
X105668916Y-65095500D01*
X105668917Y-65095500D01*
X105779878Y-65065768D01*
X105840978Y-65068969D01*
X105888528Y-65107474D01*
X105904500Y-65161394D01*
X105904500Y-65283260D01*
X105906869Y-65299520D01*
X105914427Y-65351395D01*
X105952994Y-65430285D01*
X105961565Y-65490867D01*
X105946369Y-65528766D01*
X105920486Y-65567502D01*
X105920486Y-65567503D01*
X105920485Y-65567505D01*
X105910824Y-65616073D01*
X105904500Y-65647867D01*
X105904500Y-65852129D01*
X105904501Y-65852137D01*
X105920484Y-65932494D01*
X105920486Y-65932498D01*
X105928840Y-65945001D01*
X105945447Y-66003889D01*
X105928840Y-66054999D01*
X105920485Y-66067503D01*
X105920484Y-66067504D01*
X105904500Y-66147864D01*
X105904500Y-66352129D01*
X105904501Y-66352139D01*
X105917567Y-66417830D01*
X105910374Y-66478591D01*
X105890473Y-66507146D01*
X105620489Y-66777130D01*
X105620488Y-66777129D01*
X105564539Y-66833079D01*
X105524980Y-66901597D01*
X105524978Y-66901601D01*
X105504500Y-66978025D01*
X105504500Y-67521974D01*
X105524977Y-67598395D01*
X105524979Y-67598400D01*
X105545539Y-67634011D01*
X105564540Y-67666921D01*
X105832129Y-67934511D01*
X105890472Y-67992853D01*
X105918250Y-68047369D01*
X105917567Y-68082170D01*
X105904500Y-68147862D01*
X105904500Y-68352129D01*
X105904501Y-68352137D01*
X105920484Y-68432494D01*
X105920486Y-68432498D01*
X105928840Y-68445001D01*
X105945447Y-68503889D01*
X105928840Y-68554999D01*
X105920485Y-68567503D01*
X105920484Y-68567504D01*
X105904500Y-68647864D01*
X105904500Y-68852129D01*
X105904501Y-68852137D01*
X105920484Y-68932494D01*
X105920486Y-68932498D01*
X105928840Y-68945001D01*
X105945447Y-69003889D01*
X105928840Y-69054999D01*
X105920485Y-69067503D01*
X105920484Y-69067504D01*
X105904500Y-69147864D01*
X105904500Y-69352129D01*
X105904501Y-69352137D01*
X105920484Y-69432494D01*
X105920485Y-69432496D01*
X105946368Y-69471232D01*
X105962977Y-69530120D01*
X105952994Y-69569714D01*
X105914427Y-69648604D01*
X105904500Y-69716743D01*
X105904500Y-69838605D01*
X105885593Y-69896796D01*
X105836093Y-69932760D01*
X105779878Y-69934231D01*
X105668917Y-69904500D01*
X105541083Y-69904500D01*
X105465510Y-69924749D01*
X105417599Y-69937587D01*
X105306900Y-70001500D01*
X105216500Y-70091900D01*
X105152587Y-70202599D01*
X105137076Y-70260488D01*
X105119500Y-70326083D01*
X105119500Y-70453917D01*
X105146348Y-70554115D01*
X105152587Y-70577400D01*
X105216500Y-70688099D01*
X105216502Y-70688101D01*
X105216504Y-70688104D01*
X105245885Y-70717485D01*
X105273661Y-70772000D01*
X105264090Y-70832432D01*
X105220825Y-70875697D01*
X105213766Y-70878951D01*
X105081323Y-70933810D01*
X105081314Y-70933814D01*
X104917537Y-71043249D01*
X104917533Y-71043252D01*
X104778252Y-71182533D01*
X104778249Y-71182537D01*
X104668814Y-71346314D01*
X104668808Y-71346326D01*
X104639433Y-71417246D01*
X104599697Y-71463772D01*
X104540202Y-71478056D01*
X104483674Y-71454641D01*
X104477965Y-71449365D01*
X103779496Y-70750896D01*
X103751719Y-70696379D01*
X103750500Y-70680892D01*
X103750500Y-62049500D01*
X103769407Y-61991309D01*
X103818907Y-61955345D01*
X103849500Y-61950500D01*
X106090892Y-61950500D01*
X106149083Y-61969407D01*
G37*
G04 #@! TD.AperFunction*
G04 #@! TA.AperFunction,Conductor*
G36*
X106889191Y-70419407D02*
G01*
X106925155Y-70468907D01*
X106930000Y-70499500D01*
X106930000Y-70851000D01*
X106911093Y-70909191D01*
X106861593Y-70945155D01*
X106831000Y-70950000D01*
X105970607Y-70950000D01*
X105912416Y-70931093D01*
X105876452Y-70881593D01*
X105876452Y-70820407D01*
X105900603Y-70780996D01*
X105903101Y-70778497D01*
X105903104Y-70778496D01*
X105993496Y-70688104D01*
X106008058Y-70662882D01*
X106057412Y-70577400D01*
X106057412Y-70577398D01*
X106057414Y-70577396D01*
X106071888Y-70523376D01*
X106105212Y-70472062D01*
X106162334Y-70450136D01*
X106167515Y-70450000D01*
X106429999Y-70450000D01*
X106450503Y-70429496D01*
X106505020Y-70401719D01*
X106520507Y-70400500D01*
X106831000Y-70400500D01*
X106889191Y-70419407D01*
G37*
G04 #@! TD.AperFunction*
G04 #@! TA.AperFunction,Conductor*
G36*
X139458691Y-55519407D02*
G01*
X139494655Y-55568907D01*
X139499500Y-55599500D01*
X139499500Y-56365574D01*
X139480593Y-56423765D01*
X139431093Y-56459729D01*
X139369907Y-56459729D01*
X139320407Y-56423765D01*
X139316240Y-56417547D01*
X139244946Y-56301964D01*
X139123035Y-56180053D01*
X138976306Y-56089548D01*
X138812648Y-56035318D01*
X138711655Y-56025000D01*
X138662501Y-56025000D01*
X138662500Y-56025001D01*
X138662500Y-57974998D01*
X138662501Y-57974999D01*
X138711654Y-57974999D01*
X138812642Y-57964682D01*
X138812654Y-57964679D01*
X138976306Y-57910451D01*
X139123035Y-57819946D01*
X139244945Y-57698036D01*
X139316240Y-57582452D01*
X139362881Y-57542851D01*
X139423891Y-57538228D01*
X139475967Y-57570349D01*
X139499217Y-57626945D01*
X139499500Y-57634425D01*
X139499500Y-67319224D01*
X139480593Y-67377415D01*
X139431093Y-67413379D01*
X139369907Y-67413379D01*
X139322842Y-67380626D01*
X139319948Y-67376966D01*
X139198035Y-67255053D01*
X139051306Y-67164548D01*
X138887648Y-67110318D01*
X138786655Y-67100000D01*
X138750001Y-67100000D01*
X138750000Y-67100001D01*
X138750000Y-68288500D01*
X138731093Y-68346691D01*
X138681593Y-68382655D01*
X138651000Y-68387500D01*
X137736685Y-68387500D01*
X137678494Y-68368593D01*
X137661866Y-68353331D01*
X137631128Y-68317857D01*
X137580286Y-68285183D01*
X137510057Y-68240049D01*
X137510054Y-68240047D01*
X137510053Y-68240047D01*
X137510050Y-68240046D01*
X137371964Y-68199500D01*
X137371961Y-68199500D01*
X137228039Y-68199500D01*
X137228035Y-68199500D01*
X137089949Y-68240046D01*
X137089942Y-68240049D01*
X136968873Y-68317855D01*
X136874622Y-68426628D01*
X136814834Y-68557543D01*
X136794353Y-68699997D01*
X136794353Y-68700002D01*
X136814834Y-68842456D01*
X136872720Y-68969207D01*
X136874623Y-68973373D01*
X136956188Y-69067505D01*
X136968873Y-69082144D01*
X137089942Y-69159950D01*
X137089947Y-69159953D01*
X137165367Y-69182097D01*
X137207480Y-69207083D01*
X137795504Y-69795107D01*
X137823281Y-69849624D01*
X137824500Y-69865111D01*
X137824500Y-69950500D01*
X137805593Y-70008691D01*
X137756093Y-70044655D01*
X137725500Y-70049500D01*
X135865111Y-70049500D01*
X135806920Y-70030593D01*
X135795107Y-70020504D01*
X135418606Y-69644003D01*
X135390829Y-69589486D01*
X135400400Y-69529054D01*
X135443665Y-69485789D01*
X135488610Y-69474999D01*
X135711654Y-69474999D01*
X135812642Y-69464682D01*
X135812654Y-69464679D01*
X135976306Y-69410451D01*
X136123035Y-69319946D01*
X136244946Y-69198035D01*
X136335451Y-69051306D01*
X136389681Y-68887648D01*
X136400000Y-68786655D01*
X136400000Y-68750001D01*
X136399999Y-68750000D01*
X135211500Y-68750000D01*
X135153309Y-68731093D01*
X135117345Y-68681593D01*
X135112500Y-68651000D01*
X135112500Y-67525001D01*
X135612500Y-67525001D01*
X135612500Y-68249999D01*
X135612501Y-68250000D01*
X136399998Y-68250000D01*
X136399999Y-68249999D01*
X136399999Y-68213345D01*
X136389682Y-68112357D01*
X136389679Y-68112345D01*
X136335451Y-67948693D01*
X136244946Y-67801964D01*
X136231326Y-67788344D01*
X137525000Y-67788344D01*
X137525000Y-67887499D01*
X137525001Y-67887500D01*
X138249999Y-67887500D01*
X138250000Y-67887499D01*
X138250000Y-67100000D01*
X138213357Y-67100000D01*
X138213351Y-67100001D01*
X138112357Y-67110317D01*
X138112345Y-67110320D01*
X137948693Y-67164548D01*
X137801964Y-67255053D01*
X137680053Y-67376964D01*
X137589548Y-67523693D01*
X137535318Y-67687351D01*
X137525000Y-67788344D01*
X136231326Y-67788344D01*
X136123035Y-67680053D01*
X135976306Y-67589548D01*
X135812648Y-67535318D01*
X135711655Y-67525000D01*
X135612501Y-67525000D01*
X135612500Y-67525001D01*
X135112500Y-67525001D01*
X135112500Y-67525000D01*
X135013345Y-67525000D01*
X135013345Y-67525001D01*
X134912357Y-67535317D01*
X134912345Y-67535320D01*
X134748693Y-67589548D01*
X134601964Y-67680053D01*
X134480053Y-67801964D01*
X134402085Y-67928369D01*
X134355444Y-67967970D01*
X134294433Y-67972593D01*
X134257888Y-67952057D01*
X134256680Y-67953694D01*
X134144476Y-67870884D01*
X134019852Y-67827276D01*
X134019851Y-67827275D01*
X134019849Y-67827275D01*
X134019847Y-67827274D01*
X134019844Y-67827274D01*
X133990266Y-67824500D01*
X133990256Y-67824500D01*
X133284744Y-67824500D01*
X133284733Y-67824500D01*
X133255155Y-67827274D01*
X133255147Y-67827276D01*
X133130523Y-67870884D01*
X133024293Y-67949285D01*
X133024285Y-67949293D01*
X132945884Y-68055523D01*
X132902276Y-68180147D01*
X132902274Y-68180155D01*
X132899500Y-68209733D01*
X132899500Y-68300500D01*
X132880593Y-68358691D01*
X132831093Y-68394655D01*
X132800500Y-68399500D01*
X132199500Y-68399500D01*
X132141309Y-68380593D01*
X132105345Y-68331093D01*
X132100500Y-68300500D01*
X132100499Y-66972870D01*
X132100498Y-66972866D01*
X132084515Y-66892505D01*
X132084512Y-66892501D01*
X132023626Y-66801379D01*
X132023624Y-66801376D01*
X132023620Y-66801373D01*
X131932497Y-66740486D01*
X131932496Y-66740485D01*
X131932495Y-66740485D01*
X131852133Y-66724500D01*
X131852132Y-66724500D01*
X131647870Y-66724500D01*
X131647862Y-66724501D01*
X131567505Y-66740484D01*
X131567501Y-66740486D01*
X131554999Y-66748840D01*
X131496111Y-66765447D01*
X131445001Y-66748840D01*
X131432496Y-66740485D01*
X131432495Y-66740484D01*
X131352134Y-66724500D01*
X131147870Y-66724500D01*
X131147862Y-66724501D01*
X131067505Y-66740484D01*
X131067501Y-66740486D01*
X131054999Y-66748840D01*
X130996111Y-66765447D01*
X130945001Y-66748840D01*
X130932496Y-66740485D01*
X130932495Y-66740484D01*
X130852134Y-66724500D01*
X130647870Y-66724500D01*
X130647862Y-66724501D01*
X130567505Y-66740484D01*
X130567501Y-66740486D01*
X130554999Y-66748840D01*
X130496111Y-66765447D01*
X130445001Y-66748840D01*
X130432496Y-66740485D01*
X130432491Y-66740483D01*
X130372438Y-66728537D01*
X130319054Y-66698640D01*
X130313211Y-66691708D01*
X130235095Y-66589906D01*
X130235089Y-66589900D01*
X130114981Y-66497738D01*
X130114977Y-66497736D01*
X129975105Y-66439800D01*
X129975105Y-66439799D01*
X129900000Y-66429911D01*
X129900000Y-66962925D01*
X129899524Y-66972624D01*
X129899500Y-66972867D01*
X129899500Y-67165833D01*
X129600000Y-66666666D01*
X129600000Y-66429912D01*
X129599999Y-66429911D01*
X129524894Y-66439799D01*
X129524894Y-66439800D01*
X129397751Y-66492464D01*
X129359866Y-66500000D01*
X129323389Y-66500000D01*
X129265198Y-66481093D01*
X129253385Y-66471004D01*
X128999061Y-66216680D01*
X128741921Y-65959540D01*
X128741918Y-65959538D01*
X128724531Y-65949499D01*
X128724531Y-65949500D01*
X128673399Y-65919979D01*
X128673398Y-65919978D01*
X128673397Y-65919978D01*
X128596974Y-65899500D01*
X128596972Y-65899500D01*
X128147083Y-65899500D01*
X128088892Y-65880593D01*
X128072264Y-65865331D01*
X128031128Y-65817857D01*
X127983008Y-65786932D01*
X127910057Y-65740049D01*
X127910054Y-65740048D01*
X127910053Y-65740047D01*
X127879131Y-65730967D01*
X127811095Y-65710990D01*
X127760588Y-65676454D01*
X127740027Y-65618826D01*
X127740995Y-65601911D01*
X127755647Y-65500001D01*
X127755647Y-65499998D01*
X127752558Y-65478516D01*
X127762991Y-65418227D01*
X127780543Y-65394426D01*
X127990460Y-65184511D01*
X128003807Y-65161394D01*
X128030020Y-65115992D01*
X128030020Y-65115990D01*
X128030022Y-65115988D01*
X128050500Y-65039562D01*
X128050500Y-64960438D01*
X128050500Y-61400000D01*
X131929912Y-61400000D01*
X131939800Y-61475105D01*
X131997736Y-61614977D01*
X131997738Y-61614981D01*
X132089900Y-61735089D01*
X132089910Y-61735099D01*
X132191709Y-61813212D01*
X132226365Y-61863636D01*
X132228540Y-61872441D01*
X132240484Y-61932494D01*
X132240486Y-61932498D01*
X132248840Y-61945001D01*
X132265447Y-62003889D01*
X132248840Y-62054999D01*
X132240485Y-62067503D01*
X132240484Y-62067504D01*
X132224500Y-62147864D01*
X132224500Y-62352129D01*
X132224501Y-62352137D01*
X132240484Y-62432494D01*
X132240486Y-62432498D01*
X132248840Y-62445001D01*
X132265447Y-62503889D01*
X132248840Y-62554999D01*
X132240485Y-62567503D01*
X132240484Y-62567504D01*
X132224500Y-62647864D01*
X132224500Y-62852129D01*
X132224501Y-62852137D01*
X132240484Y-62932494D01*
X132240486Y-62932498D01*
X132248840Y-62945001D01*
X132265447Y-63003889D01*
X132248840Y-63054999D01*
X132240485Y-63067503D01*
X132240484Y-63067504D01*
X132224500Y-63147864D01*
X132224500Y-63352129D01*
X132224501Y-63352137D01*
X132240484Y-63432494D01*
X132240486Y-63432498D01*
X132248840Y-63445001D01*
X132265447Y-63503889D01*
X132248840Y-63554999D01*
X132240485Y-63567503D01*
X132240484Y-63567504D01*
X132224500Y-63647864D01*
X132224500Y-63852129D01*
X132224501Y-63852137D01*
X132240484Y-63932494D01*
X132240486Y-63932498D01*
X132248840Y-63945001D01*
X132265447Y-64003889D01*
X132248840Y-64054999D01*
X132240485Y-64067503D01*
X132240484Y-64067504D01*
X132224500Y-64147864D01*
X132224500Y-64352129D01*
X132224501Y-64352137D01*
X132240484Y-64432494D01*
X132240486Y-64432498D01*
X132248840Y-64445001D01*
X132265447Y-64503889D01*
X132248840Y-64554999D01*
X132240485Y-64567503D01*
X132240484Y-64567504D01*
X132224500Y-64647864D01*
X132224500Y-64852129D01*
X132224501Y-64852137D01*
X132240484Y-64932494D01*
X132240486Y-64932498D01*
X132248840Y-64945001D01*
X132265447Y-65003889D01*
X132248840Y-65054999D01*
X132240485Y-65067503D01*
X132240484Y-65067504D01*
X132224500Y-65147864D01*
X132224500Y-65352129D01*
X132224501Y-65352137D01*
X132240484Y-65432494D01*
X132240486Y-65432498D01*
X132248840Y-65445001D01*
X132265447Y-65503889D01*
X132248840Y-65554999D01*
X132240485Y-65567503D01*
X132240484Y-65567504D01*
X132224500Y-65647864D01*
X132224500Y-65852129D01*
X132224501Y-65852137D01*
X132240484Y-65932494D01*
X132240486Y-65932498D01*
X132248840Y-65945001D01*
X132265447Y-66003889D01*
X132248840Y-66054999D01*
X132240485Y-66067503D01*
X132240484Y-66067504D01*
X132224500Y-66147864D01*
X132224500Y-66352129D01*
X132224501Y-66352137D01*
X132240484Y-66432494D01*
X132240485Y-66432496D01*
X132291965Y-66509540D01*
X132301376Y-66523624D01*
X132392505Y-66584515D01*
X132472867Y-66600500D01*
X133852132Y-66600499D01*
X133932495Y-66584515D01*
X134023624Y-66523624D01*
X134084515Y-66432495D01*
X134100500Y-66352133D01*
X134100499Y-66147868D01*
X134099929Y-66145004D01*
X134085837Y-66074153D01*
X134084515Y-66067505D01*
X134076159Y-66054999D01*
X134059551Y-65996114D01*
X134076159Y-65944999D01*
X134084515Y-65932495D01*
X134100500Y-65852133D01*
X134100499Y-65647868D01*
X134099723Y-65643969D01*
X134084515Y-65567506D01*
X134084515Y-65567505D01*
X134076159Y-65554999D01*
X134059551Y-65496114D01*
X134076159Y-65444999D01*
X134084515Y-65432495D01*
X134100500Y-65352133D01*
X134100499Y-65147868D01*
X134084515Y-65067505D01*
X134076159Y-65054999D01*
X134059551Y-64996114D01*
X134076159Y-64944999D01*
X134084515Y-64932495D01*
X134100500Y-64852133D01*
X134100499Y-64647868D01*
X134099227Y-64641475D01*
X134084515Y-64567506D01*
X134084515Y-64567505D01*
X134076159Y-64554999D01*
X134059551Y-64496114D01*
X134076159Y-64444999D01*
X134084515Y-64432495D01*
X134100500Y-64352133D01*
X134100499Y-64147868D01*
X134099246Y-64141570D01*
X134084515Y-64067506D01*
X134084515Y-64067505D01*
X134076159Y-64054999D01*
X134059551Y-63996114D01*
X134076159Y-63944999D01*
X134084515Y-63932495D01*
X134090038Y-63904728D01*
X135789500Y-63904728D01*
X135789500Y-64095271D01*
X135819306Y-64283456D01*
X135878185Y-64464669D01*
X135964687Y-64634439D01*
X135964689Y-64634443D01*
X136076677Y-64788582D01*
X136076679Y-64788584D01*
X136076682Y-64788588D01*
X136211412Y-64923318D01*
X136211415Y-64923320D01*
X136211417Y-64923322D01*
X136365556Y-65035310D01*
X136365560Y-65035312D01*
X136535329Y-65121814D01*
X136716541Y-65180693D01*
X136791817Y-65192615D01*
X136904729Y-65210500D01*
X136904732Y-65210500D01*
X137095271Y-65210500D01*
X137189363Y-65195596D01*
X137283459Y-65180693D01*
X137464671Y-65121814D01*
X137634440Y-65035312D01*
X137677691Y-65003889D01*
X137737496Y-64960438D01*
X137788588Y-64923318D01*
X137923318Y-64788588D01*
X138025559Y-64647864D01*
X138035310Y-64634443D01*
X138035312Y-64634440D01*
X138121814Y-64464671D01*
X138180693Y-64283459D01*
X138202169Y-64147867D01*
X138210500Y-64095271D01*
X138210500Y-63904728D01*
X138188353Y-63764903D01*
X138180693Y-63716541D01*
X138121814Y-63535329D01*
X138035312Y-63365560D01*
X138035310Y-63365556D01*
X137923322Y-63211417D01*
X137923320Y-63211415D01*
X137923318Y-63211412D01*
X137788588Y-63076682D01*
X137788584Y-63076679D01*
X137788582Y-63076677D01*
X137634443Y-62964689D01*
X137634439Y-62964687D01*
X137464669Y-62878185D01*
X137283456Y-62819306D01*
X137095271Y-62789500D01*
X137095268Y-62789500D01*
X136904732Y-62789500D01*
X136904729Y-62789500D01*
X136716543Y-62819306D01*
X136535330Y-62878185D01*
X136365560Y-62964687D01*
X136365556Y-62964689D01*
X136211417Y-63076677D01*
X136076677Y-63211417D01*
X135964689Y-63365556D01*
X135964687Y-63365560D01*
X135878185Y-63535330D01*
X135819306Y-63716543D01*
X135789500Y-63904728D01*
X134090038Y-63904728D01*
X134100500Y-63852133D01*
X134100499Y-63647868D01*
X134084515Y-63567505D01*
X134076159Y-63554999D01*
X134059551Y-63496114D01*
X134076159Y-63444999D01*
X134084515Y-63432495D01*
X134100500Y-63352133D01*
X134100499Y-63147868D01*
X134084515Y-63067505D01*
X134076159Y-63054999D01*
X134059551Y-62996114D01*
X134076159Y-62944999D01*
X134084515Y-62932495D01*
X134100500Y-62852133D01*
X134100499Y-62647868D01*
X134084515Y-62567505D01*
X134076159Y-62554999D01*
X134059551Y-62496114D01*
X134076159Y-62444999D01*
X134084515Y-62432495D01*
X134100500Y-62352133D01*
X134100499Y-62147868D01*
X134084515Y-62067505D01*
X134076159Y-62054999D01*
X134059551Y-61996114D01*
X134076159Y-61944999D01*
X134084515Y-61932495D01*
X134096461Y-61872438D01*
X134126357Y-61819056D01*
X134133291Y-61813212D01*
X134235089Y-61735099D01*
X134235099Y-61735089D01*
X134327261Y-61614981D01*
X134327263Y-61614977D01*
X134385199Y-61475105D01*
X134385200Y-61475105D01*
X134395088Y-61400000D01*
X133862074Y-61400000D01*
X133852373Y-61399524D01*
X133852136Y-61399500D01*
X133852133Y-61399500D01*
X133852129Y-61399500D01*
X132472871Y-61399500D01*
X132472638Y-61399524D01*
X132462937Y-61400000D01*
X131929912Y-61400000D01*
X128050500Y-61400000D01*
X128050500Y-61099999D01*
X131929911Y-61099999D01*
X131929912Y-61100000D01*
X132462926Y-61100000D01*
X132472627Y-61100476D01*
X132472854Y-61100497D01*
X132472867Y-61100500D01*
X133852132Y-61100499D01*
X133852135Y-61100498D01*
X133852362Y-61100476D01*
X133862063Y-61100000D01*
X134395088Y-61100000D01*
X134408922Y-61084225D01*
X134461505Y-61052941D01*
X134483354Y-61050500D01*
X134927063Y-61050500D01*
X134927063Y-61050499D01*
X135003489Y-61030021D01*
X135072011Y-60990460D01*
X135127960Y-60934511D01*
X135357975Y-60704496D01*
X135412492Y-60676719D01*
X135427979Y-60675500D01*
X135990262Y-60675500D01*
X135990265Y-60675499D01*
X136019849Y-60672725D01*
X136144475Y-60629116D01*
X136198600Y-60589170D01*
X136256680Y-60546306D01*
X136258173Y-60548329D01*
X136302317Y-60525825D01*
X136362751Y-60535384D01*
X136402085Y-60571630D01*
X136480054Y-60698036D01*
X136601964Y-60819946D01*
X136748693Y-60910451D01*
X136912351Y-60964681D01*
X137013345Y-60974999D01*
X137112500Y-60974999D01*
X137112500Y-60250001D01*
X137612500Y-60250001D01*
X137612500Y-60974998D01*
X137612501Y-60974999D01*
X137711654Y-60974999D01*
X137812642Y-60964682D01*
X137812654Y-60964679D01*
X137976306Y-60910451D01*
X138123035Y-60819946D01*
X138244946Y-60698035D01*
X138335451Y-60551306D01*
X138389681Y-60387648D01*
X138400000Y-60286655D01*
X138400000Y-60250001D01*
X138399999Y-60250000D01*
X137612501Y-60250000D01*
X137612500Y-60250001D01*
X137112500Y-60250001D01*
X137112500Y-59025001D01*
X137612500Y-59025001D01*
X137612500Y-59749999D01*
X137612501Y-59750000D01*
X138399998Y-59750000D01*
X138399999Y-59749999D01*
X138399999Y-59713345D01*
X138389682Y-59612357D01*
X138389679Y-59612345D01*
X138335451Y-59448693D01*
X138244946Y-59301964D01*
X138123035Y-59180053D01*
X137976306Y-59089548D01*
X137812648Y-59035318D01*
X137711655Y-59025000D01*
X137612501Y-59025000D01*
X137612500Y-59025001D01*
X137112500Y-59025001D01*
X137112500Y-59025000D01*
X137013345Y-59025000D01*
X137013345Y-59025001D01*
X136912357Y-59035317D01*
X136912345Y-59035320D01*
X136748693Y-59089548D01*
X136601964Y-59180053D01*
X136480053Y-59301964D01*
X136402085Y-59428369D01*
X136355444Y-59467970D01*
X136294433Y-59472593D01*
X136257888Y-59452057D01*
X136256680Y-59453694D01*
X136144476Y-59370884D01*
X136019852Y-59327276D01*
X136019851Y-59327275D01*
X136019849Y-59327275D01*
X136019847Y-59327274D01*
X136019844Y-59327274D01*
X135990266Y-59324500D01*
X135990256Y-59324500D01*
X135640111Y-59324500D01*
X135581920Y-59305593D01*
X135570107Y-59295504D01*
X135299603Y-59025000D01*
X135014114Y-58739511D01*
X135014111Y-58739509D01*
X135014110Y-58739508D01*
X135014109Y-58739507D01*
X134911390Y-58680202D01*
X134911386Y-58680200D01*
X134887173Y-58673712D01*
X134887173Y-58673713D01*
X134796809Y-58649500D01*
X134796807Y-58649500D01*
X133152288Y-58649500D01*
X133116916Y-58641804D01*
X133116847Y-58642042D01*
X133113531Y-58641068D01*
X133111162Y-58640553D01*
X133110056Y-58640048D01*
X133110049Y-58640046D01*
X133093605Y-58635217D01*
X132971964Y-58599500D01*
X132971961Y-58599500D01*
X132828039Y-58599500D01*
X132828035Y-58599500D01*
X132689949Y-58640046D01*
X132689942Y-58640049D01*
X132568873Y-58717855D01*
X132474622Y-58826628D01*
X132414834Y-58957543D01*
X132394353Y-59099997D01*
X132394353Y-59100002D01*
X132414834Y-59242456D01*
X132473486Y-59370884D01*
X132474623Y-59373373D01*
X132516442Y-59421635D01*
X132568873Y-59482144D01*
X132689942Y-59559950D01*
X132689947Y-59559953D01*
X132796403Y-59591211D01*
X132828035Y-59600499D01*
X132828036Y-59600499D01*
X132828039Y-59600500D01*
X132828041Y-59600500D01*
X132971959Y-59600500D01*
X132971961Y-59600500D01*
X133110053Y-59559953D01*
X133110056Y-59559950D01*
X133111162Y-59559447D01*
X133113531Y-59558931D01*
X133116847Y-59557958D01*
X133116916Y-59558195D01*
X133152288Y-59550500D01*
X134509889Y-59550500D01*
X134568080Y-59569407D01*
X134579893Y-59579496D01*
X134870504Y-59870107D01*
X134898281Y-59924624D01*
X134899500Y-59940111D01*
X134899500Y-60272021D01*
X134880593Y-60330212D01*
X134870504Y-60342024D01*
X134792026Y-60420503D01*
X134737510Y-60448281D01*
X134722022Y-60449500D01*
X134013433Y-60449500D01*
X133958431Y-60432815D01*
X133932497Y-60415486D01*
X133932496Y-60415485D01*
X133932495Y-60415485D01*
X133852133Y-60399500D01*
X133852132Y-60399500D01*
X132472870Y-60399500D01*
X132472863Y-60399501D01*
X132392505Y-60415484D01*
X132392503Y-60415485D01*
X132301379Y-60476373D01*
X132301373Y-60476379D01*
X132240486Y-60567501D01*
X132240484Y-60567508D01*
X132228538Y-60627561D01*
X132198641Y-60680945D01*
X132191709Y-60686788D01*
X132089906Y-60764904D01*
X132089900Y-60764910D01*
X131997738Y-60885018D01*
X131997736Y-60885022D01*
X131939800Y-61024894D01*
X131939799Y-61024894D01*
X131929911Y-61099999D01*
X128050500Y-61099999D01*
X128050500Y-60567848D01*
X128045852Y-60550500D01*
X128030022Y-60491422D01*
X128021337Y-60476379D01*
X127990464Y-60422904D01*
X127988757Y-60420680D01*
X127988086Y-60418787D01*
X127987216Y-60417279D01*
X127987495Y-60417117D01*
X127968334Y-60363003D01*
X127985712Y-60304338D01*
X128034254Y-60267091D01*
X128086614Y-60263316D01*
X128147867Y-60275500D01*
X128352132Y-60275499D01*
X128432495Y-60259515D01*
X128444996Y-60251161D01*
X128503883Y-60234551D01*
X128555000Y-60251159D01*
X128567505Y-60259515D01*
X128647867Y-60275500D01*
X128852132Y-60275499D01*
X128932495Y-60259515D01*
X128944996Y-60251161D01*
X129003883Y-60234551D01*
X129055000Y-60251159D01*
X129067505Y-60259515D01*
X129147867Y-60275500D01*
X129352132Y-60275499D01*
X129432495Y-60259515D01*
X129444996Y-60251161D01*
X129503883Y-60234551D01*
X129555000Y-60251159D01*
X129567505Y-60259515D01*
X129647867Y-60275500D01*
X129852132Y-60275499D01*
X129932495Y-60259515D01*
X129944996Y-60251161D01*
X130003883Y-60234551D01*
X130055000Y-60251159D01*
X130067505Y-60259515D01*
X130147867Y-60275500D01*
X130352132Y-60275499D01*
X130432495Y-60259515D01*
X130444996Y-60251161D01*
X130503883Y-60234551D01*
X130555000Y-60251159D01*
X130567505Y-60259515D01*
X130647867Y-60275500D01*
X130852132Y-60275499D01*
X130932495Y-60259515D01*
X130944996Y-60251161D01*
X131003883Y-60234551D01*
X131055000Y-60251159D01*
X131067505Y-60259515D01*
X131147867Y-60275500D01*
X131352132Y-60275499D01*
X131432495Y-60259515D01*
X131444996Y-60251161D01*
X131503883Y-60234551D01*
X131555000Y-60251159D01*
X131567505Y-60259515D01*
X131647867Y-60275500D01*
X131852132Y-60275499D01*
X131932495Y-60259515D01*
X132023624Y-60198624D01*
X132084515Y-60107495D01*
X132100500Y-60027133D01*
X132100499Y-58647868D01*
X132084515Y-58567505D01*
X132023624Y-58476376D01*
X131957566Y-58432237D01*
X131932497Y-58415486D01*
X131932496Y-58415485D01*
X131932495Y-58415485D01*
X131852133Y-58399500D01*
X131852132Y-58399500D01*
X131647870Y-58399500D01*
X131647862Y-58399501D01*
X131567505Y-58415484D01*
X131567501Y-58415486D01*
X131554999Y-58423840D01*
X131496111Y-58440447D01*
X131445001Y-58423840D01*
X131432496Y-58415485D01*
X131432495Y-58415484D01*
X131352134Y-58399500D01*
X131147870Y-58399500D01*
X131147862Y-58399501D01*
X131067505Y-58415484D01*
X131067501Y-58415486D01*
X131054999Y-58423840D01*
X130996111Y-58440447D01*
X130945001Y-58423840D01*
X130932496Y-58415485D01*
X130932495Y-58415484D01*
X130852135Y-58399500D01*
X130649500Y-58399500D01*
X130591309Y-58380593D01*
X130555345Y-58331093D01*
X130550500Y-58300500D01*
X130550500Y-57649500D01*
X130569407Y-57591309D01*
X130618907Y-57555345D01*
X130649500Y-57550500D01*
X130869747Y-57550500D01*
X130869748Y-57550500D01*
X130928231Y-57538867D01*
X130994552Y-57494552D01*
X131038867Y-57428231D01*
X131046459Y-57390065D01*
X131048425Y-57380184D01*
X131078322Y-57326801D01*
X131133888Y-57301186D01*
X131145522Y-57300500D01*
X132325261Y-57300500D01*
X132383452Y-57319407D01*
X132418704Y-57366801D01*
X132426300Y-57388508D01*
X132445884Y-57444476D01*
X132524133Y-57550500D01*
X132524289Y-57550711D01*
X132524292Y-57550713D01*
X132524293Y-57550714D01*
X132630523Y-57629115D01*
X132630524Y-57629115D01*
X132630525Y-57629116D01*
X132755151Y-57672725D01*
X132782441Y-57675284D01*
X132784733Y-57675499D01*
X132784738Y-57675500D01*
X132784744Y-57675500D01*
X133465262Y-57675500D01*
X133465265Y-57675499D01*
X133494849Y-57672725D01*
X133619475Y-57629116D01*
X133725711Y-57550711D01*
X133804116Y-57444475D01*
X133847725Y-57319849D01*
X133850500Y-57290256D01*
X133850500Y-56709744D01*
X133850500Y-56709738D01*
X133850499Y-56709733D01*
X134149500Y-56709733D01*
X134149500Y-57290266D01*
X134152274Y-57319844D01*
X134152276Y-57319852D01*
X134195884Y-57444476D01*
X134274133Y-57550500D01*
X134274289Y-57550711D01*
X134274292Y-57550713D01*
X134274293Y-57550714D01*
X134380523Y-57629115D01*
X134380524Y-57629115D01*
X134380525Y-57629116D01*
X134505151Y-57672725D01*
X134532441Y-57675284D01*
X134534733Y-57675499D01*
X134534738Y-57675500D01*
X134534744Y-57675500D01*
X135215262Y-57675500D01*
X135215265Y-57675499D01*
X135244849Y-57672725D01*
X135369475Y-57629116D01*
X135475711Y-57550711D01*
X135554116Y-57444475D01*
X135581295Y-57366801D01*
X135618360Y-57318122D01*
X135674739Y-57300500D01*
X135825261Y-57300500D01*
X135883452Y-57319407D01*
X135918704Y-57366801D01*
X135926300Y-57388508D01*
X135945884Y-57444476D01*
X136024133Y-57550500D01*
X136024289Y-57550711D01*
X136024292Y-57550713D01*
X136024293Y-57550714D01*
X136130523Y-57629115D01*
X136130524Y-57629115D01*
X136130525Y-57629116D01*
X136255151Y-57672725D01*
X136282441Y-57675284D01*
X136284733Y-57675499D01*
X136284738Y-57675500D01*
X136284744Y-57675500D01*
X136890262Y-57675500D01*
X136890265Y-57675499D01*
X136919849Y-57672725D01*
X137044475Y-57629116D01*
X137150711Y-57550711D01*
X137229116Y-57444475D01*
X137248700Y-57388505D01*
X137285765Y-57339827D01*
X137344365Y-57322230D01*
X137402117Y-57342438D01*
X137436119Y-57390065D01*
X137489548Y-57551306D01*
X137580053Y-57698035D01*
X137701964Y-57819946D01*
X137848693Y-57910451D01*
X138012351Y-57964681D01*
X138113345Y-57974999D01*
X138162500Y-57974998D01*
X138162500Y-56024999D01*
X138113347Y-56025000D01*
X138113344Y-56025001D01*
X138012357Y-56035317D01*
X138012345Y-56035320D01*
X137848693Y-56089548D01*
X137701964Y-56180053D01*
X137580053Y-56301964D01*
X137489548Y-56448693D01*
X137436119Y-56609934D01*
X137399868Y-56659224D01*
X137341568Y-56677792D01*
X137283488Y-56658547D01*
X137248700Y-56611492D01*
X137229115Y-56555523D01*
X137150714Y-56449293D01*
X137150713Y-56449292D01*
X137150711Y-56449289D01*
X137150706Y-56449285D01*
X137044476Y-56370884D01*
X136919852Y-56327276D01*
X136919851Y-56327275D01*
X136919849Y-56327275D01*
X136919847Y-56327274D01*
X136919844Y-56327274D01*
X136890266Y-56324500D01*
X136890256Y-56324500D01*
X136284744Y-56324500D01*
X136284733Y-56324500D01*
X136255155Y-56327274D01*
X136255147Y-56327276D01*
X136130523Y-56370884D01*
X136024293Y-56449285D01*
X136024285Y-56449293D01*
X135945884Y-56555523D01*
X135931705Y-56596045D01*
X135919442Y-56631093D01*
X135918705Y-56633198D01*
X135881640Y-56681878D01*
X135825261Y-56699500D01*
X135674739Y-56699500D01*
X135616548Y-56680593D01*
X135581295Y-56633198D01*
X135554116Y-56555525D01*
X135538285Y-56534075D01*
X135475714Y-56449293D01*
X135475713Y-56449292D01*
X135475711Y-56449289D01*
X135475706Y-56449285D01*
X135369476Y-56370884D01*
X135244852Y-56327276D01*
X135244851Y-56327275D01*
X135244849Y-56327275D01*
X135244847Y-56327274D01*
X135244844Y-56327274D01*
X135215266Y-56324500D01*
X135215256Y-56324500D01*
X134534744Y-56324500D01*
X134534733Y-56324500D01*
X134505155Y-56327274D01*
X134505147Y-56327276D01*
X134380523Y-56370884D01*
X134274293Y-56449285D01*
X134274285Y-56449293D01*
X134195884Y-56555523D01*
X134152276Y-56680147D01*
X134152274Y-56680155D01*
X134149500Y-56709733D01*
X133850499Y-56709733D01*
X133848929Y-56692993D01*
X133847725Y-56680151D01*
X133804116Y-56555525D01*
X133788285Y-56534075D01*
X133725714Y-56449293D01*
X133725713Y-56449292D01*
X133725711Y-56449289D01*
X133725706Y-56449285D01*
X133619476Y-56370884D01*
X133494852Y-56327276D01*
X133494851Y-56327275D01*
X133494849Y-56327275D01*
X133494847Y-56327274D01*
X133494844Y-56327274D01*
X133465266Y-56324500D01*
X133465256Y-56324500D01*
X132784744Y-56324500D01*
X132784733Y-56324500D01*
X132755155Y-56327274D01*
X132755147Y-56327276D01*
X132630523Y-56370884D01*
X132524293Y-56449285D01*
X132524285Y-56449293D01*
X132445884Y-56555523D01*
X132431705Y-56596045D01*
X132419442Y-56631093D01*
X132418705Y-56633198D01*
X132381640Y-56681878D01*
X132325261Y-56699500D01*
X131149500Y-56699500D01*
X131091309Y-56680593D01*
X131055345Y-56631093D01*
X131050500Y-56600500D01*
X131050500Y-55630253D01*
X131050499Y-55630249D01*
X131048225Y-55618814D01*
X131055417Y-55558053D01*
X131096949Y-55513123D01*
X131145323Y-55500500D01*
X139400500Y-55500500D01*
X139458691Y-55519407D01*
G37*
G04 #@! TD.AperFunction*
G04 #@! TA.AperFunction,Conductor*
G36*
X122957944Y-61781968D02*
G01*
X123001209Y-61825233D01*
X123010991Y-61884266D01*
X122994353Y-61999995D01*
X122994353Y-62000002D01*
X123014834Y-62142456D01*
X123074623Y-62273373D01*
X123135845Y-62344028D01*
X123155052Y-62389477D01*
X123173698Y-62389338D01*
X123197334Y-62400435D01*
X123266681Y-62445001D01*
X123289947Y-62459953D01*
X123354356Y-62478864D01*
X123396469Y-62503850D01*
X123827130Y-62934511D01*
X123827129Y-62934511D01*
X123885472Y-62992853D01*
X123913250Y-63047369D01*
X123912567Y-63082170D01*
X123899500Y-63147862D01*
X123899500Y-63352129D01*
X123899501Y-63352139D01*
X123912567Y-63417829D01*
X123905374Y-63478590D01*
X123885473Y-63507145D01*
X123106706Y-64285911D01*
X123052189Y-64313688D01*
X122991757Y-64304117D01*
X122977915Y-64295563D01*
X122957426Y-64280442D01*
X122944475Y-64270884D01*
X122944473Y-64270883D01*
X122944471Y-64270882D01*
X122819852Y-64227276D01*
X122819851Y-64227275D01*
X122819849Y-64227275D01*
X122819847Y-64227274D01*
X122819844Y-64227274D01*
X122790266Y-64224500D01*
X122790256Y-64224500D01*
X122209744Y-64224500D01*
X122209733Y-64224500D01*
X122180155Y-64227274D01*
X122180147Y-64227276D01*
X122055523Y-64270884D01*
X121949293Y-64349285D01*
X121949285Y-64349293D01*
X121870884Y-64455523D01*
X121827276Y-64580147D01*
X121827274Y-64580155D01*
X121824500Y-64609733D01*
X121824500Y-65215266D01*
X121827274Y-65244844D01*
X121827276Y-65244852D01*
X121870884Y-65369476D01*
X121938055Y-65460490D01*
X121949289Y-65475711D01*
X121949292Y-65475713D01*
X121949293Y-65475714D01*
X121979996Y-65498374D01*
X121998431Y-65524150D01*
X122036533Y-65540100D01*
X122055523Y-65554115D01*
X122055524Y-65554115D01*
X122055525Y-65554116D01*
X122180151Y-65597725D01*
X122204412Y-65600000D01*
X122209733Y-65600499D01*
X122209738Y-65600500D01*
X122209744Y-65600500D01*
X122790262Y-65600500D01*
X122790265Y-65600499D01*
X122819849Y-65597725D01*
X122944475Y-65554116D01*
X123050711Y-65475711D01*
X123129116Y-65369475D01*
X123172725Y-65244849D01*
X123175500Y-65215256D01*
X123175500Y-65108067D01*
X123194407Y-65049876D01*
X123204490Y-65038070D01*
X123573309Y-64669251D01*
X123627823Y-64641475D01*
X123688255Y-64651046D01*
X123721851Y-64678988D01*
X123764899Y-64735088D01*
X123764910Y-64735099D01*
X123866709Y-64813212D01*
X123901365Y-64863636D01*
X123903540Y-64872441D01*
X123915484Y-64932494D01*
X123915486Y-64932498D01*
X123923840Y-64945001D01*
X123940447Y-65003889D01*
X123923840Y-65054999D01*
X123915485Y-65067503D01*
X123915483Y-65067508D01*
X123903537Y-65127561D01*
X123873640Y-65180945D01*
X123866708Y-65186787D01*
X123764911Y-65264899D01*
X123764900Y-65264910D01*
X123672738Y-65385018D01*
X123672736Y-65385022D01*
X123614800Y-65524894D01*
X123614799Y-65524894D01*
X123604911Y-65599999D01*
X123604912Y-65600000D01*
X124137926Y-65600000D01*
X124147627Y-65600476D01*
X124147854Y-65600497D01*
X124147867Y-65600500D01*
X124888501Y-65600499D01*
X124946691Y-65619406D01*
X124982655Y-65668906D01*
X124987500Y-65699499D01*
X124987500Y-65800500D01*
X124968593Y-65858691D01*
X124919093Y-65894655D01*
X124888500Y-65899500D01*
X124147871Y-65899500D01*
X124147638Y-65899524D01*
X124137937Y-65900000D01*
X123604913Y-65900000D01*
X123587906Y-65919392D01*
X123535323Y-65950675D01*
X123474394Y-65945076D01*
X123454686Y-65933772D01*
X123435997Y-65919979D01*
X123369475Y-65870884D01*
X123369473Y-65870883D01*
X123244852Y-65827276D01*
X123244851Y-65827275D01*
X123244849Y-65827275D01*
X123244847Y-65827274D01*
X123244844Y-65827274D01*
X123215266Y-65824500D01*
X123215256Y-65824500D01*
X122509744Y-65824500D01*
X122509733Y-65824500D01*
X122480155Y-65827274D01*
X122480147Y-65827276D01*
X122355523Y-65870884D01*
X122243320Y-65953694D01*
X122241830Y-65951675D01*
X122197640Y-65974180D01*
X122137210Y-65964596D01*
X122097914Y-65928369D01*
X122019945Y-65801963D01*
X121907741Y-65689759D01*
X121897953Y-65670549D01*
X121869235Y-65662289D01*
X121751306Y-65589548D01*
X121587648Y-65535318D01*
X121486655Y-65525000D01*
X121387501Y-65525000D01*
X121387500Y-65525001D01*
X121387500Y-66651000D01*
X121368593Y-66709191D01*
X121319093Y-66745155D01*
X121288500Y-66750000D01*
X120100002Y-66750000D01*
X120100001Y-66750001D01*
X120100001Y-66786654D01*
X120110317Y-66887642D01*
X120110320Y-66887654D01*
X120164548Y-67051306D01*
X120255053Y-67198035D01*
X120376964Y-67319946D01*
X120523693Y-67410451D01*
X120619298Y-67442131D01*
X120668588Y-67478382D01*
X120687156Y-67536682D01*
X120667911Y-67594762D01*
X120642347Y-67616799D01*
X120643087Y-67617801D01*
X120527855Y-67702845D01*
X120527845Y-67702855D01*
X120447207Y-67812116D01*
X120409213Y-67920698D01*
X120372148Y-67969378D01*
X120315769Y-67987000D01*
X118699500Y-67987000D01*
X118641309Y-67968093D01*
X118605345Y-67918593D01*
X118600500Y-67888000D01*
X118600500Y-66793388D01*
X118600500Y-66793384D01*
X118594086Y-66722804D01*
X118543478Y-66560394D01*
X118543211Y-66559953D01*
X118520864Y-66522986D01*
X118455472Y-66414815D01*
X118411915Y-66371258D01*
X118384140Y-66316744D01*
X118393711Y-66256312D01*
X118411914Y-66231256D01*
X118429826Y-66213344D01*
X120100000Y-66213344D01*
X120100000Y-66249999D01*
X120100001Y-66250000D01*
X120887499Y-66250000D01*
X120887500Y-66249999D01*
X120887500Y-65525000D01*
X120788345Y-65525000D01*
X120788345Y-65525001D01*
X120687357Y-65535317D01*
X120687345Y-65535320D01*
X120523693Y-65589548D01*
X120376964Y-65680053D01*
X120255053Y-65801964D01*
X120164548Y-65948693D01*
X120110318Y-66112351D01*
X120100000Y-66213344D01*
X118429826Y-66213344D01*
X121655496Y-62987675D01*
X121710013Y-62959898D01*
X121770445Y-62969469D01*
X121813710Y-63012734D01*
X121824500Y-63057679D01*
X121824500Y-63390266D01*
X121827274Y-63419844D01*
X121827276Y-63419852D01*
X121870884Y-63544476D01*
X121947192Y-63647870D01*
X121949289Y-63650711D01*
X121949292Y-63650713D01*
X121949293Y-63650714D01*
X122055523Y-63729115D01*
X122055524Y-63729115D01*
X122055525Y-63729116D01*
X122180151Y-63772725D01*
X122207441Y-63775284D01*
X122209733Y-63775499D01*
X122209738Y-63775500D01*
X122209744Y-63775500D01*
X122790262Y-63775500D01*
X122790265Y-63775499D01*
X122819849Y-63772725D01*
X122944475Y-63729116D01*
X123050711Y-63650711D01*
X123129116Y-63544475D01*
X123172725Y-63419849D01*
X123175500Y-63390256D01*
X123175500Y-62784744D01*
X123175500Y-62784738D01*
X123175499Y-62784733D01*
X123172725Y-62755155D01*
X123172725Y-62755151D01*
X123129116Y-62630525D01*
X123064155Y-62542506D01*
X123051387Y-62504187D01*
X123038602Y-62505286D01*
X123002238Y-62488514D01*
X122944476Y-62445884D01*
X122819852Y-62402276D01*
X122819851Y-62402275D01*
X122819849Y-62402275D01*
X122819847Y-62402274D01*
X122819844Y-62402274D01*
X122790266Y-62399500D01*
X122790256Y-62399500D01*
X122482679Y-62399500D01*
X122424488Y-62380593D01*
X122388524Y-62331093D01*
X122388524Y-62269907D01*
X122412675Y-62230497D01*
X122710678Y-61932493D01*
X122842996Y-61800174D01*
X122897512Y-61772397D01*
X122957944Y-61781968D01*
G37*
G04 #@! TD.AperFunction*
G04 #@! TA.AperFunction,Conductor*
G36*
X120226422Y-55519407D02*
G01*
X120262386Y-55568907D01*
X120262386Y-55630093D01*
X120226422Y-55679593D01*
X120193854Y-55695127D01*
X120076505Y-55726570D01*
X119862432Y-55826394D01*
X119862424Y-55826398D01*
X119668926Y-55961886D01*
X119501886Y-56128926D01*
X119366398Y-56322424D01*
X119366394Y-56322432D01*
X119266570Y-56536505D01*
X119211183Y-56743213D01*
X119177859Y-56794527D01*
X119120737Y-56816454D01*
X119061637Y-56800618D01*
X119023132Y-56753068D01*
X119020819Y-56746328D01*
X119019427Y-56741738D01*
X118975232Y-56596046D01*
X118877685Y-56413550D01*
X118838312Y-56365574D01*
X118746414Y-56253595D01*
X118746410Y-56253590D01*
X118656919Y-56180147D01*
X118586452Y-56122316D01*
X118403954Y-56024768D01*
X118205934Y-55964699D01*
X118205929Y-55964698D01*
X118000003Y-55944417D01*
X117999997Y-55944417D01*
X117794070Y-55964698D01*
X117794065Y-55964699D01*
X117596045Y-56024768D01*
X117413547Y-56122316D01*
X117253595Y-56253585D01*
X117253585Y-56253595D01*
X117122316Y-56413547D01*
X117024768Y-56596045D01*
X116964699Y-56794065D01*
X116964698Y-56794070D01*
X116944417Y-56999996D01*
X116944417Y-57000003D01*
X116964698Y-57205929D01*
X116964699Y-57205934D01*
X117024768Y-57403954D01*
X117122316Y-57586452D01*
X117231840Y-57719907D01*
X117253590Y-57746410D01*
X117253595Y-57746414D01*
X117413547Y-57877683D01*
X117413548Y-57877683D01*
X117413550Y-57877685D01*
X117547169Y-57949106D01*
X117589575Y-57993212D01*
X117599500Y-58036416D01*
X117599500Y-59421635D01*
X117580593Y-59479826D01*
X117549889Y-59505612D01*
X117550192Y-59506036D01*
X117544817Y-59509873D01*
X117543982Y-59510574D01*
X117543800Y-59510663D01*
X117543518Y-59510801D01*
X117460800Y-59593519D01*
X117460799Y-59593521D01*
X117451698Y-59612138D01*
X117409155Y-59656112D01*
X117348889Y-59666681D01*
X117293921Y-59639808D01*
X117267689Y-59596277D01*
X117251280Y-59539799D01*
X117251280Y-59539798D01*
X117167685Y-59398447D01*
X117051552Y-59282314D01*
X116910201Y-59198719D01*
X116910202Y-59198719D01*
X116752491Y-59152900D01*
X116750000Y-59152702D01*
X116750000Y-60847295D01*
X116752486Y-60847100D01*
X116752493Y-60847098D01*
X116910200Y-60801280D01*
X116910201Y-60801280D01*
X117051552Y-60717685D01*
X117167685Y-60601552D01*
X117251280Y-60460201D01*
X117251280Y-60460200D01*
X117267689Y-60403722D01*
X117302080Y-60353117D01*
X117359648Y-60332391D01*
X117418404Y-60349461D01*
X117451698Y-60387861D01*
X117460802Y-60406483D01*
X117543517Y-60489198D01*
X117585128Y-60509540D01*
X117648604Y-60540572D01*
X117648605Y-60540572D01*
X117648607Y-60540573D01*
X117716740Y-60550500D01*
X117716743Y-60550500D01*
X118083257Y-60550500D01*
X118083260Y-60550500D01*
X118151393Y-60540573D01*
X118256483Y-60489198D01*
X118339198Y-60406483D01*
X118363868Y-60356018D01*
X118406412Y-60312045D01*
X118452809Y-60300500D01*
X118825261Y-60300500D01*
X118883452Y-60319407D01*
X118918704Y-60366801D01*
X118925999Y-60387648D01*
X118945884Y-60444476D01*
X119024285Y-60550706D01*
X119024289Y-60550711D01*
X119024292Y-60550713D01*
X119024293Y-60550714D01*
X119130523Y-60629115D01*
X119130524Y-60629115D01*
X119130525Y-60629116D01*
X119255151Y-60672725D01*
X119282441Y-60675284D01*
X119284733Y-60675499D01*
X119284738Y-60675500D01*
X119284744Y-60675500D01*
X119890262Y-60675500D01*
X119890265Y-60675499D01*
X119919849Y-60672725D01*
X120044475Y-60629116D01*
X120150711Y-60550711D01*
X120229116Y-60444475D01*
X120272725Y-60319849D01*
X120275500Y-60290256D01*
X120275500Y-59709744D01*
X120275500Y-59709738D01*
X120275499Y-59709733D01*
X120274854Y-59702855D01*
X120272725Y-59680151D01*
X120229116Y-59555525D01*
X120225407Y-59550500D01*
X120150714Y-59449293D01*
X120150713Y-59449292D01*
X120150711Y-59449289D01*
X120150706Y-59449285D01*
X120044476Y-59370884D01*
X119919852Y-59327276D01*
X119919851Y-59327275D01*
X119919849Y-59327275D01*
X119919847Y-59327274D01*
X119919844Y-59327274D01*
X119890266Y-59324500D01*
X119890256Y-59324500D01*
X119284744Y-59324500D01*
X119284733Y-59324500D01*
X119255155Y-59327274D01*
X119255147Y-59327276D01*
X119130523Y-59370884D01*
X119024293Y-59449285D01*
X119024285Y-59449293D01*
X118945884Y-59555523D01*
X118918705Y-59633198D01*
X118881640Y-59681878D01*
X118825261Y-59699500D01*
X118452809Y-59699500D01*
X118394618Y-59680593D01*
X118363868Y-59643981D01*
X118361828Y-59639808D01*
X118339198Y-59593517D01*
X118256483Y-59510802D01*
X118256017Y-59510574D01*
X118255603Y-59510173D01*
X118249808Y-59506036D01*
X118250428Y-59505167D01*
X118212045Y-59468031D01*
X118200500Y-59421635D01*
X118200500Y-58110371D01*
X118219407Y-58052180D01*
X118268907Y-58016216D01*
X118270707Y-58015651D01*
X118403954Y-57975232D01*
X118586450Y-57877685D01*
X118746410Y-57746410D01*
X118877685Y-57586450D01*
X118975232Y-57403954D01*
X119020819Y-57253670D01*
X119055804Y-57203474D01*
X119113612Y-57183428D01*
X119172163Y-57201189D01*
X119209092Y-57249973D01*
X119211183Y-57256786D01*
X119266569Y-57463489D01*
X119366399Y-57677577D01*
X119501886Y-57871073D01*
X119668926Y-58038113D01*
X119862422Y-58173600D01*
X120076509Y-58273430D01*
X120290000Y-58330634D01*
X120290000Y-57433012D01*
X120347007Y-57465925D01*
X120474174Y-57500000D01*
X120605826Y-57500000D01*
X120732993Y-57465925D01*
X120790000Y-57433012D01*
X120790000Y-58330633D01*
X121003490Y-58273430D01*
X121217577Y-58173600D01*
X121411073Y-58038113D01*
X121578113Y-57871073D01*
X121713600Y-57677577D01*
X121813430Y-57463489D01*
X121870636Y-57250000D01*
X120973012Y-57250000D01*
X121005925Y-57192993D01*
X121040000Y-57065826D01*
X121040000Y-56934174D01*
X121005925Y-56807007D01*
X120973012Y-56750000D01*
X121870636Y-56750000D01*
X121813429Y-56536505D01*
X121713605Y-56322432D01*
X121713601Y-56322424D01*
X121578113Y-56128926D01*
X121411073Y-55961886D01*
X121217577Y-55826399D01*
X121003489Y-55726569D01*
X120886146Y-55695127D01*
X120834832Y-55661803D01*
X120812905Y-55604681D01*
X120828741Y-55545581D01*
X120876290Y-55507076D01*
X120911769Y-55500500D01*
X125906724Y-55500500D01*
X125964915Y-55519407D01*
X126000879Y-55568907D01*
X126000879Y-55630093D01*
X125968126Y-55677158D01*
X125964466Y-55680051D01*
X125842553Y-55801964D01*
X125764585Y-55928369D01*
X125717944Y-55967970D01*
X125656933Y-55972593D01*
X125620388Y-55952057D01*
X125619180Y-55953694D01*
X125506976Y-55870884D01*
X125382352Y-55827276D01*
X125382351Y-55827275D01*
X125382349Y-55827275D01*
X125382347Y-55827274D01*
X125382344Y-55827274D01*
X125352766Y-55824500D01*
X125352756Y-55824500D01*
X124647244Y-55824500D01*
X124647233Y-55824500D01*
X124617655Y-55827274D01*
X124617647Y-55827276D01*
X124493023Y-55870884D01*
X124386793Y-55949285D01*
X124386785Y-55949293D01*
X124308384Y-56055523D01*
X124264776Y-56180147D01*
X124264774Y-56180155D01*
X124262000Y-56209733D01*
X124262000Y-56559889D01*
X124243093Y-56618080D01*
X124233004Y-56629893D01*
X123239507Y-57623390D01*
X123180203Y-57726107D01*
X123180199Y-57726117D01*
X123174763Y-57746408D01*
X123174763Y-57746409D01*
X123149500Y-57840691D01*
X123149500Y-58660102D01*
X123140553Y-58701229D01*
X123114834Y-58757543D01*
X123094353Y-58899997D01*
X123094353Y-58900002D01*
X123114834Y-59042456D01*
X123173437Y-59170776D01*
X123174623Y-59173373D01*
X123268872Y-59282143D01*
X123268873Y-59282144D01*
X123339100Y-59327276D01*
X123389947Y-59359953D01*
X123482008Y-59386984D01*
X123528038Y-59400500D01*
X123531859Y-59401049D01*
X123534752Y-59402471D01*
X123534833Y-59402495D01*
X123534828Y-59402508D01*
X123586768Y-59428041D01*
X123615326Y-59482153D01*
X123606623Y-59542716D01*
X123587781Y-59569046D01*
X117886305Y-65270524D01*
X117831788Y-65298301D01*
X117816301Y-65299520D01*
X113039925Y-65299520D01*
X113039618Y-65299500D01*
X113033313Y-65299500D01*
X112890865Y-65299500D01*
X112832674Y-65280593D01*
X112806889Y-65249891D01*
X112806465Y-65250194D01*
X112802615Y-65244802D01*
X112801923Y-65243978D01*
X112801698Y-65243518D01*
X112801698Y-65243517D01*
X112718983Y-65160802D01*
X112718981Y-65160801D01*
X112613895Y-65109427D01*
X112586639Y-65105456D01*
X112545760Y-65099500D01*
X111454240Y-65099500D01*
X111420173Y-65104463D01*
X111386104Y-65109427D01*
X111281018Y-65160801D01*
X111198301Y-65243518D01*
X111146927Y-65348604D01*
X111143886Y-65369476D01*
X111137000Y-65416740D01*
X111137000Y-65783260D01*
X111142040Y-65817854D01*
X111146927Y-65851395D01*
X111196939Y-65953694D01*
X111198302Y-65956483D01*
X111209874Y-65968055D01*
X111237650Y-66022570D01*
X111228079Y-66083002D01*
X111184814Y-66126267D01*
X111177760Y-66129519D01*
X111176114Y-66130200D01*
X111132696Y-66155266D01*
X111132697Y-66155267D01*
X111073387Y-66189509D01*
X111073384Y-66189512D01*
X111021154Y-66241741D01*
X110966637Y-66269517D01*
X110906205Y-66259945D01*
X110862942Y-66216680D01*
X110856083Y-66199355D01*
X110838781Y-66139800D01*
X110838780Y-66139798D01*
X110755185Y-65998447D01*
X110639053Y-65882315D01*
X110635901Y-65880451D01*
X110634280Y-65878612D01*
X110634134Y-65878499D01*
X110634155Y-65878471D01*
X110595440Y-65834553D01*
X110589141Y-65786932D01*
X110587741Y-65786831D01*
X110588000Y-65783258D01*
X110588000Y-65416743D01*
X110584748Y-65394422D01*
X110578073Y-65348607D01*
X110526698Y-65243517D01*
X110443983Y-65160802D01*
X110443981Y-65160801D01*
X110338895Y-65109427D01*
X110311639Y-65105456D01*
X110270760Y-65099500D01*
X109179240Y-65099500D01*
X109145173Y-65104463D01*
X109111104Y-65109427D01*
X109006018Y-65160801D01*
X108923301Y-65243518D01*
X108871927Y-65348604D01*
X108862000Y-65416743D01*
X108862000Y-65643969D01*
X108843093Y-65702160D01*
X108833004Y-65713973D01*
X108724504Y-65822473D01*
X108669987Y-65850250D01*
X108609555Y-65840679D01*
X108566290Y-65797414D01*
X108555500Y-65752469D01*
X108555500Y-61904728D01*
X111789500Y-61904728D01*
X111789500Y-62095271D01*
X111819306Y-62283456D01*
X111878185Y-62464669D01*
X111964687Y-62634439D01*
X111964689Y-62634443D01*
X112076677Y-62788582D01*
X112076679Y-62788584D01*
X112076682Y-62788588D01*
X112211412Y-62923318D01*
X112211415Y-62923320D01*
X112211417Y-62923322D01*
X112365556Y-63035310D01*
X112365560Y-63035312D01*
X112535329Y-63121814D01*
X112716541Y-63180693D01*
X112791817Y-63192615D01*
X112904729Y-63210500D01*
X112904732Y-63210500D01*
X113095271Y-63210500D01*
X113189363Y-63195596D01*
X113283459Y-63180693D01*
X113464671Y-63121814D01*
X113634440Y-63035312D01*
X113648071Y-63025409D01*
X113731645Y-62964689D01*
X113788588Y-62923318D01*
X113923318Y-62788588D01*
X114025559Y-62647864D01*
X114035310Y-62634443D01*
X114035312Y-62634440D01*
X114121814Y-62464671D01*
X114180693Y-62283459D01*
X114197080Y-62180000D01*
X114210500Y-62095271D01*
X114210500Y-61904728D01*
X114180693Y-61716543D01*
X114180693Y-61716541D01*
X114121814Y-61535329D01*
X114035312Y-61365560D01*
X114035310Y-61365556D01*
X113923322Y-61211417D01*
X113923320Y-61211415D01*
X113923318Y-61211412D01*
X113788588Y-61076682D01*
X113788584Y-61076679D01*
X113788582Y-61076677D01*
X113683041Y-60999997D01*
X120494353Y-60999997D01*
X120494353Y-61000002D01*
X120514834Y-61142456D01*
X120559831Y-61240984D01*
X120574623Y-61273373D01*
X120654503Y-61365560D01*
X120668873Y-61382144D01*
X120747221Y-61432495D01*
X120789947Y-61459953D01*
X120896403Y-61491211D01*
X120928035Y-61500499D01*
X120928036Y-61500499D01*
X120928039Y-61500500D01*
X120928041Y-61500500D01*
X121071959Y-61500500D01*
X121071961Y-61500500D01*
X121210053Y-61459953D01*
X121331128Y-61382143D01*
X121425377Y-61273373D01*
X121485165Y-61142457D01*
X121495941Y-61067505D01*
X121505647Y-61000002D01*
X121505647Y-60999997D01*
X121485165Y-60857543D01*
X121485165Y-60857541D01*
X121466023Y-60815626D01*
X121459048Y-60754840D01*
X121489135Y-60701563D01*
X121544791Y-60676145D01*
X121556076Y-60675500D01*
X121715262Y-60675500D01*
X121715265Y-60675499D01*
X121744849Y-60672725D01*
X121869475Y-60629116D01*
X121975711Y-60550711D01*
X122054116Y-60444475D01*
X122097725Y-60319849D01*
X122100500Y-60290256D01*
X122100500Y-59709744D01*
X122100500Y-59709738D01*
X122100499Y-59709733D01*
X122099854Y-59702855D01*
X122097725Y-59680151D01*
X122054116Y-59555525D01*
X122050407Y-59550500D01*
X121975714Y-59449293D01*
X121975713Y-59449292D01*
X121975711Y-59449289D01*
X121975706Y-59449285D01*
X121869476Y-59370884D01*
X121744852Y-59327276D01*
X121744851Y-59327275D01*
X121744849Y-59327275D01*
X121744847Y-59327274D01*
X121744844Y-59327274D01*
X121715266Y-59324500D01*
X121715256Y-59324500D01*
X121109744Y-59324500D01*
X121109733Y-59324500D01*
X121080155Y-59327274D01*
X121080147Y-59327276D01*
X120955523Y-59370884D01*
X120849293Y-59449285D01*
X120849285Y-59449293D01*
X120770884Y-59555523D01*
X120727276Y-59680147D01*
X120727274Y-59680155D01*
X120724500Y-59709733D01*
X120724500Y-60266605D01*
X120721126Y-60292229D01*
X120699500Y-60372935D01*
X120699500Y-60546105D01*
X120680593Y-60604296D01*
X120673258Y-60612289D01*
X120673509Y-60612506D01*
X120668872Y-60617856D01*
X120668872Y-60617857D01*
X120618366Y-60676145D01*
X120574622Y-60726628D01*
X120514834Y-60857543D01*
X120494353Y-60999997D01*
X113683041Y-60999997D01*
X113634443Y-60964689D01*
X113634439Y-60964687D01*
X113464669Y-60878185D01*
X113283456Y-60819306D01*
X113095271Y-60789500D01*
X113095268Y-60789500D01*
X112904732Y-60789500D01*
X112904729Y-60789500D01*
X112716543Y-60819306D01*
X112535330Y-60878185D01*
X112365560Y-60964687D01*
X112365556Y-60964689D01*
X112211417Y-61076677D01*
X112076677Y-61211417D01*
X111964689Y-61365556D01*
X111964687Y-61365560D01*
X111878185Y-61535330D01*
X111819306Y-61716543D01*
X111789500Y-61904728D01*
X108555500Y-61904728D01*
X108555500Y-60890437D01*
X108555499Y-60890435D01*
X108535022Y-60814014D01*
X108535021Y-60814013D01*
X108535021Y-60814011D01*
X108534003Y-60812247D01*
X108526263Y-60798840D01*
X108513000Y-60749342D01*
X108513000Y-60250001D01*
X115700000Y-60250001D01*
X115700000Y-60265636D01*
X115702899Y-60302489D01*
X115748719Y-60460200D01*
X115748719Y-60460201D01*
X115832314Y-60601552D01*
X115948447Y-60717685D01*
X116089799Y-60801280D01*
X116247506Y-60847098D01*
X116247513Y-60847100D01*
X116250000Y-60847295D01*
X116250000Y-60250001D01*
X116249999Y-60250000D01*
X115700001Y-60250000D01*
X115700000Y-60250001D01*
X108513000Y-60250001D01*
X108513000Y-60209738D01*
X108512999Y-60209733D01*
X108511957Y-60198620D01*
X108510225Y-60180151D01*
X108466616Y-60055525D01*
X108445664Y-60027136D01*
X108388214Y-59949293D01*
X108388213Y-59949292D01*
X108388211Y-59949289D01*
X108388206Y-59949285D01*
X108281976Y-59870884D01*
X108157352Y-59827276D01*
X108157351Y-59827275D01*
X108157349Y-59827275D01*
X108157347Y-59827274D01*
X108157344Y-59827274D01*
X108127766Y-59824500D01*
X108127756Y-59824500D01*
X107522244Y-59824500D01*
X107522233Y-59824500D01*
X107492655Y-59827274D01*
X107492647Y-59827276D01*
X107368023Y-59870884D01*
X107261793Y-59949285D01*
X107261785Y-59949293D01*
X107183384Y-60055522D01*
X107163799Y-60111493D01*
X107126733Y-60160173D01*
X107068132Y-60177769D01*
X107010380Y-60157560D01*
X106976380Y-60109934D01*
X106922951Y-59948693D01*
X106832446Y-59801964D01*
X106764845Y-59734363D01*
X115700000Y-59734363D01*
X115700000Y-59749999D01*
X115700001Y-59750000D01*
X116249999Y-59750000D01*
X116250000Y-59749999D01*
X116250000Y-59152703D01*
X116249999Y-59152702D01*
X116247508Y-59152900D01*
X116089798Y-59198719D01*
X115948447Y-59282314D01*
X115832314Y-59398447D01*
X115748719Y-59539798D01*
X115748719Y-59539799D01*
X115702899Y-59697510D01*
X115700000Y-59734363D01*
X106764845Y-59734363D01*
X106710535Y-59680053D01*
X106563806Y-59589548D01*
X106400148Y-59535318D01*
X106299155Y-59525000D01*
X106250001Y-59525000D01*
X106250000Y-59525001D01*
X106250000Y-60651000D01*
X106231093Y-60709191D01*
X106181593Y-60745155D01*
X106151000Y-60750000D01*
X105012502Y-60750000D01*
X105012501Y-60750001D01*
X105012501Y-60786654D01*
X105022817Y-60887642D01*
X105022821Y-60887657D01*
X105033326Y-60919361D01*
X105033682Y-60980545D01*
X104998006Y-61030253D01*
X104939926Y-61049498D01*
X104939351Y-61049500D01*
X103624500Y-61049500D01*
X103566309Y-61030593D01*
X103530345Y-60981093D01*
X103525500Y-60950500D01*
X103525499Y-60213344D01*
X105012500Y-60213344D01*
X105012500Y-60249999D01*
X105012501Y-60250000D01*
X105749999Y-60250000D01*
X105750000Y-60249999D01*
X105750000Y-59524999D01*
X105700847Y-59525000D01*
X105700844Y-59525001D01*
X105599857Y-59535317D01*
X105599845Y-59535320D01*
X105436193Y-59589548D01*
X105289464Y-59680053D01*
X105167553Y-59801964D01*
X105077048Y-59948693D01*
X105022818Y-60112351D01*
X105012500Y-60213344D01*
X103525499Y-60213344D01*
X103525499Y-59970734D01*
X103523488Y-59949285D01*
X103522646Y-59940302D01*
X103477793Y-59812118D01*
X103477791Y-59812116D01*
X103477791Y-59812114D01*
X103397154Y-59702855D01*
X103397152Y-59702853D01*
X103397150Y-59702850D01*
X103397146Y-59702847D01*
X103397144Y-59702845D01*
X103287885Y-59622208D01*
X103213777Y-59596277D01*
X103159698Y-59577354D01*
X103159696Y-59577353D01*
X103159694Y-59577353D01*
X103129272Y-59574500D01*
X100870734Y-59574500D01*
X100840305Y-59577353D01*
X100840302Y-59577353D01*
X100840302Y-59577354D01*
X100826227Y-59582279D01*
X100712117Y-59622207D01*
X100658288Y-59661935D01*
X100600240Y-59681276D01*
X100541909Y-59662804D01*
X100505577Y-59613574D01*
X100500500Y-59582279D01*
X100500500Y-58417720D01*
X100519407Y-58359529D01*
X100568907Y-58323565D01*
X100630093Y-58323565D01*
X100658288Y-58338065D01*
X100712114Y-58377791D01*
X100712116Y-58377791D01*
X100712118Y-58377793D01*
X100840302Y-58422646D01*
X100870735Y-58425500D01*
X103129264Y-58425499D01*
X103129265Y-58425499D01*
X103135350Y-58424928D01*
X103159698Y-58422646D01*
X103287882Y-58377793D01*
X103313765Y-58358691D01*
X103341712Y-58338065D01*
X103397150Y-58297150D01*
X103423503Y-58261443D01*
X103429578Y-58253212D01*
X103479345Y-58217619D01*
X103509233Y-58213000D01*
X105016493Y-58213000D01*
X105016494Y-58213000D01*
X105151828Y-58186080D01*
X105279311Y-58133275D01*
X105374409Y-58069732D01*
X105433296Y-58053124D01*
X105439081Y-58053522D01*
X105460000Y-58055583D01*
X105472503Y-58054351D01*
X105532266Y-58067461D01*
X105552213Y-58082870D01*
X106563457Y-59094114D01*
X106678189Y-59170775D01*
X106805672Y-59223580D01*
X106941006Y-59250500D01*
X106941007Y-59250500D01*
X113978993Y-59250500D01*
X113978994Y-59250500D01*
X114114328Y-59223580D01*
X114241811Y-59170775D01*
X114356543Y-59094114D01*
X115371161Y-58079496D01*
X115425678Y-58051719D01*
X115441165Y-58050500D01*
X116329747Y-58050500D01*
X116329748Y-58050500D01*
X116388231Y-58038867D01*
X116454552Y-57994552D01*
X116498867Y-57928231D01*
X116510500Y-57869748D01*
X116510500Y-56130252D01*
X116508921Y-56122316D01*
X116502403Y-56089548D01*
X116498867Y-56071769D01*
X116454552Y-56005448D01*
X116405382Y-55972593D01*
X116388233Y-55961134D01*
X116388231Y-55961133D01*
X116388228Y-55961132D01*
X116388227Y-55961132D01*
X116329758Y-55949501D01*
X116329748Y-55949500D01*
X114590252Y-55949500D01*
X114590251Y-55949500D01*
X114590241Y-55949501D01*
X114531772Y-55961132D01*
X114531766Y-55961134D01*
X114465451Y-56005445D01*
X114465445Y-56005451D01*
X114421134Y-56071766D01*
X114421132Y-56071772D01*
X114409501Y-56130241D01*
X114409500Y-56130253D01*
X114409500Y-57018835D01*
X114390593Y-57077026D01*
X114380504Y-57088839D01*
X113648839Y-57820504D01*
X113594322Y-57848281D01*
X113578835Y-57849500D01*
X111989000Y-57849500D01*
X111930809Y-57830593D01*
X111894845Y-57781093D01*
X111890000Y-57750500D01*
X111890000Y-57250001D01*
X111889999Y-57250000D01*
X110973012Y-57250000D01*
X111005925Y-57192993D01*
X111040000Y-57065826D01*
X111040000Y-56934174D01*
X111005925Y-56807007D01*
X110973012Y-56750000D01*
X111889999Y-56750000D01*
X111890000Y-56749999D01*
X111890000Y-56102175D01*
X111883598Y-56042629D01*
X111883596Y-56042618D01*
X111833353Y-55907911D01*
X111833352Y-55907909D01*
X111747192Y-55792815D01*
X111747184Y-55792807D01*
X111632090Y-55706647D01*
X111593511Y-55692258D01*
X111545597Y-55654208D01*
X111529199Y-55595261D01*
X111550581Y-55537933D01*
X111601575Y-55504122D01*
X111628108Y-55500500D01*
X120168231Y-55500500D01*
X120226422Y-55519407D01*
G37*
G04 #@! TD.AperFunction*
G04 #@! TA.AperFunction,Conductor*
G36*
X126164795Y-64561231D02*
G01*
X126196764Y-64613400D01*
X126199500Y-64636512D01*
X126199500Y-65363487D01*
X126180593Y-65421678D01*
X126131093Y-65457642D01*
X126069907Y-65457642D01*
X126020407Y-65421678D01*
X126009036Y-65401373D01*
X126002262Y-65385020D01*
X126002261Y-65385018D01*
X125910099Y-65264910D01*
X125910092Y-65264903D01*
X125808289Y-65186786D01*
X125773634Y-65136361D01*
X125771459Y-65127556D01*
X125759806Y-65068969D01*
X125759515Y-65067505D01*
X125751159Y-65054999D01*
X125734551Y-64996114D01*
X125751159Y-64944999D01*
X125759515Y-64932495D01*
X125771461Y-64872438D01*
X125801357Y-64819056D01*
X125808291Y-64813212D01*
X125910089Y-64735099D01*
X125910099Y-64735089D01*
X126002261Y-64614981D01*
X126002263Y-64614977D01*
X126009036Y-64598627D01*
X126048772Y-64552101D01*
X126108266Y-64537817D01*
X126164795Y-64561231D01*
G37*
G04 #@! TD.AperFunction*
G04 #@! TA.AperFunction,Conductor*
G36*
X127231436Y-60514010D02*
G01*
X127235200Y-60517581D01*
X127420504Y-60702885D01*
X127448281Y-60757402D01*
X127449500Y-60772889D01*
X127449500Y-64834521D01*
X127430593Y-64892712D01*
X127420505Y-64904523D01*
X127354523Y-64970504D01*
X127300008Y-64998281D01*
X127284521Y-64999500D01*
X127178035Y-64999500D01*
X127039949Y-65040046D01*
X127039942Y-65040049D01*
X126953023Y-65095909D01*
X126893848Y-65111464D01*
X126836832Y-65089265D01*
X126803752Y-65037792D01*
X126800500Y-65012625D01*
X126800500Y-61603027D01*
X126800499Y-61603025D01*
X126796494Y-61588080D01*
X126780021Y-61526601D01*
X126740460Y-61458079D01*
X126714875Y-61432494D01*
X126684511Y-61402129D01*
X126684511Y-61402130D01*
X126577882Y-61295501D01*
X126550105Y-61240984D01*
X126559676Y-61180552D01*
X126594363Y-61142213D01*
X126596728Y-61140692D01*
X126596731Y-61140692D01*
X126717806Y-61062882D01*
X126812055Y-60954112D01*
X126871843Y-60823196D01*
X126882367Y-60750000D01*
X126892325Y-60680741D01*
X126892325Y-60680737D01*
X126891112Y-60672301D01*
X126901545Y-60612011D01*
X126945423Y-60569369D01*
X126968936Y-60562251D01*
X126968837Y-60561879D01*
X126975109Y-60560198D01*
X127114973Y-60502265D01*
X127115691Y-60501851D01*
X127116271Y-60501727D01*
X127120976Y-60499779D01*
X127121337Y-60500650D01*
X127175539Y-60489127D01*
X127231436Y-60514010D01*
G37*
G04 #@! TD.AperFunction*
G04 #@! TA.AperFunction,Conductor*
G36*
X106889191Y-63475907D02*
G01*
X106925155Y-63525407D01*
X106930000Y-63556000D01*
X106930000Y-64451000D01*
X106911093Y-64509191D01*
X106861593Y-64545155D01*
X106831000Y-64550000D01*
X106167515Y-64550000D01*
X106109324Y-64531093D01*
X106073360Y-64481593D01*
X106071888Y-64476623D01*
X106071822Y-64476376D01*
X106057414Y-64422604D01*
X106057412Y-64422601D01*
X106057412Y-64422599D01*
X105993499Y-64311900D01*
X105993497Y-64311898D01*
X105993496Y-64311896D01*
X105903104Y-64221504D01*
X105903101Y-64221502D01*
X105900603Y-64219004D01*
X105872826Y-64164487D01*
X105882397Y-64104055D01*
X105925662Y-64060790D01*
X105970607Y-64050000D01*
X106429999Y-64050000D01*
X106430000Y-64049999D01*
X106430000Y-63556000D01*
X106448907Y-63497809D01*
X106473419Y-63480000D01*
X106694496Y-63480000D01*
X106770796Y-63459556D01*
X106775223Y-63457000D01*
X106831000Y-63457000D01*
X106889191Y-63475907D01*
G37*
G04 #@! TD.AperFunction*
G04 #@! TA.AperFunction,Conductor*
G36*
X100658288Y-61313065D02*
G01*
X100712114Y-61352791D01*
X100712116Y-61352791D01*
X100712118Y-61352793D01*
X100840302Y-61397646D01*
X100870735Y-61400500D01*
X102234887Y-61400499D01*
X102293078Y-61419406D01*
X102304891Y-61429495D01*
X102820504Y-61945107D01*
X102848281Y-61999624D01*
X102849500Y-62015111D01*
X102849500Y-62166698D01*
X102830593Y-62224889D01*
X102781093Y-62260853D01*
X102719907Y-62260853D01*
X102712615Y-62258162D01*
X102616689Y-62218429D01*
X102423493Y-62180000D01*
X102175001Y-62180000D01*
X102175000Y-62180001D01*
X102175000Y-62880000D01*
X101675000Y-62880000D01*
X101675000Y-62180001D01*
X101674999Y-62180000D01*
X101426506Y-62180000D01*
X101233311Y-62218429D01*
X101233309Y-62218429D01*
X101051326Y-62293808D01*
X101051314Y-62293814D01*
X100887537Y-62403249D01*
X100887533Y-62403252D01*
X100748248Y-62542537D01*
X100681815Y-62641961D01*
X100633765Y-62679840D01*
X100572626Y-62682242D01*
X100521753Y-62648248D01*
X100500576Y-62590845D01*
X100500500Y-62586959D01*
X100500500Y-61392720D01*
X100519407Y-61334529D01*
X100568907Y-61298565D01*
X100630093Y-61298565D01*
X100658288Y-61313065D01*
G37*
G04 #@! TD.AperFunction*
G04 #@! TA.AperFunction,Conductor*
G36*
X128912868Y-55519407D02*
G01*
X128948832Y-55568907D01*
X128951775Y-55618814D01*
X128949500Y-55630249D01*
X128949500Y-57369746D01*
X128949501Y-57369758D01*
X128961132Y-57428227D01*
X128961134Y-57428233D01*
X128991549Y-57473751D01*
X129005448Y-57494552D01*
X129071769Y-57538867D01*
X129116231Y-57547711D01*
X129130241Y-57550498D01*
X129130246Y-57550498D01*
X129130252Y-57550500D01*
X129850500Y-57550500D01*
X129908691Y-57569407D01*
X129944655Y-57618907D01*
X129949500Y-57649500D01*
X129949500Y-58300500D01*
X129930593Y-58358691D01*
X129881093Y-58394655D01*
X129850500Y-58399500D01*
X129647870Y-58399500D01*
X129647862Y-58399501D01*
X129567505Y-58415484D01*
X129567501Y-58415486D01*
X129554999Y-58423840D01*
X129496111Y-58440447D01*
X129445001Y-58423840D01*
X129432496Y-58415485D01*
X129432495Y-58415484D01*
X129352134Y-58399500D01*
X129147870Y-58399500D01*
X129147862Y-58399501D01*
X129067505Y-58415484D01*
X129067501Y-58415486D01*
X129054999Y-58423840D01*
X128996111Y-58440447D01*
X128945001Y-58423840D01*
X128932496Y-58415485D01*
X128932495Y-58415484D01*
X128852134Y-58399500D01*
X128647870Y-58399500D01*
X128647858Y-58399502D01*
X128618772Y-58405287D01*
X128558011Y-58398094D01*
X128513725Y-58357690D01*
X128490460Y-58317393D01*
X128470211Y-58297144D01*
X128434511Y-58261443D01*
X128434511Y-58261444D01*
X127707607Y-57534540D01*
X127707604Y-57534538D01*
X127639088Y-57494980D01*
X127639084Y-57494978D01*
X127562660Y-57474500D01*
X127556969Y-57473751D01*
X127501744Y-57447410D01*
X127472549Y-57393640D01*
X127480535Y-57332978D01*
X127499888Y-57305594D01*
X127607442Y-57198040D01*
X127607446Y-57198035D01*
X127697951Y-57051306D01*
X127752181Y-56887648D01*
X127762500Y-56786655D01*
X127762500Y-56750001D01*
X127762499Y-56750000D01*
X126574000Y-56750000D01*
X126515809Y-56731093D01*
X126479845Y-56681593D01*
X126475000Y-56651000D01*
X126475000Y-56349000D01*
X126493907Y-56290809D01*
X126543407Y-56254845D01*
X126574000Y-56250000D01*
X127762498Y-56250000D01*
X127762499Y-56249999D01*
X127762499Y-56213345D01*
X127752182Y-56112357D01*
X127752179Y-56112345D01*
X127697951Y-55948693D01*
X127607446Y-55801964D01*
X127485533Y-55680051D01*
X127481874Y-55677158D01*
X127447954Y-55626236D01*
X127450444Y-55565101D01*
X127488393Y-55517106D01*
X127543276Y-55500500D01*
X128854677Y-55500500D01*
X128912868Y-55519407D01*
G37*
G04 #@! TD.AperFunction*
G04 #@! TA.AperFunction,Conductor*
G36*
X129900000Y-68895086D02*
G01*
X129900001Y-68895087D01*
X129975098Y-68885201D01*
X129975099Y-68885201D01*
X130048575Y-68854767D01*
X130118045Y-68847298D01*
X130180524Y-68878573D01*
X130206937Y-68913874D01*
X130499998Y-69499998D01*
X130499999Y-69499999D01*
X130500000Y-69500000D01*
X133448638Y-69500000D01*
X133515677Y-69519685D01*
X133536319Y-69536319D01*
X135500000Y-71500000D01*
X139375500Y-71500000D01*
X139442539Y-71519685D01*
X139488294Y-71572489D01*
X139499500Y-71624000D01*
X139499500Y-79375500D01*
X139479815Y-79442539D01*
X139427011Y-79488294D01*
X139375500Y-79499500D01*
X136017845Y-79499500D01*
X135950806Y-79479815D01*
X135905051Y-79427011D01*
X135895107Y-79357853D01*
X135924132Y-79294297D01*
X135930164Y-79287819D01*
X136019944Y-79198038D01*
X136019945Y-79198037D01*
X136083388Y-79095180D01*
X136135336Y-79048455D01*
X136204298Y-79037232D01*
X136262560Y-79060505D01*
X136355525Y-79129116D01*
X136480151Y-79172725D01*
X136480150Y-79172725D01*
X136509740Y-79175500D01*
X136509744Y-79175500D01*
X137215260Y-79175500D01*
X137244849Y-79172725D01*
X137369475Y-79129116D01*
X137475711Y-79050711D01*
X137554116Y-78944475D01*
X137597725Y-78819849D01*
X137600500Y-78790256D01*
X137600500Y-78209744D01*
X137597725Y-78180151D01*
X137554116Y-78055525D01*
X137475711Y-77949289D01*
X137474165Y-77948148D01*
X137369476Y-77870884D01*
X137369477Y-77870884D01*
X137246044Y-77827692D01*
X137189268Y-77786970D01*
X137163522Y-77722017D01*
X137163000Y-77710651D01*
X137163000Y-76324500D01*
X137182685Y-76257461D01*
X137235489Y-76211706D01*
X137287000Y-76200500D01*
X139019750Y-76200500D01*
X139019751Y-76200499D01*
X139034568Y-76197552D01*
X139078229Y-76188868D01*
X139078229Y-76188867D01*
X139078231Y-76188867D01*
X139144552Y-76144552D01*
X139188867Y-76078231D01*
X139188867Y-76078229D01*
X139188868Y-76078229D01*
X139200499Y-76019752D01*
X139200500Y-76019750D01*
X139200500Y-73980249D01*
X139200499Y-73980247D01*
X139188868Y-73921770D01*
X139188867Y-73921769D01*
X139144552Y-73855447D01*
X139078230Y-73811132D01*
X139078229Y-73811131D01*
X139019752Y-73799500D01*
X139019748Y-73799500D01*
X136025833Y-73799500D01*
X135958794Y-73779815D01*
X135938152Y-73763181D01*
X133549319Y-71374348D01*
X133515834Y-71313025D01*
X133513000Y-71286667D01*
X133513000Y-70709739D01*
X133510225Y-70680150D01*
X133482354Y-70600500D01*
X133466616Y-70555525D01*
X133465576Y-70554116D01*
X133388211Y-70449289D01*
X133388210Y-70449288D01*
X133281976Y-70370884D01*
X133157348Y-70327274D01*
X133157349Y-70327274D01*
X133127760Y-70324500D01*
X133127756Y-70324500D01*
X132522244Y-70324500D01*
X132522240Y-70324500D01*
X132492650Y-70327274D01*
X132368023Y-70370884D01*
X132261789Y-70449288D01*
X132261788Y-70449289D01*
X132183384Y-70555523D01*
X132139774Y-70680150D01*
X132137000Y-70709739D01*
X132137000Y-71290260D01*
X132139774Y-71319849D01*
X132183384Y-71444476D01*
X132261788Y-71550710D01*
X132261789Y-71550711D01*
X132368023Y-71629115D01*
X132368024Y-71629115D01*
X132368025Y-71629116D01*
X132492651Y-71672725D01*
X132492650Y-71672725D01*
X132522240Y-71675500D01*
X132522244Y-71675500D01*
X132949167Y-71675500D01*
X133016206Y-71695185D01*
X133036848Y-71711819D01*
X134912848Y-73587819D01*
X134946333Y-73649142D01*
X134941349Y-73718834D01*
X134899477Y-73774767D01*
X134834013Y-73799184D01*
X134825167Y-73799500D01*
X134480247Y-73799500D01*
X134421770Y-73811131D01*
X134421769Y-73811132D01*
X134355447Y-73855447D01*
X134311132Y-73921769D01*
X134311131Y-73921770D01*
X134299500Y-73980247D01*
X134299500Y-76019752D01*
X134311131Y-76078229D01*
X134311132Y-76078230D01*
X134355447Y-76144552D01*
X134421769Y-76188867D01*
X134421770Y-76188868D01*
X134480247Y-76200499D01*
X134480250Y-76200500D01*
X134480252Y-76200500D01*
X136438000Y-76200500D01*
X136505039Y-76220185D01*
X136550794Y-76272989D01*
X136562000Y-76324500D01*
X136562000Y-77710651D01*
X136542315Y-77777690D01*
X136489511Y-77823445D01*
X136478956Y-77827692D01*
X136355525Y-77870883D01*
X136262560Y-77939494D01*
X136196930Y-77963464D01*
X136128760Y-77948148D01*
X136083388Y-77904820D01*
X136019943Y-77801960D01*
X135898038Y-77680055D01*
X135898034Y-77680052D01*
X135751311Y-77589551D01*
X135751300Y-77589546D01*
X135587652Y-77535319D01*
X135486654Y-77525000D01*
X135387500Y-77525000D01*
X135387500Y-78626000D01*
X135367815Y-78693039D01*
X135315011Y-78738794D01*
X135263500Y-78750000D01*
X134100001Y-78750000D01*
X134100001Y-78786654D01*
X134110319Y-78887652D01*
X134164546Y-79051300D01*
X134164551Y-79051311D01*
X134255052Y-79198034D01*
X134255055Y-79198038D01*
X134344836Y-79287819D01*
X134378321Y-79349142D01*
X134373337Y-79418834D01*
X134331465Y-79474767D01*
X134266001Y-79499184D01*
X134257155Y-79499500D01*
X131742845Y-79499500D01*
X131675806Y-79479815D01*
X131630051Y-79427011D01*
X131620107Y-79357853D01*
X131649132Y-79294297D01*
X131655164Y-79287819D01*
X131744944Y-79198038D01*
X131744947Y-79198034D01*
X131835448Y-79051311D01*
X131835453Y-79051300D01*
X131889680Y-78887652D01*
X131899999Y-78786654D01*
X131900000Y-78786641D01*
X131900000Y-78750000D01*
X130736500Y-78750000D01*
X130669461Y-78730315D01*
X130623706Y-78677511D01*
X130612500Y-78626000D01*
X130612500Y-78250000D01*
X131112500Y-78250000D01*
X131899999Y-78250000D01*
X131899999Y-78213360D01*
X131899998Y-78213345D01*
X134100000Y-78213345D01*
X134100000Y-78250000D01*
X134887500Y-78250000D01*
X134887500Y-77524999D01*
X134788360Y-77525000D01*
X134788344Y-77525001D01*
X134687347Y-77535319D01*
X134523699Y-77589546D01*
X134523688Y-77589551D01*
X134376965Y-77680052D01*
X134376961Y-77680055D01*
X134255055Y-77801961D01*
X134255052Y-77801965D01*
X134164551Y-77948688D01*
X134164546Y-77948699D01*
X134110319Y-78112347D01*
X134100000Y-78213345D01*
X131899998Y-78213345D01*
X131889680Y-78112347D01*
X131835453Y-77948699D01*
X131835448Y-77948688D01*
X131744947Y-77801965D01*
X131744944Y-77801961D01*
X131623038Y-77680055D01*
X131623034Y-77680052D01*
X131476311Y-77589551D01*
X131476300Y-77589546D01*
X131312652Y-77535319D01*
X131211654Y-77525000D01*
X131112500Y-77525000D01*
X131112500Y-78250000D01*
X130612500Y-78250000D01*
X130612500Y-77524999D01*
X130513360Y-77525000D01*
X130513344Y-77525001D01*
X130412347Y-77535319D01*
X130248699Y-77589546D01*
X130248688Y-77589551D01*
X130101965Y-77680052D01*
X130101961Y-77680055D01*
X129980054Y-77801962D01*
X129916610Y-77904821D01*
X129864662Y-77951545D01*
X129795699Y-77962766D01*
X129737439Y-77939494D01*
X129644474Y-77870883D01*
X129519848Y-77827274D01*
X129519849Y-77827274D01*
X129490260Y-77824500D01*
X129490256Y-77824500D01*
X128938333Y-77824500D01*
X128871294Y-77804815D01*
X128850652Y-77788181D01*
X128586819Y-77524348D01*
X128553334Y-77463025D01*
X128550500Y-77436667D01*
X128550500Y-76324500D01*
X128570185Y-76257461D01*
X128622989Y-76211706D01*
X128674500Y-76200500D01*
X130519750Y-76200500D01*
X130519751Y-76200499D01*
X130534568Y-76197552D01*
X130578229Y-76188868D01*
X130578229Y-76188867D01*
X130578231Y-76188867D01*
X130644552Y-76144552D01*
X130688867Y-76078231D01*
X130688867Y-76078229D01*
X130688868Y-76078229D01*
X130700499Y-76019752D01*
X130700500Y-76019750D01*
X130700500Y-73980249D01*
X130700499Y-73980247D01*
X130688868Y-73921770D01*
X130688867Y-73921769D01*
X130644552Y-73855447D01*
X130578230Y-73811132D01*
X130578229Y-73811131D01*
X130519752Y-73799500D01*
X130519748Y-73799500D01*
X128674500Y-73799500D01*
X128607461Y-73779815D01*
X128561706Y-73727011D01*
X128550500Y-73675500D01*
X128550500Y-69274833D01*
X128570185Y-69207794D01*
X128622989Y-69162039D01*
X128692147Y-69152095D01*
X128755703Y-69181120D01*
X128762181Y-69187152D01*
X130275681Y-70700652D01*
X130309166Y-70761975D01*
X130312000Y-70788333D01*
X130312000Y-71290260D01*
X130314774Y-71319849D01*
X130358384Y-71444476D01*
X130436788Y-71550710D01*
X130436789Y-71550711D01*
X130543023Y-71629115D01*
X130543024Y-71629115D01*
X130543025Y-71629116D01*
X130667651Y-71672725D01*
X130667650Y-71672725D01*
X130697240Y-71675500D01*
X130697244Y-71675500D01*
X131302760Y-71675500D01*
X131332349Y-71672725D01*
X131456975Y-71629116D01*
X131563211Y-71550711D01*
X131641616Y-71444475D01*
X131685225Y-71319849D01*
X131688000Y-71290256D01*
X131688000Y-70709744D01*
X131687147Y-70700652D01*
X131685225Y-70680150D01*
X131657354Y-70600500D01*
X131641616Y-70555525D01*
X131640576Y-70554116D01*
X131563211Y-70449289D01*
X131563210Y-70449288D01*
X131456976Y-70370884D01*
X131332348Y-70327274D01*
X131332349Y-70327274D01*
X131302760Y-70324500D01*
X131302756Y-70324500D01*
X130800833Y-70324500D01*
X130733794Y-70304815D01*
X130713152Y-70288181D01*
X129535914Y-69110943D01*
X129502429Y-69049620D01*
X129507413Y-68979928D01*
X129549285Y-68923995D01*
X129580172Y-68912474D01*
X129600000Y-68895086D01*
X129600000Y-68500000D01*
X129900000Y-68500000D01*
X129900000Y-68895086D01*
G37*
G04 #@! TD.AperFunction*
M02*
