M48
; DRILL file {KiCad 8.0.3-8.0.3-0~ubuntu22.04.1} date 2025-02-10T22:14:24+0100
; FORMAT={-:-/ absolute / metric / decimal}
; #@! TF.CreationDate,2025-02-10T22:14:24+01:00
; #@! TF.GenerationSoftware,Kicad,Pcbnew,8.0.3-8.0.3-0~ubuntu22.04.1
; #@! TF.FileFunction,Plated,1,2,PTH
FMAT,2
METRIC
; #@! TA.AperFunction,Plated,PTH,ViaDrill
T1C0.300
; #@! TA.AperFunction,Plated,PTH,ComponentDrill
T2C0.600
; #@! TA.AperFunction,Plated,PTH,ComponentDrill
T3C1.000
%
G90
G05
T1
X102.337Y-74.87
X104.5Y-60.0
X104.877Y-67.25
X106.2Y-73.8
X108.25Y-69.15
X108.6Y-71.0
X109.0Y-78.9
X109.957Y-62.17
X109.957Y-72.33
X109.957Y-77.41
X110.837Y-64.837
X112.497Y-57.09
X112.7Y-72.5
X113.8Y-76.3
X115.037Y-62.17
X115.037Y-69.79
X116.5Y-61.4
X117.577Y-69.79
X117.6Y-71.7
X120.7Y-64.8
X121.0Y-61.0
X121.1Y-73.2
X122.2Y-69.9
X123.287Y-76.192
X123.4Y-75.4
X123.5Y-62.0
X123.6Y-58.9
X125.7Y-57.1
X125.889Y-64.25
X126.387Y-60.681
X126.684Y-66.1
X127.15Y-61.0
X127.25Y-65.5
X127.5Y-69.3
X127.7Y-66.2
X127.9Y-56.8
X129.799Y-68.951
X129.8Y-66.1
X130.277Y-72.33
X132.817Y-74.87
X132.817Y-77.41
X132.9Y-59.1
X135.357Y-62.17
X137.2Y-67.1
X137.3Y-68.7
X137.897Y-72.33
X138.5Y-60.5
T3
X105.46Y-57.0
X108.0Y-57.0
X110.54Y-57.0
X112.84Y-78.0
X115.38Y-78.0
X115.46Y-57.0
X117.92Y-78.0
X118.0Y-57.0
X120.46Y-78.0
X120.54Y-57.0
X123.0Y-78.0
X130.0Y-56.5
T2
X102.325Y-63.18G85X101.525Y-63.18
G05
X102.325Y-71.82G85X101.525Y-71.82
G05
X106.655Y-63.18G85X105.555Y-63.18
G05
X106.655Y-71.82G85X105.555Y-71.82
G05
M30
